<svg width="178" height="53" viewBox="0 0 178 53" fill="none" xmlns="http://www.w3.org/2000/svg">
<g clip-path="url(#clip0_494_3575)">
<path d="M176.819 46.7197C176.819 47.3868 176.688 48.0473 176.434 48.6635C176.18 49.2797 175.807 49.8396 175.338 50.311C174.868 50.7824 174.31 51.1562 173.697 51.411C173.083 51.6658 172.425 51.7966 171.761 51.7959H6.23884C4.89727 51.7973 3.61008 51.2633 2.66033 50.3114C1.71059 49.3595 1.17606 48.0676 1.17432 46.7197V6.23914C1.17606 4.89073 1.71038 3.59812 2.65993 2.64515C3.60949 1.69217 4.89667 1.15672 6.23884 1.15637H171.76C172.424 1.15637 173.082 1.28785 173.696 1.5433C174.31 1.79875 174.867 2.17317 175.337 2.64516C175.807 3.11716 176.179 3.67749 176.433 4.29415C176.687 4.91081 176.818 5.57173 176.818 6.23914L176.819 46.7197Z" fill="white"/>
<path d="M171.761 52.9768H6.23864C4.58598 52.9765 3.00096 52.3175 1.83137 51.1444C0.661774 49.9714 0.00314455 48.3801 0 46.7198L0 6.24048C0.00244487 4.57932 0.66064 2.98695 1.8302 1.8127C2.99975 0.638453 4.58516 -0.0217913 6.23864 -0.0231934L171.76 -0.0231934C173.413 -0.0210917 174.998 0.639377 176.168 1.81347C177.337 2.98757 177.995 4.57953 177.998 6.24048V46.7198C178.001 50.171 175.198 52.9768 171.761 52.9768Z" fill="#A6A6A6"/>
<path d="M176.819 46.7197C176.819 47.3868 176.688 48.0473 176.434 48.6635C176.18 49.2797 175.807 49.8396 175.338 50.311C174.868 50.7824 174.31 51.1562 173.697 51.411C173.083 51.6658 172.425 51.7966 171.761 51.7959H6.23884C4.89727 51.7973 3.61008 51.2633 2.66033 50.3114C1.71059 49.3595 1.17606 48.0676 1.17432 46.7197V6.23914C1.17606 4.89073 1.71038 3.59812 2.65993 2.64515C3.60949 1.69217 4.89667 1.15672 6.23884 1.15637H171.76C172.424 1.15637 173.082 1.28785 173.696 1.5433C174.31 1.79875 174.867 2.17317 175.337 2.64516C175.807 3.11716 176.179 3.67749 176.433 4.29415C176.687 4.91081 176.818 5.57173 176.818 6.23914L176.819 46.7197Z" fill="black"/>
<path d="M39.7458 26.1978C39.7075 21.9261 43.2272 19.8479 43.3882 19.7512C41.3948 16.8314 38.3052 16.4325 37.2195 16.4007C34.6245 16.1263 32.1074 17.9606 30.7856 17.9606C29.4373 17.9606 27.4018 16.4272 25.2079 16.4722C22.3847 16.516 19.7436 18.1581 18.2951 20.7081C15.3057 25.9075 17.5352 33.5482 20.3993 37.751C21.832 39.8106 23.5061 42.1074 25.6973 42.0266C27.8411 41.9391 28.6418 40.6548 31.2288 40.6548C33.7921 40.6548 34.5441 42.0266 36.7788 41.9749C39.0796 41.9391 40.5281 39.9073 41.9106 37.8305C43.5663 35.4727 44.2312 33.148 44.2576 33.0287C44.2048 33.0101 39.7906 31.3163 39.7458 26.1978ZM35.5243 13.636C36.6773 12.1873 37.4662 10.2165 37.2472 8.21655C35.5783 8.29077 33.4913 9.37625 32.2895 10.7931C31.2262 12.0416 30.2764 14.0879 30.5217 16.0123C32.3964 16.1528 34.3211 15.0621 35.5243 13.636Z" fill="white"/>
<path d="M171.761 -0.0231934H83.1021L117.828 52.9768H171.761C173.414 52.9754 174.999 52.3155 176.168 51.1418C177.338 49.9682 177.996 48.3765 178 46.7158V6.24048C177.997 4.57942 177.338 2.98726 176.169 1.81309C175 0.638916 173.414 -0.0214413 171.761 -0.0231934V-0.0231934Z" fill="url(#paint0_linear_494_3575)"/>
<path d="M70.7967 41.7311H67.8007L66.1596 36.5502H60.4552L58.8919 41.7311H55.9751L61.628 24.0931H65.1187L70.7967 41.7311ZM65.6648 34.3766L64.1807 29.771C64.0237 29.3005 63.7282 28.1925 63.2955 26.4483H63.2427C63.0686 27.1985 62.7902 28.3065 62.409 29.771L60.9499 34.3766H65.6648ZM85.3056 35.2156C85.3056 37.3786 84.7211 39.0883 83.551 40.3434C82.5035 41.4607 81.2014 42.0187 79.6487 42.0187C77.9719 42.0187 76.7662 41.4183 76.034 40.2149V46.8881H73.2214V33.1931C73.2214 31.8346 73.1858 30.4416 73.1172 29.0129H75.5907L75.7477 31.0288H75.8005C76.7385 29.5099 78.1619 28.7505 80.0722 28.7505C81.5655 28.7505 82.8122 29.3429 83.8095 30.5291C84.8056 31.7179 85.3056 33.2792 85.3056 35.2156ZM82.4402 35.319C82.4402 34.0811 82.1631 33.0605 81.6064 32.256C80.9983 31.4197 80.1817 31.0009 79.1579 31.0009C78.464 31.0009 77.8334 31.2342 77.2701 31.6941C76.7055 32.158 76.3361 32.7637 76.1633 33.5138C76.0861 33.7944 76.0423 34.0831 76.0327 34.374V36.4959C76.0327 37.4197 76.315 38.2003 76.8796 38.8391C77.4443 39.4753 78.1777 39.7947 79.0801 39.7947C80.1394 39.7947 80.964 39.3825 81.5537 38.5648C82.1447 37.7444 82.4402 36.6629 82.4402 35.319ZM99.8659 35.2156C99.8659 37.3786 99.2815 39.0883 98.1113 40.3434C97.0625 41.4607 95.7618 42.0187 94.2077 42.0187C92.531 42.0187 91.3252 41.4183 90.593 40.2149V46.8881H87.7804V33.1931C87.7804 31.8346 87.7448 30.4416 87.6762 29.0129H90.1498L90.3068 31.0288H90.3595C91.2962 29.5099 92.7196 28.7505 94.6312 28.7505C96.1232 28.7505 97.3699 29.3429 98.3699 30.5291C99.3646 31.7179 99.8659 33.2792 99.8659 35.2156ZM96.9992 35.319C96.9992 34.0811 96.7208 33.0605 96.1641 32.256C95.556 31.4197 94.742 31.0009 93.7183 31.0009C93.0244 31.0009 92.3938 31.2342 91.8278 31.6941C91.2632 32.158 90.8951 32.7637 90.7223 33.5138C90.6366 33.8637 90.5904 34.1487 90.5904 34.374V36.4959C90.5904 37.4197 90.874 38.2003 91.436 38.8391C92.0006 39.474 92.7341 39.7947 93.6391 39.7947C94.6998 39.7947 95.5243 39.3825 96.1127 38.5648C96.7037 37.7444 96.9992 36.6629 96.9992 35.319ZM116.145 36.7835C116.145 38.2851 115.623 39.5058 114.585 40.4481C113.442 41.4766 111.847 41.9922 109.802 41.9922C107.913 41.9922 106.399 41.6264 105.256 40.8934L105.907 38.5383C107.14 39.2725 108.495 39.6383 109.97 39.6383C111.031 39.6383 111.855 39.3971 112.443 38.9187C113.033 38.4389 113.331 37.7974 113.331 36.9969C113.331 36.2799 113.085 35.6795 112.6 35.1904C112.114 34.7027 111.309 34.2481 110.178 33.8306C107.105 32.6788 105.566 30.9943 105.566 28.7783C105.566 27.331 106.11 26.1461 107.194 25.2197C108.279 24.2946 109.717 23.832 111.505 23.832C113.103 23.832 114.434 24.1117 115.491 24.6697L114.785 26.9731C113.79 26.4324 112.668 26.162 111.412 26.162C110.42 26.162 109.641 26.4072 109.085 26.8949C108.616 27.331 108.379 27.8625 108.379 28.4933C108.379 29.1892 108.649 29.767 109.188 30.2203C109.655 30.6378 110.507 31.0924 111.739 31.5801C113.251 32.1924 114.362 32.9055 115.073 33.7245C115.789 34.5436 116.145 35.5655 116.145 36.7835ZM125.468 31.1335H122.368V37.3083C122.368 38.8789 122.914 39.6622 124.009 39.6622C124.512 39.6622 124.929 39.6198 125.258 39.531L125.336 41.6767C124.782 41.8848 124.053 41.9895 123.149 41.9895C122.038 41.9895 121.17 41.6489 120.544 40.9677C119.92 40.2864 119.606 39.1453 119.606 37.5389V31.1282H117.759V29.0076H119.606V26.6789L122.368 25.8413V29.0076H125.468V31.1335ZM139.428 35.2673C139.428 37.2222 138.872 38.8272 137.761 40.0823C136.599 41.3746 135.052 42.0187 133.125 42.0187C131.265 42.0187 129.786 41.3997 128.683 40.1632C127.58 38.924 127.029 37.3627 127.029 35.4793C127.029 33.5085 127.599 31.8942 128.735 30.6391C129.873 29.3827 131.406 28.7544 133.333 28.7544C135.191 28.7544 136.683 29.3747 137.812 30.6126C138.891 31.8134 139.428 33.3641 139.428 35.2673ZM136.513 35.3322C136.513 34.1672 136.262 33.1679 135.76 32.3316C135.17 31.3217 134.326 30.8167 133.232 30.8167C132.105 30.8167 131.241 31.3217 130.653 32.3316C130.149 33.1679 129.898 34.1845 129.898 35.3852C129.898 36.5516 130.149 37.5535 130.653 38.3872C131.261 39.3971 132.109 39.9021 133.208 39.9021C134.283 39.9021 135.126 39.3865 135.736 38.362C136.253 37.5058 136.513 36.4999 136.513 35.3322ZM148.575 31.4979C148.282 31.4449 147.985 31.4187 147.688 31.4197C146.699 31.4197 145.933 31.7935 145.395 32.5463C144.928 33.209 144.693 34.0466 144.693 35.0579V41.7311H141.881V33.0181C141.883 31.683 141.856 30.3481 141.799 29.0142H144.249L144.352 31.4476H144.43C144.728 30.6113 145.195 29.9367 145.836 29.4317C146.423 28.9905 147.136 28.7515 147.869 28.7505C148.129 28.7505 148.363 28.769 148.572 28.8021L148.575 31.4979ZM161.153 34.7703C161.161 35.1998 161.126 35.629 161.05 36.0519H152.613C152.644 37.3083 153.053 38.2705 153.837 38.9332C154.548 39.5243 155.468 39.8212 156.597 39.8212C157.846 39.8212 158.986 39.6224 160.011 39.2208L160.452 41.1811C159.254 41.7059 157.839 41.967 156.208 41.967C154.245 41.967 152.704 41.3865 151.582 40.2281C150.464 39.0684 149.903 37.5098 149.903 35.5575C149.903 33.6411 150.424 32.044 151.468 30.7703C152.56 29.4105 154.036 28.7306 155.894 28.7306C157.718 28.7306 159.099 29.4105 160.037 30.7703C160.78 31.8478 161.153 33.1838 161.153 34.7703ZM158.471 34.0373C158.491 33.1984 158.306 32.4761 157.925 31.8651C157.438 31.0778 156.689 30.6855 155.685 30.6855C154.766 30.6855 154.016 31.0685 153.446 31.8372C152.978 32.4482 152.7 33.1825 152.614 34.0347L158.471 34.0373Z" fill="white"/>
<path d="M59.644 17.8572C58.8617 17.8572 58.1849 17.8188 57.6216 17.7539V9.22647C58.4094 9.1042 59.2056 9.04393 60.0028 9.04622C63.2283 9.04622 64.7138 10.6406 64.7138 13.2397C64.7138 16.2376 62.9592 17.8572 59.644 17.8572ZM60.1162 10.1396C59.6809 10.1396 59.3102 10.1662 59.0028 10.2298V16.7121C59.169 16.7386 59.4883 16.7506 59.9368 16.7506C62.0502 16.7506 63.2534 15.5418 63.2534 13.2781C63.2534 11.2596 62.165 10.1396 60.1162 10.1396ZM69.3429 17.9222C67.525 17.9222 66.347 16.5584 66.347 14.7069C66.347 12.7771 67.5501 11.4014 69.4458 11.4014C71.2374 11.4014 72.4418 12.7003 72.4418 14.6048C72.4418 16.5584 71.2004 17.9222 69.3429 17.9222ZM69.3957 12.4166C68.3971 12.4166 67.7572 13.355 67.7572 14.6671C67.7572 15.954 68.4102 16.8924 69.3825 16.8924C70.3548 16.8924 71.0078 15.8891 71.0078 14.6406C71.0078 13.3682 70.368 12.4166 69.3957 12.4166ZM82.8083 11.53L80.8625 17.7804H79.5947L78.7886 15.066C78.5882 14.4021 78.4213 13.7284 78.2886 13.0475H78.2623C78.1607 13.7287 77.9681 14.4113 77.7636 15.066L76.9061 17.7804H75.6251L73.794 11.53H75.2148L75.9193 14.5014C76.0855 15.2092 76.2254 15.8771 76.3415 16.508H76.3678C76.4694 15.9819 76.6357 15.3245 76.8797 14.5147L77.7636 11.5313H78.8902L79.7358 14.4511C79.9403 15.1588 80.1065 15.8533 80.2358 16.5093H80.2728C80.3625 15.8665 80.5036 15.184 80.6949 14.4511L81.4508 11.5313L82.8083 11.53ZM89.9717 17.7804H88.5892V14.1913C88.5892 13.0859 88.167 12.5319 87.3346 12.5319C86.5154 12.5319 85.9521 13.2397 85.9521 14.0627V17.7804H84.5695V13.3165C84.5695 12.7639 84.5563 12.1714 84.5181 11.5286H85.7344L85.799 12.4935H85.8373C86.2093 11.8255 86.9639 11.4014 87.8095 11.4014C89.1156 11.4014 89.9731 12.4047 89.9731 14.0375L89.9717 17.7804ZM93.7843 17.7804H92.4005V8.66187H93.7843V17.7804ZM98.8251 17.9222C97.0085 17.9222 95.8291 16.5584 95.8291 14.7069C95.8291 12.7771 97.0323 11.4014 98.9267 11.4014C100.72 11.4014 101.923 12.7003 101.923 14.6048C101.924 16.5584 100.681 17.9222 98.8251 17.9222ZM98.8765 12.4166C97.8779 12.4166 97.2381 13.355 97.2381 14.6671C97.2381 15.954 97.8924 16.8924 98.862 16.8924C99.8356 16.8924 100.487 15.8891 100.487 14.6406C100.489 13.3682 99.8501 12.4166 98.8765 12.4166ZM107.374 17.7804L107.273 17.0607H107.237C106.814 17.6399 106.198 17.9222 105.417 17.9222C104.303 17.9222 103.511 17.1376 103.511 16.0826C103.511 14.5399 104.842 13.742 107.147 13.742V13.6267C107.147 12.8036 106.713 12.3914 105.855 12.3914C105.242 12.3914 104.704 12.5465 104.23 12.8553L103.949 11.9421C104.524 11.5816 105.242 11.4014 106.085 11.4014C107.71 11.4014 108.531 12.2629 108.531 13.9872V16.2893C108.531 16.9202 108.558 17.4093 108.62 17.7817L107.374 17.7804ZM107.184 14.6671C105.648 14.6671 104.878 15.0408 104.878 15.9275C104.878 16.5836 105.275 16.9043 105.826 16.9043C106.529 16.9043 107.184 16.3649 107.184 15.632V14.6671ZM115.244 17.7804L115.18 16.7771H115.141C114.744 17.5352 114.077 17.9222 113.144 17.9222C111.644 17.9222 110.533 16.5968 110.533 14.732C110.533 12.7771 111.685 11.4001 113.257 11.4001C114.09 11.4001 114.68 11.6824 115.012 12.2496H115.04V8.66187H116.424V16.0958C116.424 16.7002 116.438 17.2661 116.475 17.7804H115.244ZM115.04 14.1025C115.04 13.2277 114.463 12.4816 113.583 12.4816C112.558 12.4816 111.932 13.3947 111.932 14.6803C111.932 15.9408 112.582 16.8036 113.556 16.8036C114.425 16.8036 115.04 16.0441 115.04 15.1442V14.1025ZM125.198 17.9222C123.381 17.9222 122.203 16.5584 122.203 14.7069C122.203 12.7771 123.406 11.4014 125.301 11.4014C127.094 11.4014 128.297 12.7003 128.297 14.6048C128.298 16.5584 127.057 17.9222 125.198 17.9222ZM125.249 12.4166C124.252 12.4166 123.612 13.355 123.612 14.6671C123.612 15.954 124.265 16.8924 125.236 16.8924C126.21 16.8924 126.861 15.8891 126.861 14.6406C126.864 13.3682 126.224 12.4166 125.249 12.4166ZM135.732 17.7804H134.348V14.1913C134.348 13.0859 133.926 12.5319 133.093 12.5319C132.274 12.5319 131.712 13.2397 131.712 14.0627V17.7804H130.328V13.3165C130.328 12.7639 130.315 12.1714 130.277 11.5286H131.493L131.558 12.4935H131.596C131.967 11.8255 132.723 11.4001 133.567 11.4001C134.873 11.4001 135.732 12.4034 135.732 14.0362V17.7804ZM145.034 12.5717H143.513V15.6068C143.513 16.3795 143.779 16.7651 144.317 16.7651C144.562 16.7651 144.766 16.7386 144.931 16.7002L144.969 17.7552C144.701 17.8586 144.343 17.9103 143.897 17.9103C142.807 17.9103 142.155 17.3059 142.155 15.7234V12.5717H141.248V11.53H142.155V10.3848L143.513 9.97265V11.5286H145.034V12.5717ZM152.353 17.7804H150.972V14.2178C150.972 13.0992 150.551 12.5333 149.717 12.5333C149.001 12.5333 148.333 13.0223 148.333 14.0124V17.7804H146.952V8.66187H148.333V12.4166H148.361C148.796 11.7354 149.427 11.4001 150.232 11.4001C151.548 11.4001 152.353 12.4286 152.353 14.0627V17.7804ZM159.851 14.9892H155.702C155.729 16.1727 156.508 16.8407 157.663 16.8407C158.276 16.8407 158.841 16.7373 159.34 16.5451L159.555 17.51C158.966 17.7671 158.274 17.8957 157.468 17.8957C155.522 17.8957 154.37 16.6604 154.37 14.7453C154.37 12.8288 155.549 11.3881 157.312 11.3881C158.902 11.3881 159.899 12.5717 159.899 14.3596C159.908 14.5706 159.892 14.7819 159.851 14.9892ZM158.584 13.9991C158.584 13.0342 158.099 12.353 157.216 12.353C156.421 12.353 155.793 13.0475 155.704 13.9991H158.584Z" fill="white"/>
</g>
<defs>
<linearGradient id="paint0_linear_494_3575" x1="130.549" y1="53.1175" x2="130.549" y2="-138.026" gradientUnits="userSpaceOnUse">
<stop stop-color="#1A1A1A" stop-opacity="0.1"/>
<stop offset="0.123" stop-color="#212121" stop-opacity="0.151"/>
<stop offset="0.308" stop-color="#353535" stop-opacity="0.227"/>
<stop offset="0.532" stop-color="#575757" stop-opacity="0.318"/>
<stop offset="0.783" stop-color="#858585" stop-opacity="0.421"/>
<stop offset="1" stop-color="#B3B3B3" stop-opacity="0.51"/>
</linearGradient>
<clipPath id="clip0_494_3575">
<rect width="178" height="53" fill="white"/>
</clipPath>
</defs>
</svg>
