<svg width="207" height="194" viewBox="0 0 207 194" fill="none" xmlns="http://www.w3.org/2000/svg">
<path d="M30.3256 171.382C70.7401 190.794 136.26 190.794 176.674 171.382C217.089 151.97 217.089 120.426 176.674 101.014C136.26 81.6022 70.7401 81.6022 30.3256 101.014C-10.089 120.426 -10.089 151.97 30.3256 171.382Z" fill="#F5F5F5"/>
<path d="M176.557 165.06C184.008 165.06 190.048 162.145 190.048 158.55C190.048 154.954 184.008 152.04 176.557 152.04C169.106 152.04 163.066 154.954 163.066 158.55C163.066 162.145 169.106 165.06 176.557 165.06Z" fill="#EBEBEB"/>
<path d="M37.2168 148.497L41.968 145.715C41.968 145.715 45.898 142.815 47.8337 137.37C49.3001 133.287 49.1241 130.15 48.0683 128.611C46.7779 126.718 43.4344 127.013 43.2585 131.097C43.0238 139.027 40.7362 144.591 37.2168 148.497Z" fill="url(#paint0_linear_499_3085)"/>
<path opacity="0.2" d="M37.2168 148.497L41.968 145.715C41.968 145.715 45.898 142.815 47.8337 137.37C49.3001 133.287 49.1241 130.15 48.0683 128.611C46.7779 126.718 43.4344 127.013 43.2585 131.097C43.0238 139.027 40.7362 144.591 37.2168 148.497Z" fill="black"/>
<path d="M37.217 148.793C37.0997 148.793 37.0411 148.733 36.9824 148.674C36.8651 148.556 36.9237 148.378 37.0411 148.26C48.0685 140.566 45.9569 129.854 45.8982 129.736C45.8396 129.558 45.9569 129.44 46.1329 129.381C46.3088 129.322 46.4262 129.44 46.4848 129.617C46.4848 129.736 48.7138 140.803 37.393 148.733C37.3343 148.733 37.2757 148.793 37.217 148.793Z" fill="white"/>
<path d="M27.7144 154.001C27.7144 154.001 26.072 152.639 26.4826 150.805C26.8932 148.97 27.949 147.609 26.1307 145.242C24.3123 142.874 23.8431 139.678 25.9547 137.962C27.6557 136.66 30.2366 138.495 31.1752 135.003C31.879 132.458 31.6444 126.777 34.8705 124.883C38.0967 122.989 40.1497 125.83 39.6217 129.677C39.1525 133.109 38.5659 136.423 39.0352 137.37C39.9737 139.146 41.6161 138.909 41.5574 142.164C41.4988 145.182 38.6832 147.668 38.6832 147.668L27.7144 154.001Z" fill="url(#paint1_linear_499_3085)"/>
<path d="M33.1107 151.16C32.9934 151.16 32.8174 151.041 32.8174 150.923C31.9962 143.94 33.9905 131.807 35.6329 128.197C35.6916 128.02 35.8675 127.96 36.0435 128.079C36.2195 128.138 36.2781 128.315 36.1608 128.493C34.5184 132.044 32.5828 144.176 33.4039 150.864C33.4626 150.982 33.3453 151.101 33.1107 151.16C33.1693 151.16 33.1693 151.16 33.1107 151.16Z" fill="white"/>
<path d="M32.9936 145.715C32.9349 145.715 32.9349 145.715 32.8762 145.656C30.8233 144.65 29.5328 141.099 29.4741 140.921C29.4155 140.744 29.4741 140.625 29.6501 140.566C29.8261 140.507 29.9434 140.566 30.0021 140.744C30.0021 140.803 31.2925 144.236 33.1109 145.123C33.2282 145.182 33.3455 145.36 33.2282 145.538C33.1695 145.656 33.1109 145.715 32.9936 145.715Z" fill="white"/>
<path d="M32.9349 148.082C32.8176 148.082 32.7003 148.023 32.6416 147.905C32.583 147.727 32.6416 147.609 32.8176 147.55C36.2197 146.189 38.39 142.046 38.39 141.987C38.4487 141.868 38.6246 141.809 38.8006 141.868C38.9179 141.927 38.9766 142.105 38.9179 142.283C38.8006 142.46 36.6303 146.662 33.0522 148.082C32.9936 148.023 32.9936 148.082 32.9349 148.082Z" fill="white"/>
<path d="M142.654 127.242C142.654 127.242 140.073 123.04 139.838 118.483C139.603 113.926 140.601 112.032 141.95 111.5C143.299 110.967 143.416 112.624 144.12 113.63C144.824 114.636 146.232 114.045 146.76 110.967C147.287 107.89 149.223 102.681 153.212 101.675C157.611 100.551 155.265 105.759 154.15 107.83C153.036 109.843 152.156 112.624 152.919 113.394C153.622 114.163 154.796 112.743 155.851 114.045C157.142 115.583 153.094 121.206 150.748 122.567L142.654 127.242Z" fill="url(#paint2_linear_499_3085)"/>
<path d="M146.173 125.467C145.997 125.467 145.88 125.289 145.88 125.171C146.525 113.038 152.391 104.635 152.449 104.575C152.567 104.457 152.743 104.398 152.86 104.516C152.977 104.635 153.036 104.812 152.919 104.93C152.86 104.99 147.112 113.275 146.466 125.23C146.466 125.348 146.349 125.467 146.173 125.467Z" fill="white"/>
<path d="M146.525 121.975C146.466 121.975 146.408 121.975 146.408 121.916C144.765 121.028 143.827 118.306 143.827 118.187C143.768 118.01 143.885 117.891 144.003 117.832C144.179 117.773 144.296 117.891 144.355 118.01C144.355 118.01 145.234 120.614 146.701 121.442C146.818 121.502 146.877 121.679 146.818 121.857C146.759 121.916 146.642 121.975 146.525 121.975Z" fill="white"/>
<path d="M146.818 120.14C146.701 120.14 146.584 120.022 146.525 119.904C146.466 119.726 146.584 119.608 146.76 119.548C150.983 118.483 152.449 116.234 152.449 116.234C152.508 116.116 152.743 116.057 152.86 116.116C152.977 116.175 153.036 116.412 152.977 116.53C152.919 116.649 151.394 118.957 146.936 120.14C146.877 120.14 146.818 120.14 146.818 120.14Z" fill="white"/>
<path d="M78.8934 118.01C78.8934 118.01 73.2624 116.649 72.9691 105.996C72.6758 94.5143 74.3182 81.1391 67.69 80.0738C61.0618 79.0085 57.3077 87.1757 57.425 96.7041C57.4837 105.049 60.8271 123.218 78.8934 126.828V118.01Z" fill="url(#paint3_linear_499_3085)"/>
<path opacity="0.2" d="M78.8934 118.01C78.8934 118.01 73.2624 116.649 72.9691 105.996C72.6758 94.5143 74.3182 81.1391 67.69 80.0738C61.0618 79.0085 57.3077 87.1757 57.425 96.7041C57.4837 105.049 60.8271 123.218 78.8934 126.828V118.01Z" fill="black"/>
<path d="M78.8937 125.763C78.835 125.703 78.835 125.763 78.8937 125.763C74.7877 124.993 71.5029 122.744 69.0393 119.075C61.7659 108.126 64.0535 87.6492 64.816 84.039C64.8747 83.8615 64.992 83.8023 65.168 83.8023C65.3439 83.8615 65.4026 83.9798 65.4026 84.1574C64.6401 87.7083 62.3524 107.949 69.5672 118.72C71.9135 122.271 75.081 124.461 79.011 125.171C79.1869 125.171 79.3043 125.348 79.2456 125.526C79.1283 125.644 79.011 125.763 78.8937 125.763Z" fill="white"/>
<path d="M78.8937 152.987C73.0866 153.756 63.6429 153.756 58.1878 149.436C52.7327 145.115 53.9059 141.387 55.9588 139.789C58.0705 138.25 59.8889 136.475 56.2521 132.983C52.6741 129.55 46.867 123.987 44.99 115.642C43.113 107.298 44.0515 102.09 47.7469 100.373C51.325 98.7163 52.2635 101.38 54.4338 106.883C56.6041 112.387 61.5312 107.653 65.7545 109.369C69.9778 111.085 69.8019 114.518 70.0365 117.418C70.3298 120.377 71.6789 121.146 74.0838 121.146C76.4887 121.146 78.835 122.508 78.835 125.289L78.8937 152.987Z" fill="url(#paint4_linear_499_3085)"/>
<path d="M78.8938 143.34H78.8351C78.6005 143.281 72.5589 141.505 63.819 133.397C54.4926 124.757 50.0933 111.796 50.0346 111.677C49.976 111.5 50.0933 111.381 50.2106 111.322C50.3866 111.263 50.5039 111.381 50.5626 111.5C50.6212 111.618 54.9618 124.461 64.1709 132.983C72.7935 140.973 78.8938 142.807 78.9525 142.807C79.1284 142.866 79.1871 143.044 79.1284 143.162C79.1284 143.281 79.0111 143.34 78.8938 143.34Z" fill="white"/>
<path d="M66.224 135.469C66.1067 135.469 65.9894 135.409 65.9307 135.291C64.0537 130.438 63.6431 119.963 63.5845 119.549C63.5845 119.371 63.7018 119.253 63.8778 119.253C64.0537 119.253 64.171 119.371 64.171 119.549C64.171 119.667 64.6403 130.32 66.4587 135.113C66.5173 135.291 66.4587 135.409 66.2827 135.469H66.224Z" fill="white"/>
<path d="M66.1652 142.452C65.2267 142.452 64.6401 142.393 64.5228 142.393C64.3469 142.393 64.2296 142.215 64.2882 142.038C64.2882 141.86 64.4642 141.742 64.6401 141.801C64.6988 141.801 70.1539 142.452 72.6761 139.848C72.7935 139.73 72.9694 139.73 73.0867 139.848C73.204 139.966 73.204 140.144 73.0867 140.262C71.2097 142.156 68.1009 142.452 66.1652 142.452Z" fill="white"/>
<path d="M61.9417 30.4198L61.2964 26.7505L58.0703 28.881C57.7184 28.23 57.3078 27.7566 56.8385 27.3423L58.4223 23.0812L55.4894 22.4301L53.3191 26.5729C52.6152 26.6913 51.8527 26.928 51.0901 27.2831L50.1516 24.1464L46.6909 26.928L46.9255 30.5973C46.2216 31.3667 45.5764 32.2544 44.9898 33.1422L42.1157 33.0238L40.1213 37.5808L42.5849 38.6461C42.3503 39.6522 42.1743 40.5991 42.1157 41.5461L39.0068 44.446L39.6521 48.1153L42.9368 45.9256C43.2888 46.5766 43.6994 47.05 44.1686 47.4643L42.5849 51.7255L45.5177 52.3765L48.5679 49.3582C49.2718 49.2398 49.0958 47.8786 49.8584 47.5235L50.7969 50.6602L54.2576 47.8786L54.1403 46.4582C54.8442 45.6888 57.4837 43.9134 58.0703 43.0256L58.7742 41.842L60.7685 37.2849L59.83 35.5686L58.7742 33.3197L61.9417 30.4198ZM51.3248 42.5522C48.6266 44.6827 47.864 45.1562 47.3361 42.3154C46.8669 39.4747 48.3919 35.1544 51.0901 33.0238C53.7884 30.8932 54.7855 30.7749 55.2548 33.5564C55.724 36.338 53.9643 40.4216 51.3248 42.5522Z" fill="#E0E0E0"/>
<path d="M55.431 22.4301L59.2437 24.6791L57.132 28.7627L53.3193 26.5729L55.431 22.4301Z" fill="#F5F5F5"/>
<path d="M65.1091 28.9402L61.8244 31.0708L58.0703 28.881L61.2964 26.6913L65.1091 28.9402Z" fill="#F5F5F5"/>
<path d="M64.5815 39.4747L62.1179 38.4094L58.3052 36.2196L60.7688 37.2849L64.5815 39.4747Z" fill="#E0E0E0"/>
<path d="M42.4678 51.7846L46.2805 53.9744L47.8642 49.7132L44.0515 47.5235L42.4678 51.7846Z" fill="#E0E0E0"/>
<path d="M54.4924 52.9091L50.7383 50.6602L49.7998 47.5827L53.6125 49.7724L54.4924 52.9091Z" fill="#E0E0E0"/>
<path d="M65.7547 32.6095L65.1095 28.9402L61.8247 31.13C61.4728 30.479 61.0622 30.0055 60.5929 29.5912L62.1766 25.3301L59.2438 24.6791L57.0735 28.8218C56.3696 28.9402 55.6071 29.1769 54.8445 29.532L53.9647 26.3954L50.4453 29.1769L50.6799 32.8463C49.976 33.6156 49.3308 34.5034 48.7442 35.3911L45.87 35.2727L43.8757 39.8298L46.3393 40.8951C46.1047 41.9012 45.9287 42.8481 45.87 43.795L42.7612 46.6949L43.4065 50.3643L46.6912 48.1745C47.0432 48.8255 47.4538 49.299 47.923 49.7132L46.3393 53.9744L49.2721 54.6254L51.4424 50.4826C52.1463 50.3643 52.9089 50.1275 53.6714 49.7724L54.6099 52.9091L58.0707 50.1275L57.836 46.4582C58.5399 45.6888 59.1851 44.8011 59.7717 43.9134L62.6459 44.0317L64.6402 39.4747L62.1766 38.4094C62.4113 37.4033 62.5872 36.4564 62.6459 35.5095L65.7547 32.6095ZM55.0792 44.8011C52.381 46.9317 49.8587 46.3398 49.3895 43.4991C48.9202 40.6583 50.6799 36.6339 53.3781 34.5625C56.0763 32.432 58.5986 33.0238 59.0678 35.8646C59.5371 38.6461 57.7774 42.6705 55.0792 44.8011Z" fill="#EBEBEB"/>
<path d="M53.9644 26.3954L50.1517 24.2056L46.6323 26.928L50.445 29.177L53.9644 26.3954Z" fill="#F5F5F5"/>
<path d="M46.6323 26.928L46.867 30.5973L50.6796 32.8463L50.445 29.1769L46.6323 26.928Z" fill="#E0E0E0"/>
<path d="M48.7439 35.3911L44.9899 33.2014L42.1157 33.0238L45.8698 35.2727L48.7439 35.3911Z" fill="#F5F5F5"/>
<path d="M42.116 33.0238L40.063 37.5809L43.8757 39.8298L45.87 35.2727L42.116 33.0238Z" fill="#E0E0E0"/>
<path d="M45.8698 43.795L42.0571 41.5461L38.8896 44.446L42.7023 46.695L45.8698 43.795Z" fill="#F5F5F5"/>
<path d="M43.3476 50.3643L39.5349 48.1745L38.8896 44.446L42.7023 46.6949L43.3476 50.3643Z" fill="#E0E0E0"/>
<path d="M59.2434 24.6791L55.4307 22.4301L58.3635 23.0812L62.1762 25.3301L59.2434 24.6791Z" fill="#F5F5F5"/>
<path d="M44.8725 13.6711V8.16718L40.5319 10.1202C40.2972 9.1141 39.8866 8.22636 39.3587 7.51617L42.1156 1.95302L38.7722 0L35.3701 5.20805C34.4902 5.14887 33.5517 5.20805 32.5545 5.50397L32.0853 0.710189L27.3341 3.49176L26.8648 8.81818C25.8676 9.70592 24.9291 10.712 24.0493 11.8365L20.6472 10.6528L17.3037 16.5119L20.0606 18.8792C19.5327 20.1812 19.1221 21.5424 18.8875 22.8444L14.5469 25.9219V31.3667L18.8875 29.4137C19.1221 30.4198 19.5327 31.3075 20.0606 32.0177L17.3037 37.5808L20.6472 39.5339L24.0493 34.3258C24.9291 34.385 25.8676 34.3258 26.8648 34.0299L27.3341 38.8237L32.0853 36.0421L32.5545 30.7157C33.9623 30.2422 35.4874 29.1178 36.3672 28.0525L38.8308 28.9402L42.1743 23.0812L40.1213 21.3057C40.6492 20.0037 40.7078 17.8731 40.5905 16.7486L44.8725 13.6711ZM29.6803 27.4015C26.0436 29.532 23.8147 27.9933 23.8147 23.7913C23.8147 19.5894 26.8062 14.3813 30.4429 12.2508C34.0796 10.1202 36.2499 11.6589 36.2499 15.9201C36.2499 20.1812 33.3171 25.3301 29.6803 27.4015Z" fill="#E0E0E0"/>
<path d="M42.5849 2.18975L38.7722 0L35.3701 5.20805L39.1828 7.3978L42.5849 2.18975Z" fill="#F5F5F5"/>
<path d="M48.685 10.3569L44.8723 8.16718L40.5317 10.1202L44.3444 12.3691L48.685 10.3569Z" fill="#F5F5F5"/>
<path d="M31.1467 41.0726L27.334 38.8829L26.8647 34.0891L30.6188 36.2788L31.1467 41.0726Z" fill="#E0E0E0"/>
<path d="M17.2451 37.5808L21.0578 39.8298L23.8147 34.2075L20.002 32.0177L17.2451 37.5808Z" fill="#E0E0E0"/>
<path d="M48.6855 15.8609V10.3569L44.3448 12.31C44.1102 11.3039 43.6996 10.4161 43.1717 9.70593L45.9286 4.14278L42.5851 2.18976L39.183 7.39781C38.3032 7.33863 37.3647 7.39781 36.3675 7.69372L35.8983 2.89995L31.1471 5.68152L30.6778 11.0079C29.6806 11.8957 28.7421 12.9018 27.8623 14.0262L24.4602 12.8426L21.1167 18.7017L23.8736 21.069C23.3457 22.371 22.9351 23.7322 22.7005 25.0342L18.3599 28.1117V33.6156L22.7005 31.6626C22.9351 32.6687 23.3457 33.5564 23.8736 34.2666L21.1167 39.8298L24.4602 41.7828L27.8623 36.5747C28.7421 36.6339 29.6806 36.5747 30.6778 36.2788L31.1471 41.0726L35.8983 38.291L36.3675 32.9646C37.3647 32.0769 38.3032 31.0708 39.183 29.9463L42.5851 31.13L45.9286 25.2709L43.1717 22.9036C43.6996 21.6016 44.1102 20.2404 44.3448 18.9384L48.6855 15.8609ZM33.4933 29.6504C29.8566 31.781 26.9238 30.0647 26.9238 25.8035C26.9238 21.5424 29.8566 16.4527 33.4933 14.3222C37.1301 12.1916 40.0629 13.9079 40.0629 18.169C40.0629 22.371 37.1301 27.5198 33.4933 29.6504Z" fill="#EBEBEB"/>
<path d="M23.9905 11.7773L27.8032 14.0262L24.4011 12.7834L20.5884 10.5937L23.9905 11.7773Z" fill="#F0F0F0"/>
<path d="M20.5717 10.5769L17.231 16.4209L21.0416 18.6385L24.3824 12.7944L20.5717 10.5769Z" fill="#F5F5F5"/>
<path d="M17.2451 16.4527L21.0578 18.6425L23.8147 21.0098L20.002 18.82L17.2451 16.4527Z" fill="#E0E0E0"/>
<path d="M18.8289 22.7852L22.6416 24.975L18.301 28.1117L14.4883 25.8627L18.8289 22.7852Z" fill="#F5F5F5"/>
<path d="M14.4883 25.8627L18.301 28.1117V33.6156L14.4883 31.3667V25.8627Z" fill="#E0E0E0"/>
<path d="M35.8392 2.89993L32.0265 0.651001L27.334 3.43258L31.1467 5.62232L35.8392 2.89993Z" fill="#F5F5F5"/>
<path d="M84.642 160.917L139.779 128.781C140.366 128.426 140.366 127.952 139.779 127.597L134.676 124.638C134.09 124.283 133.21 124.283 132.623 124.638L77.4858 156.774C76.8993 157.129 76.8993 157.603 77.4858 157.958L82.589 160.917C83.1755 161.272 84.114 161.272 84.642 160.917Z" fill="#E0E0E0"/>
<path d="M138.254 4.79379L88.5721 33.734C87.1643 34.5625 86.0498 36.5156 86.0498 38.1727V157.189C86.0498 158.846 87.1643 159.497 88.5721 158.668L138.313 129.728C139.721 128.899 140.835 126.946 140.835 125.289V6.27335C140.835 4.61624 139.662 3.96523 138.254 4.79379Z" fill="#455A64"/>
<path d="M88.5722 33.734L138.313 4.79379C139.545 4.0836 140.601 4.49788 140.835 5.79989C140.659 4.26115 139.604 2.60404 138.313 1.83467L136.26 0.651018C134.852 -0.177536 132.565 -0.177536 131.157 0.651018L81.416 29.5912C80.7121 30.0055 80.0669 30.7157 79.5977 31.4851L86.7538 35.6278C87.223 34.8585 87.8683 34.1483 88.5722 33.734Z" fill="#37474F"/>
<path d="M78.8936 152.987C78.8936 154.644 80.0081 156.597 81.4159 157.425L83.4689 158.609C84.7593 159.319 86.695 159.437 88.1027 158.786C86.9296 159.26 85.9911 158.55 85.9911 157.129V38.1727C85.9911 37.3441 86.2844 36.4564 86.7536 35.6278L79.5975 31.4851C79.1282 32.3136 78.835 33.2014 78.835 34.0299L78.8936 152.987Z" fill="#263238"/>
<path d="M89.9211 49.5949L136.905 22.2526C137.726 21.7791 138.43 22.1342 138.43 23.1403V111.204C138.43 112.21 137.726 113.394 136.905 113.867L89.9211 141.268C89.0999 141.742 88.396 141.387 88.396 140.381V52.3173C88.396 51.3112 89.0999 50.0683 89.9211 49.5949Z" fill="white"/>
<path d="M113.442 23.7913C112.973 24.0872 112.562 24.7974 112.562 25.3301C112.562 25.9219 112.973 26.1586 113.442 25.8627C113.912 25.5668 114.322 24.8566 114.322 24.324C114.322 23.7322 113.912 23.4954 113.442 23.7913Z" fill="#37474F"/>
<path d="M113.442 131.74C111.507 132.865 109.923 135.646 109.923 137.895C109.923 140.144 111.507 141.091 113.442 139.966C115.378 138.842 116.962 136.06 116.962 133.812C116.962 131.563 115.378 130.616 113.442 131.74Z" fill="#37474F"/>
<path d="M104.996 32.9054C103.999 33.4973 103.236 34.8585 103.236 36.0421C103.236 37.1666 104.058 37.64 104.996 37.1074C105.993 36.5156 106.756 35.1544 106.756 33.9707C106.756 32.8463 105.993 32.3728 104.996 32.9054Z" fill="#37474F"/>
<path d="M109.336 32.5504C109.336 33.3197 109.923 33.6156 110.627 33.2014L122.358 26.3362C123.062 25.9219 123.649 24.975 123.649 24.2056C123.649 23.4363 123.062 23.1404 122.358 23.5546L110.627 30.4198C109.923 30.8341 109.336 31.781 109.336 32.5504Z" fill="#37474F"/>
<path d="M82.8238 53.3826C83.5863 53.856 84.2315 54.9805 84.2315 55.8682C84.2315 56.8151 83.5863 57.1702 82.8238 56.6968C82.0612 56.2233 81.416 55.0989 81.416 54.2111C81.416 53.3234 82.0612 52.9683 82.8238 53.3826Z" fill="#37474F"/>
<path d="M82.8238 64.5089C83.5863 64.9823 84.2315 66.1068 84.2315 66.9945C84.2315 67.8823 83.5863 68.2965 82.8238 67.8231C82.0612 67.3496 81.416 66.2252 81.416 65.3374C81.416 64.4497 82.0612 64.0354 82.8238 64.5089Z" fill="#37474F"/>
<path d="M82.4129 53.6193C83.1755 54.0927 83.8207 55.2172 83.8207 56.1049C83.8207 57.0519 83.1755 57.407 82.4129 56.9335C81.6504 56.46 81.0052 55.3356 81.0052 54.4478C80.9465 53.5601 81.5917 53.1458 82.4129 53.6193Z" fill="#455A64"/>
<path d="M82.4131 64.7456C83.1757 65.2191 83.8209 66.3435 83.8209 67.2313C83.8209 68.1782 83.1757 68.5333 82.4131 68.0598C81.6506 67.5864 81.0054 66.4619 81.0054 65.5742C81.0054 64.6864 81.5919 64.2721 82.4131 64.7456Z" fill="#455A64"/>
<path d="M147.991 25.9219C147.991 24.9158 147.287 24.5607 146.466 25.0342L140.835 28.2892L99.4821 52.3764C98.6609 52.8499 97.957 54.0336 97.957 55.0397V143.103C97.957 144.109 98.6609 144.464 99.4821 143.991L140.835 119.904L146.466 116.649C147.287 116.175 147.991 114.991 147.991 113.985V25.9219Z" fill="white" stroke="url(#paint5_linear_499_3085)" stroke-miterlimit="10"/>
<path d="M98.7781 144.523C98.6021 144.523 98.4261 144.464 98.2501 144.405C97.8395 144.168 97.6636 143.754 97.6636 143.162V55.0989C97.6636 54.0336 98.4261 52.7316 99.306 52.1989L140.659 28.1117L140.952 28.6443L99.5993 52.7316C98.8367 53.1458 98.2501 54.2703 98.2501 55.158V143.221C98.2501 143.577 98.3675 143.872 98.5434 143.932C98.7194 144.05 99.0127 143.991 99.306 143.813L140.659 119.726L140.952 120.259L99.5993 144.346C99.306 144.405 99.0127 144.523 98.7781 144.523Z" fill="url(#paint6_linear_499_3085)" stroke="url(#paint7_linear_499_3085)" stroke-miterlimit="10"/>
<path d="M141.011 120.14L140.718 119.608L146.349 116.353C147.111 115.938 147.698 114.814 147.698 113.926V25.8627C147.698 25.5076 147.581 25.2117 147.405 25.1525C147.229 25.0342 146.935 25.0933 146.642 25.2709L141.011 28.5259L140.718 27.9933L146.349 24.7383C146.877 24.4423 147.346 24.3832 147.698 24.6199C148.109 24.8566 148.285 25.2709 148.285 25.8627V113.926C148.285 114.991 147.522 116.293 146.642 116.826L141.011 120.14Z" fill="url(#paint8_linear_499_3085)" stroke="url(#paint9_linear_499_3085)" stroke-miterlimit="10"/>
<path d="M122.945 46.3398C128.224 43.2624 132.447 45.748 132.447 51.903C132.447 58.058 128.165 65.5149 122.945 68.5333C117.666 71.6107 113.442 69.1251 113.442 62.9701C113.442 56.8743 117.666 49.4173 122.945 46.3398Z" fill="url(#paint10_linear_499_3085)"/>
<path d="M122.945 51.1928C124.646 50.1867 126.054 51.0153 126.054 52.9683C126.054 54.9805 124.646 57.3478 122.945 58.3539C121.244 59.36 119.836 58.5314 119.836 56.5784C119.836 54.6254 121.244 52.1989 122.945 51.1928Z" fill="url(#paint11_linear_499_3085)"/>
<path d="M128.987 61.7865C128.987 58.5314 126.699 57.1702 123.883 58.8273L122.124 59.8334C119.308 61.4905 117.021 65.4558 117.021 68.7108V69.5985C118.663 70.1312 120.657 69.8353 122.886 68.5333C125.174 67.1721 127.285 65.0415 128.928 62.4967V61.7865H128.987Z" fill="url(#paint12_linear_499_3085)"/>
<path opacity="0.7" d="M122.945 51.1928C124.646 50.1867 126.054 51.0153 126.054 52.9683C126.054 54.9805 124.646 57.3478 122.945 58.3539C121.244 59.36 119.836 58.5314 119.836 56.5784C119.836 54.6254 121.244 52.1989 122.945 51.1928Z" fill="white"/>
<path opacity="0.7" d="M128.987 61.7865C128.987 58.5314 126.699 57.1702 123.883 58.8273L122.124 59.8334C119.308 61.4905 117.021 65.4558 117.021 68.7108V69.5985C118.663 70.1312 120.657 69.8353 122.886 68.5333C125.174 67.1721 127.285 65.0415 128.928 62.4967V61.7865H128.987Z" fill="white"/>
<path d="M104.527 82.0861L116.786 74.925C117.372 74.5699 117.783 74.8658 117.783 75.5168V75.9311C117.783 76.5821 117.314 77.3515 116.786 77.7066L104.527 84.8676C103.94 85.2227 103.529 84.9268 103.529 84.2758V83.8615C103.471 83.2105 103.94 82.4411 104.527 82.0861Z" fill="url(#paint13_linear_499_3085)"/>
<path opacity="0.1" d="M104.527 82.0861L116.786 74.925C117.372 74.5699 117.783 74.8658 117.783 75.5168V75.9311C117.783 76.5821 117.314 77.3515 116.786 77.7066L104.527 84.8676C103.94 85.2227 103.529 84.9268 103.529 84.2758V83.8615C103.471 83.2105 103.94 82.4411 104.527 82.0861Z" fill="black"/>
<path d="M103.999 90.7267L141.128 69.1251C141.422 68.9475 141.656 69.0659 141.656 69.421V73.8005C141.656 74.1556 141.422 74.5107 141.128 74.6882L103.999 96.2898C103.705 96.4674 103.471 96.349 103.471 95.9939V91.6144C103.471 91.2593 103.705 90.9042 103.999 90.7267Z" fill="url(#paint14_linear_499_3085)"/>
<path opacity="0.2" d="M103.999 90.7267L141.128 69.1251C141.422 68.9475 141.656 69.0659 141.656 69.421V73.8005C141.656 74.1556 141.422 74.5107 141.128 74.6882L103.999 96.2898C103.705 96.4674 103.471 96.349 103.471 95.9939V91.6144C103.471 91.2593 103.705 90.9042 103.999 90.7267Z" fill="white"/>
<path d="M104.527 101.498L116.786 94.3368C117.372 93.9817 117.783 94.2776 117.783 94.9286V95.3429C117.783 95.9939 117.314 96.7633 116.786 97.1184L104.527 104.279C103.94 104.635 103.529 104.339 103.529 103.688V103.273C103.471 102.622 103.94 101.853 104.527 101.498Z" fill="url(#paint15_linear_499_3085)"/>
<path opacity="0.1" d="M104.527 101.498L116.786 94.3368C117.372 93.9817 117.783 94.2776 117.783 94.9286V95.3429C117.783 95.9939 117.314 96.7633 116.786 97.1184L104.527 104.279C103.94 104.635 103.529 104.339 103.529 103.688V103.273C103.471 102.622 103.94 101.853 104.527 101.498Z" fill="black"/>
<path d="M103.999 110.139L141.128 88.5369C141.422 88.3594 141.656 88.4777 141.656 88.8328V93.2123C141.656 93.5674 141.422 93.9225 141.128 94.1001L103.999 115.702C103.705 115.879 103.471 115.761 103.471 115.406V111.026C103.471 110.73 103.705 110.316 103.999 110.139Z" fill="url(#paint16_linear_499_3085)"/>
<path opacity="0.2" d="M103.999 110.139L141.128 88.5369C141.422 88.3594 141.656 88.4777 141.656 88.8328V93.2123C141.656 93.5674 141.422 93.9225 141.128 94.1001L103.999 115.702C103.705 115.879 103.471 115.761 103.471 115.406V111.026C103.471 110.73 103.705 110.316 103.999 110.139Z" fill="white"/>
<path d="M118.78 112.624L133.445 104.102C134.031 103.747 134.442 104.043 134.442 104.694V109.251C134.442 109.902 133.972 110.671 133.445 111.026L118.78 119.549C118.194 119.904 117.783 119.608 117.783 118.957V114.4C117.783 113.749 118.252 112.979 118.78 112.624Z" fill="url(#paint17_linear_499_3085)"/>
<path opacity="0.1" d="M118.78 112.624L133.445 104.102C134.031 103.747 134.442 104.043 134.442 104.694V109.251C134.442 109.902 133.972 110.671 133.445 111.026L118.78 119.549C118.194 119.904 117.783 119.608 117.783 118.957V114.4C117.783 113.749 118.252 112.979 118.78 112.624Z" fill="black"/>
<path d="M153.505 93.3307C153.505 93.3307 146.29 83.3289 145.879 82.086C145.527 81.1983 145.879 79.8371 145.997 79.2453C146.055 78.5943 146.173 77.2331 146.29 76.878C146.466 76.227 145.586 76.3453 145.117 76.9372C144.648 77.5882 144.472 78.7718 144.237 79.0086C144.002 79.1861 142.067 76.4045 141.07 75.1025C140.072 73.8005 139.427 73.0311 138.841 73.5046C138.371 73.8597 138.723 74.6291 139.427 75.7535C140.131 76.878 140.483 77.4106 140.6 77.6474C140.718 77.8841 140.131 77.8841 139.779 78.4167C139.545 78.831 139.779 79.4228 139.427 79.7187C139.075 80.0147 138.782 80.5473 139.134 81.1983C139.603 81.9677 140.542 83.0921 141.597 83.8615C142.653 84.6309 143.123 84.8676 143.768 85.9329C144.413 86.939 150.161 97.4143 150.513 98.0653C150.924 98.7163 151.628 99.9591 152.801 100.018C153.915 100.077 163.183 92.0287 163.652 91.6144C165.178 90.3124 165.647 90.1349 165.94 91.3185C165.999 91.6736 166.057 92.0879 166.116 92.5613C166.292 94.0409 167.289 99.2489 167.289 99.2489C167.289 99.2489 171.982 101.557 175.853 100.433C179.724 99.3081 181.015 97.651 181.015 97.651L179.079 94.4552C179.607 93.1532 182.012 87.8267 182.775 84.1574L170.691 82.2044C170.457 82.1452 170.046 82.0269 169.518 81.9085C168.873 81.7309 167.172 81.1391 165.881 82.2636C161.775 85.7554 153.505 93.3307 153.505 93.3307Z" fill="#FFA8A7"/>
<path d="M177.496 154.88L175.325 157.899C175.325 157.899 176.322 158.491 178.493 158.55C180.428 158.609 180.956 157.958 181.015 157.84C181.367 157.129 180.839 155.827 180.663 154.762L177.496 154.88Z" fill="#37474F"/>
<path d="M175.442 156.419C175.442 156.419 172.803 156.242 170.984 156.005C169.166 155.768 167.758 156.656 168.169 157.425C168.579 158.195 169.577 158.786 171.16 159.319C172.509 159.793 174.093 160.088 175.501 160.503C176.909 160.917 177.847 161.45 178.668 161.154C179.548 160.858 179.959 160.503 179.9 159.793C179.842 159.142 179.196 157.011 179.196 157.011L175.442 156.419Z" fill="#37474F"/>
<path d="M181.015 151.803C181.015 151.803 180.663 154.585 180.663 155.176C180.663 155.768 178.024 155.946 177.496 154.88L177.437 151.507L181.015 151.803Z" fill="#F28F8F"/>
<path d="M178.376 153.519L179.314 157.721C179.314 157.721 179.431 158.254 177.261 158.55C175.091 158.846 171.689 157.425 171.161 157.129C170.574 156.833 170.515 156.242 172.627 156.36C174.739 156.478 175.501 156.478 175.501 156.478L174.797 154.644L178.376 153.519Z" fill="#FFA8A7"/>
<path d="M182.774 83.9799L184.241 83.5656C184.241 83.5656 187.35 93.5674 187.702 94.5143C188.054 95.4613 188.464 96.5265 187.76 97.7102C186.939 99.1306 182.716 104.812 182.716 104.812L180.018 102.149L183.068 96.5265L180.37 91.0226L182.774 83.9799Z" fill="#F28F8F"/>
<path d="M167.406 71.0189C167.406 71.0189 166.233 69.0659 167.465 66.6986C168.931 63.917 172.275 62.5558 176.205 63.0885C178.023 63.3252 180.193 64.8639 181.367 67.1721C182.657 69.7169 182.774 74.8066 183.126 76.7596L167.406 71.0189Z" fill="#37474F"/>
<path d="M167.348 72.0842C167.348 72.0842 166.409 73.9189 166.585 74.0372C166.761 74.2148 167.348 74.3331 167.348 74.3331V72.0842Z" fill="#FFA8A7"/>
<path d="M170.163 66.4027C169.166 67.0537 167.407 68.2965 167.289 72.3801C167.231 76.5229 167.817 77.8841 168.404 78.3575C168.814 78.6535 171.219 78.5351 172.275 78.2984C173.331 78.0616 176.264 76.5821 177.378 74.3331C178.61 71.6699 178.375 67.8231 176.498 66.6986C173.859 65.0415 171.043 65.8109 170.163 66.4027Z" fill="#FFA8A7"/>
<path d="M181.015 97.4734C182.833 100.314 184.535 102.8 184.886 105.996C185.649 112.743 183.127 120.436 182.599 125.408C182.599 125.408 184.3 127.656 184.3 130.261C184.3 132.332 181.015 151.744 181.015 151.744C181.015 151.744 178.61 152.454 177.437 151.448L175.149 115.702L176.323 111.322L181.015 97.4734Z" fill="url(#paint18_linear_499_3085)"/>
<path opacity="0.2" d="M181.015 97.4734C182.833 100.314 184.535 102.8 184.886 105.996C185.649 112.743 183.127 120.436 182.599 125.408C182.599 125.408 184.3 127.656 184.3 130.261C184.3 132.332 181.015 151.744 181.015 151.744C181.015 151.744 178.61 152.454 177.437 151.448L175.149 115.702L176.323 111.322L181.015 97.4734Z" fill="black"/>
<path d="M175.149 115.702L176.323 111.322C176.323 111.322 179.607 110.494 182.775 108.718C182.775 108.718 181.543 110.967 178.024 112.21L176.205 117.832L176.029 130.616L175.149 115.702Z" fill="url(#paint19_linear_499_3085)"/>
<path opacity="0.3" d="M175.149 115.702L176.323 111.322C176.323 111.322 179.607 110.494 182.775 108.718C182.775 108.718 181.543 110.967 178.024 112.21L176.205 117.832L176.029 130.616L175.149 115.702Z" fill="black"/>
<path d="M181.015 97.4734C182.012 99.0714 184.3 101.794 183.831 104.398C183.244 107.594 181.543 109.783 176.381 111.381L171.513 129.136C171.513 129.136 174.035 131.503 174.797 133.811C175.56 136.06 178.376 153.578 178.376 153.578C178.376 153.578 177.496 154.999 174.797 154.644C174.797 154.644 165.295 132.746 164.591 131.326C163.946 129.905 163.477 128.84 163.77 126.591C164.063 124.283 167.289 99.1306 167.289 99.1306L181.015 97.4734Z" fill="url(#paint20_linear_499_3085)"/>
<path opacity="0.2" d="M181.015 97.4734C182.012 99.0714 184.3 101.794 183.831 104.398C183.244 107.594 181.543 109.783 176.381 111.381L171.513 129.136C171.513 129.136 174.035 131.503 174.797 133.811C175.56 136.06 178.376 153.578 178.376 153.578C178.376 153.578 177.496 154.999 174.797 154.644C174.797 154.644 165.295 132.746 164.591 131.326C163.946 129.905 163.477 128.84 163.77 126.591C164.063 124.283 167.289 99.1306 167.289 99.1306L181.015 97.4734Z" fill="black"/>
<path d="M182.775 83.9799L170.691 82.0268C170.457 81.9677 170.046 81.8493 169.518 81.7309C169.518 81.7309 168.99 89.3655 165.881 91.1409C165.94 91.496 165.999 91.9103 166.057 92.3838C166.233 93.8633 167.23 99.0714 167.23 99.0714C167.23 99.0714 171.923 101.379 175.794 100.255C179.666 99.1306 180.956 97.4734 180.956 97.4734L179.02 94.2776C179.607 92.9756 182.012 87.7083 182.775 83.9799Z" fill="url(#paint21_linear_499_3085)"/>
<path opacity="0.7" d="M182.775 83.9799L170.691 82.0268C170.457 81.9677 170.046 81.8493 169.518 81.7309C169.518 81.7309 168.99 89.3655 165.881 91.1409C165.94 91.496 165.999 91.9103 166.057 92.3838C166.233 93.8633 167.23 99.0714 167.23 99.0714C167.23 99.0714 171.923 101.379 175.794 100.255C179.666 99.1306 180.956 97.4734 180.956 97.4734L179.02 94.2776C179.607 92.9756 182.012 87.7083 182.775 83.9799Z" fill="white"/>
<path d="M179.607 93.0348C179.548 93.1532 175.736 95.2245 174.562 95.5205C176.381 95.4021 177.847 94.9878 179.079 94.2776L179.607 93.0348Z" fill="url(#paint22_linear_499_3085)"/>
<path d="M169.87 66.5802C169.87 66.5802 169.284 70.4271 170.691 72.676C170.691 72.676 171.219 71.1373 172.51 71.4332C173.8 71.7291 173.859 73.4454 172.979 74.3923C172.099 75.3392 171.102 74.9841 171.102 74.9841C171.102 74.9841 170.926 77.7657 170.809 80.0738C170.691 82.3227 170.105 87.4716 172.686 89.543C175.267 91.6144 181.778 92.3246 184.886 88.0043C186.587 85.5778 184.3 81.3758 183.303 76.6412C182.364 72.2617 181.778 65.8108 177.202 64.7456C172.451 63.7986 169.87 66.5802 169.87 66.5802Z" fill="#37474F"/>
<path d="M186.705 14.0262L185.707 14.6181C185.766 14.263 185.825 13.9079 185.825 13.5528C185.825 11.5998 184.476 10.7712 182.775 11.7773C182.305 12.0732 181.836 12.4875 181.425 12.961C181.425 10.2978 179.548 9.23247 177.261 10.5345C174.973 11.8957 173.096 15.0915 173.096 17.7547C173.096 17.8731 173.096 17.9915 173.096 18.169C172.627 18.1098 172.04 18.2282 171.395 18.5833C169.694 19.5894 168.345 21.9567 168.345 23.9689C168.345 24.2648 168.345 24.5015 168.404 24.7383L167.876 25.0342C166.468 25.8627 165.354 27.4607 165.354 28.5851C165.354 29.7096 166.468 30.0055 167.876 29.177L186.646 18.2282C188.054 17.3996 189.168 15.8017 189.168 14.6773C189.286 13.4936 188.112 13.1977 186.705 14.0262Z" fill="#EBEBEB"/>
<defs>
<linearGradient id="paint0_linear_499_3085" x1="48.897" y1="137.993" x2="37.2168" y2="137.993" gradientUnits="userSpaceOnUse">
<stop stop-color="#4EBEFA"/>
<stop offset="1" stop-color="#6AF5BB"/>
</linearGradient>
<linearGradient id="paint1_linear_499_3085" x1="41.5589" y1="139.141" x2="24.5591" y2="139.141" gradientUnits="userSpaceOnUse">
<stop stop-color="#4EBEFA"/>
<stop offset="1" stop-color="#6AF5BB"/>
</linearGradient>
<linearGradient id="paint2_linear_499_3085" x1="156.1" y1="114.38" x2="139.804" y2="114.38" gradientUnits="userSpaceOnUse">
<stop stop-color="#4EBEFA"/>
<stop offset="1" stop-color="#6AF5BB"/>
</linearGradient>
<linearGradient id="paint3_linear_499_3085" x1="78.8934" y1="103.404" x2="57.4224" y2="103.404" gradientUnits="userSpaceOnUse">
<stop stop-color="#4EBEFA"/>
<stop offset="1" stop-color="#6AF5BB"/>
</linearGradient>
<linearGradient id="paint4_linear_499_3085" x1="78.8937" y1="126.631" x2="44.0493" y2="126.631" gradientUnits="userSpaceOnUse">
<stop stop-color="#4EBEFA"/>
<stop offset="1" stop-color="#6AF5BB"/>
</linearGradient>
<linearGradient id="paint5_linear_499_3085" x1="147.991" y1="84.5125" x2="97.957" y2="84.5125" gradientUnits="userSpaceOnUse">
<stop stop-color="#4EBEFA"/>
<stop offset="1" stop-color="#6AF5BB"/>
</linearGradient>
<linearGradient id="paint6_linear_499_3085" x1="140.952" y1="86.3176" x2="97.6636" y2="86.3176" gradientUnits="userSpaceOnUse">
<stop stop-color="#4EBEFA"/>
<stop offset="1" stop-color="#6AF5BB"/>
</linearGradient>
<linearGradient id="paint7_linear_499_3085" x1="140.952" y1="86.3176" x2="97.6636" y2="86.3176" gradientUnits="userSpaceOnUse">
<stop stop-color="#4EBEFA"/>
<stop offset="1" stop-color="#6AF5BB"/>
</linearGradient>
<linearGradient id="paint8_linear_499_3085" x1="148.285" y1="72.3071" x2="140.718" y2="72.3071" gradientUnits="userSpaceOnUse">
<stop stop-color="#4EBEFA"/>
<stop offset="1" stop-color="#6AF5BB"/>
</linearGradient>
<linearGradient id="paint9_linear_499_3085" x1="148.285" y1="72.3071" x2="140.718" y2="72.3071" gradientUnits="userSpaceOnUse">
<stop stop-color="#4EBEFA"/>
<stop offset="1" stop-color="#6AF5BB"/>
</linearGradient>
<linearGradient id="paint10_linear_499_3085" x1="132.447" y1="57.4365" x2="113.442" y2="57.4365" gradientUnits="userSpaceOnUse">
<stop stop-color="#4EBEFA"/>
<stop offset="1" stop-color="#6AF5BB"/>
</linearGradient>
<linearGradient id="paint11_linear_499_3085" x1="126.054" y1="54.7733" x2="119.836" y2="54.7733" gradientUnits="userSpaceOnUse">
<stop stop-color="#4EBEFA"/>
<stop offset="1" stop-color="#6AF5BB"/>
</linearGradient>
<linearGradient id="paint12_linear_499_3085" x1="128.987" y1="63.9847" x2="117.021" y2="63.9847" gradientUnits="userSpaceOnUse">
<stop stop-color="#4EBEFA"/>
<stop offset="1" stop-color="#6AF5BB"/>
</linearGradient>
<linearGradient id="paint13_linear_499_3085" x1="117.783" y1="79.8963" x2="103.524" y2="79.8963" gradientUnits="userSpaceOnUse">
<stop stop-color="#4EBEFA"/>
<stop offset="1" stop-color="#6AF5BB"/>
</linearGradient>
<linearGradient id="paint14_linear_499_3085" x1="141.656" y1="82.7075" x2="103.471" y2="82.7075" gradientUnits="userSpaceOnUse">
<stop stop-color="#4EBEFA"/>
<stop offset="1" stop-color="#6AF5BB"/>
</linearGradient>
<linearGradient id="paint15_linear_499_3085" x1="117.783" y1="99.3081" x2="103.524" y2="99.3081" gradientUnits="userSpaceOnUse">
<stop stop-color="#4EBEFA"/>
<stop offset="1" stop-color="#6AF5BB"/>
</linearGradient>
<linearGradient id="paint16_linear_499_3085" x1="141.656" y1="102.119" x2="103.471" y2="102.119" gradientUnits="userSpaceOnUse">
<stop stop-color="#4EBEFA"/>
<stop offset="1" stop-color="#6AF5BB"/>
</linearGradient>
<linearGradient id="paint17_linear_499_3085" x1="134.442" y1="111.825" x2="117.783" y2="111.825" gradientUnits="userSpaceOnUse">
<stop stop-color="#4EBEFA"/>
<stop offset="1" stop-color="#6AF5BB"/>
</linearGradient>
<linearGradient id="paint18_linear_499_3085" x1="185.029" y1="124.73" x2="175.149" y2="124.73" gradientUnits="userSpaceOnUse">
<stop stop-color="#4EBEFA"/>
<stop offset="1" stop-color="#6AF5BB"/>
</linearGradient>
<linearGradient id="paint19_linear_499_3085" x1="182.775" y1="119.667" x2="175.149" y2="119.667" gradientUnits="userSpaceOnUse">
<stop stop-color="#4EBEFA"/>
<stop offset="1" stop-color="#6AF5BB"/>
</linearGradient>
<linearGradient id="paint20_linear_499_3085" x1="183.893" y1="126.087" x2="163.681" y2="126.087" gradientUnits="userSpaceOnUse">
<stop stop-color="#4EBEFA"/>
<stop offset="1" stop-color="#6AF5BB"/>
</linearGradient>
<linearGradient id="paint21_linear_499_3085" x1="182.775" y1="91.1474" x2="165.881" y2="91.1474" gradientUnits="userSpaceOnUse">
<stop stop-color="#4EBEFA"/>
<stop offset="1" stop-color="#6AF5BB"/>
</linearGradient>
<linearGradient id="paint22_linear_499_3085" x1="179.607" y1="94.2776" x2="174.562" y2="94.2776" gradientUnits="userSpaceOnUse">
<stop stop-color="#4EBEFA"/>
<stop offset="1" stop-color="#6AF5BB"/>
</linearGradient>
</defs>
</svg>
