<svg width="99" height="31" viewBox="0 0 99 31" fill="none" xmlns="http://www.w3.org/2000/svg">
<rect width="99" height="31" rx="15.5" fill="black" fill-opacity="0.6"/>
<path d="M22.3253 13.0696C22.2424 12.8011 22.1281 12.5608 21.9822 12.3487C21.8397 12.1333 21.6674 11.9493 21.4652 11.7969C21.2663 11.6444 21.0376 11.5301 20.7791 11.4538C20.5206 11.3743 20.2389 11.3345 19.9339 11.3345C19.3871 11.3345 18.8999 11.4721 18.4723 11.7472C18.0447 12.0223 17.7083 12.4266 17.4631 12.9602C17.2211 13.4905 17.1001 14.1368 17.1001 14.8991C17.1001 15.6681 17.2211 16.3194 17.4631 16.853C17.705 17.3866 18.0414 17.7926 18.4723 18.071C18.9032 18.3461 19.4036 18.4837 19.9737 18.4837C20.4908 18.4837 20.9382 18.3842 21.3161 18.1854C21.6972 17.9865 21.9905 17.7048 22.196 17.3402C22.4015 16.9723 22.5043 16.5414 22.5043 16.0476L22.9219 16.1122H20.1577V14.6705H24.2891V15.8935C24.2891 16.7652 24.1035 17.5192 23.7322 18.1555C23.361 18.7919 22.8506 19.2824 22.201 19.6271C21.5514 19.9685 20.8056 20.1392 19.9638 20.1392C19.0258 20.1392 18.2022 19.9287 17.4929 19.5078C16.7869 19.0836 16.2351 18.482 15.8374 17.7031C15.4429 16.9209 15.2457 15.9929 15.2457 14.919C15.2457 14.0971 15.3617 13.3629 15.5938 12.7166C15.8291 12.0703 16.1572 11.5218 16.5781 11.071C16.9991 10.617 17.4929 10.2723 18.0597 10.0369C18.6264 9.7983 19.2429 9.67898 19.9091 9.67898C20.4725 9.67898 20.9979 9.76184 21.4851 9.92756C21.9723 10.09 22.4048 10.322 22.7827 10.6236C23.1638 10.9252 23.477 11.2831 23.7223 11.6974C23.9676 12.1117 24.1283 12.5691 24.2045 13.0696H22.3253ZM26.4716 20V12.3636H28.2713V20H26.4716ZM27.3764 11.2798C27.0914 11.2798 26.8461 11.1854 26.6406 10.9964C26.4351 10.8042 26.3324 10.5739 26.3324 10.3054C26.3324 10.0336 26.4351 9.80327 26.6406 9.61435C26.8461 9.42211 27.0914 9.32599 27.3764 9.32599C27.6648 9.32599 27.91 9.42211 28.1122 9.61435C28.3177 9.80327 28.4205 10.0336 28.4205 10.3054C28.4205 10.5739 28.3177 10.8042 28.1122 10.9964C27.91 11.1854 27.6648 11.2798 27.3764 11.2798ZM36.943 12.3636L34.2235 20H32.2349L29.5154 12.3636H31.4345L33.1895 18.0362H33.269L35.0289 12.3636H36.943ZM41.3093 20.1491C40.5437 20.1491 39.8825 19.9901 39.3256 19.6719C38.7721 19.3504 38.3462 18.8963 38.0479 18.3097C37.7496 17.7197 37.6005 17.0253 37.6005 16.2266C37.6005 15.4411 37.7496 14.7517 38.0479 14.1584C38.3496 13.5618 38.7705 13.0978 39.3107 12.7663C39.851 12.4316 40.4857 12.2642 41.2148 12.2642C41.6855 12.2642 42.1296 12.3404 42.5472 12.4929C42.9682 12.642 43.3394 12.8741 43.6609 13.1889C43.9857 13.5038 44.2409 13.9048 44.4265 14.392C44.6121 14.8759 44.7049 15.4527 44.7049 16.1222V16.674H38.4457V15.4609H42.9798C42.9764 15.1162 42.9019 14.8097 42.756 14.5412C42.6102 14.2694 42.4064 14.0556 42.1445 13.8999C41.886 13.7441 41.5844 13.6662 41.2397 13.6662C40.8718 13.6662 40.5487 13.7557 40.2702 13.9347C39.9918 14.1103 39.7747 14.3423 39.619 14.6307C39.4665 14.9157 39.3886 15.2289 39.3853 15.5703V16.6293C39.3853 17.0734 39.4665 17.4545 39.6289 17.7727C39.7913 18.0876 40.0183 18.3295 40.31 18.4986C40.6017 18.6643 40.9431 18.7472 41.3342 18.7472C41.596 18.7472 41.833 18.7107 42.0451 18.6378C42.2572 18.5616 42.4412 18.4505 42.5969 18.3047C42.7527 18.1589 42.8704 17.9782 42.9499 17.7628L44.6303 17.9517C44.5243 18.3958 44.3221 18.7836 44.0238 19.1151C43.7288 19.4432 43.351 19.6984 42.8903 19.8807C42.4296 20.0597 41.9026 20.1491 41.3093 20.1491ZM51.8975 20.1541C51.4136 20.1541 50.9778 20.0679 50.59 19.8956C50.2056 19.7199 49.9006 19.4614 49.6752 19.12C49.4532 18.7786 49.3422 18.3577 49.3422 17.8572C49.3422 17.4264 49.4217 17.0701 49.5808 16.7884C49.7399 16.5066 49.957 16.2812 50.2321 16.1122C50.5072 15.9432 50.8171 15.8156 51.1618 15.7294C51.5098 15.6399 51.8694 15.5753 52.2406 15.5355C52.688 15.4891 53.051 15.4477 53.3294 15.4112C53.6078 15.3714 53.81 15.3118 53.9359 15.2322C54.0652 15.1494 54.1298 15.0218 54.1298 14.8494V14.8196C54.1298 14.4451 54.0188 14.1551 53.7967 13.9496C53.5746 13.7441 53.2548 13.6413 52.8372 13.6413C52.3964 13.6413 52.0467 13.7375 51.7882 13.9297C51.533 14.1219 51.3606 14.349 51.2711 14.6108L49.5907 14.3722C49.7233 13.9081 49.9421 13.5204 50.247 13.2088C50.5519 12.8939 50.9248 12.6586 51.3656 12.5028C51.8064 12.3438 52.2936 12.2642 52.8272 12.2642C53.1951 12.2642 53.5614 12.3073 53.926 12.3935C54.2905 12.4796 54.6236 12.6222 54.9252 12.821C55.2269 13.0166 55.4688 13.2834 55.6511 13.6214C55.8367 13.9595 55.9295 14.3821 55.9295 14.8892V20H54.1994V18.951H54.1397C54.0304 19.1631 53.8762 19.362 53.6774 19.5476C53.4818 19.7299 53.2349 19.8774 52.9366 19.9901C52.6416 20.0994 52.2953 20.1541 51.8975 20.1541ZM52.3649 18.8317C52.7261 18.8317 53.0394 18.7604 53.3045 18.6179C53.5697 18.4721 53.7735 18.2798 53.916 18.0412C54.0618 17.8026 54.1348 17.5424 54.1348 17.2607V16.3608C54.0784 16.4072 53.9823 16.4503 53.8464 16.4901C53.7138 16.5298 53.5647 16.5646 53.399 16.5945C53.2333 16.6243 53.0692 16.6508 52.9068 16.674C52.7444 16.6972 52.6035 16.7171 52.4842 16.7337C52.2157 16.7701 51.9754 16.8298 51.7633 16.9126C51.5512 16.9955 51.3838 17.1115 51.2612 17.2607C51.1386 17.4065 51.0772 17.5954 51.0772 17.8274C51.0772 18.1589 51.1982 18.4091 51.4402 18.5781C51.6821 18.7472 51.9904 18.8317 52.3649 18.8317ZM59.3152 20L57.1575 12.3636H58.992L60.3343 17.733H60.4039L61.7761 12.3636H63.5907L64.9629 17.7031H65.0375L66.3599 12.3636H68.1994L66.0368 20H64.1625L62.7306 14.8395H62.6262L61.1944 20H59.3152ZM71.6534 20.1541C71.1695 20.1541 70.7337 20.0679 70.3459 19.8956C69.9614 19.7199 69.6565 19.4614 69.4311 19.12C69.209 18.7786 69.098 18.3577 69.098 17.8572C69.098 17.4264 69.1776 17.0701 69.3366 16.7884C69.4957 16.5066 69.7128 16.2812 69.9879 16.1122C70.263 15.9432 70.5729 15.8156 70.9176 15.7294C71.2656 15.6399 71.6252 15.5753 71.9964 15.5355C72.4439 15.4891 72.8068 15.4477 73.0852 15.4112C73.3636 15.3714 73.5658 15.3118 73.6918 15.2322C73.821 15.1494 73.8857 15.0218 73.8857 14.8494V14.8196C73.8857 14.4451 73.7746 14.1551 73.5526 13.9496C73.3305 13.7441 73.0107 13.6413 72.593 13.6413C72.1522 13.6413 71.8026 13.7375 71.544 13.9297C71.2888 14.1219 71.1165 14.349 71.027 14.6108L69.3466 14.3722C69.4792 13.9081 69.6979 13.5204 70.0028 13.2088C70.3078 12.8939 70.6806 12.6586 71.1214 12.5028C71.5623 12.3438 72.0495 12.2642 72.5831 12.2642C72.951 12.2642 73.3172 12.3073 73.6818 12.3935C74.0464 12.4796 74.3795 12.6222 74.6811 12.821C74.9827 13.0166 75.2247 13.2834 75.407 13.6214C75.5926 13.9595 75.6854 14.3821 75.6854 14.8892V20H73.9553V18.951H73.8956C73.7862 19.1631 73.6321 19.362 73.4332 19.5476C73.2377 19.7299 72.9908 19.8774 72.6925 19.9901C72.3975 20.0994 72.0511 20.1541 71.6534 20.1541ZM72.1207 18.8317C72.482 18.8317 72.7952 18.7604 73.0604 18.6179C73.3255 18.4721 73.5294 18.2798 73.6719 18.0412C73.8177 17.8026 73.8906 17.5424 73.8906 17.2607V16.3608C73.8343 16.4072 73.7382 16.4503 73.6023 16.4901C73.4697 16.5298 73.3205 16.5646 73.1548 16.5945C72.9891 16.6243 72.825 16.6508 72.6626 16.674C72.5002 16.6972 72.3594 16.7171 72.2401 16.7337C71.9716 16.7701 71.7313 16.8298 71.5192 16.9126C71.3071 16.9955 71.1397 17.1115 71.017 17.2607C70.8944 17.4065 70.8331 17.5954 70.8331 17.8274C70.8331 18.1589 70.9541 18.4091 71.196 18.5781C71.438 18.7472 71.7462 18.8317 72.1207 18.8317ZM78.3402 22.8636C78.0949 22.8636 77.8679 22.8438 77.6591 22.804C77.4536 22.7675 77.2895 22.7244 77.1669 22.6747L77.5845 21.2727C77.8464 21.349 78.08 21.3854 78.2855 21.3821C78.491 21.3788 78.6716 21.3142 78.8274 21.1882C78.9865 21.0656 79.1207 20.8601 79.2301 20.5717L79.3842 20.1591L76.6151 12.3636H78.5241L80.2841 18.1307H80.3636L82.1286 12.3636H84.0426L80.9851 20.9247C80.8426 21.3291 80.6536 21.6754 80.4183 21.9638C80.183 22.2554 79.8946 22.4775 79.5533 22.63C79.2152 22.7857 78.8108 22.8636 78.3402 22.8636Z" fill="white"/>
</svg>
