<svg width="24" height="24" viewBox="0 0 24 24" fill="none" xmlns="http://www.w3.org/2000/svg">
<rect width="24" height="24" rx="12" fill="#F0FAFF"/>
<path d="M9.49953 18.25H14.4995C17.012 18.25 17.462 17.2438 17.5933 16.0188L18.062 11.0188C18.2308 9.49375 17.7933 8.25 15.1245 8.25H8.87453C6.20578 8.25 5.76828 9.49375 5.93703 11.0188L6.40578 16.0188C6.53703 17.2438 6.98703 18.25 9.49953 18.25Z" stroke="#32A5E2" stroke-width="1.2" stroke-miterlimit="10" stroke-linecap="round" stroke-linejoin="round"/>
<path d="M9.50049 8.24942V7.74942C9.50049 6.64317 9.50049 5.74942 11.5005 5.74942H12.5005C14.5005 5.74942 14.5005 6.64317 14.5005 7.74942V8.24942" stroke="#32A5E2" stroke-width="1.2" stroke-miterlimit="10" stroke-linecap="round" stroke-linejoin="round"/>
<path d="M13.2495 12.625V13.25C13.2495 13.2562 13.2495 13.2563 13.2495 13.2625C13.2495 13.9438 13.2433 14.5 11.9995 14.5C10.762 14.5 10.7495 13.95 10.7495 13.2687V12.625C10.7495 12 10.7495 12 11.3745 12H12.6245C13.2495 12 13.2495 12 13.2495 12.625Z" stroke="#32A5E2" stroke-width="1.2" stroke-miterlimit="10" stroke-linecap="round" stroke-linejoin="round"/>
<path d="M18.0317 11.3744C16.588 12.4244 14.938 13.0494 13.2505 13.2619" stroke="#32A5E2" stroke-width="1.2" stroke-miterlimit="10" stroke-linecap="round" stroke-linejoin="round"/>
<path d="M6.13721 11.5433C7.54346 12.5058 9.13096 13.0871 10.7497 13.2683" stroke="#32A5E2" stroke-width="1.2" stroke-miterlimit="10" stroke-linecap="round" stroke-linejoin="round"/>
</svg>
