<svg width="178" height="58" viewBox="0 0 178 58" fill="none" xmlns="http://www.w3.org/2000/svg">
<g clip-path="url(#clip0_494_3685)">
<path d="M177.493 50.1551V50.2275C177.454 54.2442 174.172 57.4927 170.127 57.4927H7.86819C3.79778 57.4931 0.5 54.2053 0.5 50.1551V7.83742C0.5 3.78797 3.79772 0.500488 7.86819 0.500488H170.126C174.196 0.500488 177.493 3.78784 177.493 7.83742V50.1551Z" fill="black" stroke="#A6A6A6"/>
<mask id="mask0_494_3685" style="mask-type:luminance" maskUnits="userSpaceOnUse" x="13" y="11" width="34" height="39">
<path d="M38.5733 25.5269L30.5475 20.9118C30.5475 20.9118 15.9261 12.5026 15.0666 12.0083C14.207 11.5141 13.3506 11.8135 13.3506 12.8464V49.1199C13.3506 49.8943 13.9627 50.2281 14.7095 49.7989C15.4559 49.3691 30.5475 40.6903 30.5475 40.6903L38.573 36.0754C38.573 36.0754 45.3826 32.1598 46.2877 31.6395C47.1929 31.1185 47.1059 30.4045 46.342 29.9948C45.5785 29.5848 38.5733 25.5269 38.5733 25.5269Z" fill="white"/>
</mask>
<g mask="url(#mask0_494_3685)">
<path d="M13.3511 11.165V50.4374L33.2335 30.8014L13.3511 11.165Z" fill="url(#paint0_linear_494_3685)"/>
</g>
<mask id="mask1_494_3685" style="mask-type:luminance" maskUnits="userSpaceOnUse" x="13" y="11" width="34" height="39">
<path d="M38.5733 25.5269L30.5475 20.9118C30.5475 20.9118 15.9261 12.5026 15.0666 12.0083C14.207 11.5141 13.3506 11.8135 13.3506 12.8464V49.1199C13.3506 49.8943 13.9627 50.2281 14.7095 49.7989C15.4559 49.3691 30.5475 40.6903 30.5475 40.6903L38.573 36.0754C38.573 36.0754 45.3826 32.1598 46.2877 31.6395C47.1929 31.1185 47.1059 30.4045 46.342 29.9948C45.5785 29.5848 38.5733 25.5269 38.5733 25.5269Z" fill="white"/>
</mask>
<g mask="url(#mask1_494_3685)">
<path d="M38.5735 25.527L30.5477 20.9118L13.3511 11.0222V11.165L33.2335 30.8014L38.5735 25.527Z" fill="url(#paint1_linear_494_3685)"/>
</g>
<mask id="mask2_494_3685" style="mask-type:luminance" maskUnits="userSpaceOnUse" x="13" y="11" width="34" height="39">
<path d="M38.5733 25.5269L30.5475 20.9118C30.5475 20.9118 15.9261 12.5026 15.0666 12.0083C14.207 11.5141 13.3506 11.8135 13.3506 12.8464V49.1199C13.3506 49.8943 13.9627 50.2281 14.7095 49.7989C15.4559 49.3691 30.5475 40.6903 30.5475 40.6903L38.573 36.0754C38.573 36.0754 45.3826 32.1598 46.2877 31.6395C47.1929 31.1185 47.1059 30.4045 46.342 29.9948C45.5785 29.5848 38.5733 25.5269 38.5733 25.5269Z" fill="white"/>
</mask>
<g mask="url(#mask2_494_3685)">
<path d="M13.3511 50.4374V50.5802L30.5476 40.6903L38.5731 36.0751L33.2335 30.8014L13.3511 50.4374Z" fill="url(#paint2_linear_494_3685)"/>
</g>
<mask id="mask3_494_3685" style="mask-type:luminance" maskUnits="userSpaceOnUse" x="13" y="11" width="34" height="39">
<path d="M38.5733 25.5269L30.5475 20.9118C30.5475 20.9118 15.9261 12.5026 15.0666 12.0083C14.207 11.5141 13.3506 11.8135 13.3506 12.8464V49.1199C13.3506 49.8943 13.9627 50.2281 14.7095 49.7989C15.4559 49.3691 30.5475 40.6903 30.5475 40.6903L38.573 36.0754C38.573 36.0754 45.3826 32.1598 46.2877 31.6395C47.1929 31.1185 47.1059 30.4045 46.342 29.9948C45.5785 29.5848 38.5733 25.5269 38.5733 25.5269Z" fill="white"/>
</mask>
<g mask="url(#mask3_494_3685)">
<path d="M38.5734 25.527L33.2334 30.8014L38.573 36.0751L47.7452 30.801L38.5734 25.527Z" fill="url(#paint3_linear_494_3685)"/>
</g>
<path d="M138.522 38.4782C137.776 38.4782 137.094 38.3409 136.477 38.0667C135.86 37.7922 135.342 37.37 134.923 36.8009H134.798C134.881 37.4678 134.923 38.1 134.923 38.6972V43.3969H133.187V26.8486H134.599L134.84 28.4118H134.923C135.37 27.7862 135.89 27.3352 136.482 27.0572C137.075 26.7793 137.755 26.6403 138.522 26.6403C140.043 26.6403 141.217 27.1581 142.043 28.1931C142.869 29.2281 143.283 30.6804 143.283 32.5486C143.283 34.4245 142.862 35.8813 142.023 36.9208C141.182 37.9592 140.016 38.4782 138.522 38.4782ZM138.271 28.1096C137.099 28.1096 136.252 28.4329 135.729 29.0787C135.206 29.7248 134.937 30.7532 134.923 32.1636V32.5487C134.923 34.1538 135.192 35.3018 135.729 35.9933C136.266 36.6848 137.128 37.0297 138.313 37.0297C139.304 37.0297 140.08 36.6307 140.642 35.8318C141.203 35.0332 141.484 33.932 141.484 32.5279C141.484 31.1043 141.203 30.0111 140.642 29.2506C140.08 28.4894 139.29 28.1096 138.271 28.1096ZM147.304 38.2695H145.568V22.0549H147.304V38.2695ZM157.289 38.2695L156.944 36.6439H156.86C156.288 37.36 155.718 37.8449 155.149 38.0976C154.581 38.3516 153.871 38.4782 153.021 38.4782C151.884 38.4782 150.993 38.1863 150.347 37.603C149.702 37.0196 149.38 36.1898 149.38 35.1125C149.38 32.8065 151.232 31.5975 154.935 31.4859L156.882 31.4232V30.7147C156.882 29.8184 156.688 29.1563 156.3 28.7296C155.914 28.3019 155.294 28.0884 154.444 28.0884C153.488 28.0884 152.406 28.3803 151.2 28.9636L150.666 27.6402C151.232 27.3345 151.85 27.095 152.524 26.9214C153.197 26.7477 153.871 26.6607 154.548 26.6607C155.915 26.6607 156.928 26.9626 157.588 27.5671C158.247 28.1716 158.576 29.1407 158.576 30.4749V38.2692H157.289V38.2695H157.289ZM153.366 37.0508C154.446 37.0508 155.296 36.7555 155.913 36.1652C156.53 35.5749 156.839 34.7479 156.839 33.6845V32.653L155.102 32.7254C153.721 32.775 152.726 32.9878 152.115 33.3673C151.505 33.7458 151.2 34.3347 151.2 35.1337C151.2 35.7586 151.389 36.2349 151.77 36.5607C152.15 36.8875 152.682 37.0508 153.366 37.0508ZM159.584 26.8486H161.446L163.957 33.3618C164.508 34.8487 164.85 35.9219 164.983 36.5821H165.067C165.157 36.2272 165.348 35.6217 165.637 34.7628C165.926 33.9046 166.873 31.2672 168.477 26.8486H170.34L165.412 39.8539C164.924 41.1391 164.354 42.051 163.701 42.5903C163.049 43.1283 162.248 43.3969 161.301 43.3969C160.77 43.3969 160.247 43.338 159.73 43.2202V41.8344C160.114 41.9176 160.543 41.9595 161.018 41.9595C162.211 41.9595 163.061 41.2926 163.57 39.9585L164.208 38.3332L159.584 26.8486ZM106.351 27.9099C106.902 28.3643 108.053 29.3189 108.053 31.1355C108.053 32.9022 107.045 33.7399 106.038 34.5271C105.726 34.8373 105.366 35.1728 105.366 35.699C105.366 36.2234 105.726 36.5104 105.991 36.7257L106.854 37.3932C107.91 38.2774 108.868 39.0902 108.868 40.7391C108.868 42.9844 106.685 45.253 102.561 45.253C99.0827 45.253 97.4046 43.6052 97.4046 41.8365C97.4046 40.9769 97.8344 39.7592 99.2514 38.9221C100.737 38.0144 102.753 37.8962 103.832 37.8227C103.495 37.3933 103.112 36.9392 103.112 36.1999C103.112 35.7943 103.233 35.5552 103.352 35.2671C103.087 35.2914 102.824 35.3153 102.584 35.3153C100.042 35.3153 98.6035 33.428 98.6035 31.5656C98.6035 30.4665 99.1078 29.2475 100.138 28.3647C101.505 27.242 103.136 27.0503 104.432 27.0503H109.372L107.837 27.9103H106.351V27.9099H106.351ZM104.647 38.517C104.455 38.492 104.335 38.492 104.096 38.492C103.88 38.492 102.583 38.5409 101.577 38.8761C101.05 39.0657 99.5145 39.639 99.5145 41.336C99.5145 43.0313 101.17 44.2514 103.737 44.2514C106.038 44.2514 107.262 43.1502 107.262 41.6705C107.262 40.4497 106.471 39.8074 104.647 38.517ZM105.343 33.9774C105.894 33.4273 105.941 32.6637 105.941 32.2332C105.941 30.5137 104.911 27.8382 102.92 27.8382C102.296 27.8382 101.625 28.1484 101.241 28.6267C100.834 29.1283 100.713 29.7726 100.713 30.3944C100.713 31.9947 101.648 34.6467 103.712 34.6467C104.312 34.6467 104.958 34.36 105.343 33.9774ZM91.2513 38.1347C87.4446 38.1347 85.4092 35.177 85.4092 32.5053C85.4092 29.3806 87.9708 26.7106 91.6119 26.7106C95.1301 26.7106 97.3333 29.4523 97.3333 32.3389C97.3336 35.152 95.1555 38.1347 91.2513 38.1347ZM94.2441 36.203C94.8197 35.439 94.9634 34.4855 94.9634 33.5545C94.9634 31.4551 93.9577 27.4489 90.9883 27.4489C90.1983 27.4489 89.4084 27.7595 88.8338 28.2614C87.8998 29.095 87.7314 30.1449 87.7314 31.1716C87.7314 33.531 88.9048 37.4175 91.8029 37.4175C92.7366 37.4175 93.6946 36.9652 94.2441 36.203ZM78.2728 38.1347C74.4654 38.1347 72.4296 35.177 72.4296 32.5053C72.4296 29.3806 74.9922 26.7106 78.6323 26.7106C82.1516 26.7106 84.3544 29.4523 84.3544 32.3389C84.3548 35.152 82.1763 38.1347 78.2728 38.1347ZM81.2663 36.203C81.8408 35.439 81.9849 34.4855 81.9849 33.5545C81.9849 31.4551 80.9785 27.4489 78.009 27.4489C77.2194 27.4489 76.4288 27.7595 75.8546 28.2614C74.9206 29.095 74.7532 30.1449 74.7532 31.1716C74.7532 33.531 75.9259 37.4175 78.8244 37.4175C79.7584 37.4175 80.7158 36.9652 81.2663 36.203ZM70.6006 37.7607L67.1575 38.552C65.7606 38.7683 64.5092 38.9586 63.1858 38.9586C56.5405 38.9586 54.0137 34.0907 54.0137 30.278C54.0137 25.6268 57.6001 21.3118 63.7398 21.3118C65.0403 21.3118 66.291 21.5031 67.4223 21.8151C69.2277 22.3187 70.0702 22.9415 70.6002 23.3017L68.6013 25.1959L67.7592 25.3869L68.3609 24.4275C67.5427 23.6369 66.0488 22.1745 63.2091 22.1745C59.4052 22.1745 56.5398 25.0531 56.5398 29.2489C56.5398 33.7555 59.8145 37.9998 65.0615 37.9998C66.6038 37.9998 67.3966 37.6886 68.1193 37.4002V33.5406L64.4849 33.7323L66.41 32.7001H71.514L70.8887 33.2994C70.7189 33.444 70.6956 33.4925 70.6476 33.6824C70.6225 33.8987 70.5999 34.5947 70.5999 34.8342V37.7607H70.6006V37.7607Z" fill="#F9F9F9"/>
<path d="M113.96 37.0703C113.165 36.9982 112.998 36.8551 112.998 35.9188V22.3475C113.003 22.2959 113.006 22.2429 113.011 22.1929C113.108 21.3541 113.349 21.2103 114.096 20.7781H110.652L108.846 21.6415H110.687V21.6522L110.685 21.6436V36.4471C110.685 36.9258 110.59 36.9986 110.036 37.7171H114.298L115.188 37.1909C114.779 37.1414 114.37 37.1181 113.96 37.0703ZM123.756 37.2907C123.494 37.4339 123.231 37.6013 122.969 37.7195C122.178 38.0765 121.366 38.1722 120.647 38.1722C119.884 38.1722 118.687 38.123 117.467 37.2429C115.771 36.0513 115.03 34.0035 115.03 32.2181C115.03 28.5277 118.042 26.718 120.504 26.718C121.365 26.718 122.251 26.9319 122.968 27.3853C124.163 28.1696 124.473 29.1935 124.64 29.7415L119.023 32.0046L117.181 32.1473C117.778 35.1716 119.834 36.9323 122.106 36.9323C123.325 36.9323 124.21 36.5046 125.023 36.1005L123.756 37.2907ZM121.509 30.1935C121.962 30.0275 122.202 29.884 122.202 29.5509C122.202 28.5991 121.126 27.5031 119.834 27.5031C118.877 27.5031 117.085 28.2417 117.085 30.8129C117.085 31.2178 117.133 31.6462 117.158 32.0763L121.509 30.1935ZM126.063 26.8809V28.4521H125.872V26.8809H125.35V26.718H126.585V26.8809H126.063ZM128.214 28.4521V26.8663H128.205L127.719 28.4521H127.569L127.079 26.8663H127.073V28.4521H126.899V26.718H127.197L127.641 28.1197H127.647L128.084 26.718H128.386V28.4521H128.214Z" fill="#F9F9F9"/>
<path d="M58.7951 16.643H57.5987C57.5987 16.479 57.4852 16.0149 57.2583 15.2503H55.5312C55.297 16.0024 55.1798 16.4665 55.1798 16.643H54.0547C54.0547 16.5462 54.3456 15.7518 54.9275 14.26C55.5093 12.7682 55.8002 11.9463 55.8002 11.7952H57.2134C57.2134 11.9367 57.4769 12.7463 58.0041 14.2246C58.5313 15.703 58.7951 16.5088 58.7951 16.643ZM57.068 14.539C56.6417 13.2583 56.4287 12.5658 56.4287 12.4614H56.3689C56.3689 12.5581 56.1482 13.2506 55.7073 14.539H57.068ZM63.6155 16.643H62.6923C62.6923 16.5411 62.3496 16.0038 61.6643 15.0309C60.9468 14.0056 60.5379 13.3047 60.4384 12.9273H60.3785C60.4408 13.4708 60.4721 13.9623 60.4721 14.4018C60.4721 15.015 60.4895 15.7623 60.5243 16.6433H59.6046C59.6418 15.8739 59.6606 15.0288 59.6606 14.1079C59.6606 13.2018 59.6418 12.431 59.6046 11.7956H60.7147C60.7147 11.9273 61.0223 12.4524 61.6379 13.3706C62.2932 14.346 62.6697 15.0077 62.7668 15.3553H62.8229C62.763 14.8018 62.7331 14.3054 62.7331 13.8659C62.7331 13.1935 62.7156 12.503 62.6809 11.7956H63.6156C63.5804 12.4112 63.5634 13.1821 63.5634 14.1079C63.563 15.0406 63.5804 15.8856 63.6155 16.643ZM69.0335 14.0514C69.0335 14.7564 68.8066 15.372 68.3531 15.8981C67.8994 16.4246 67.2639 16.6874 66.4465 16.6874C66.0776 16.6874 65.5692 16.6724 64.9212 16.6426C64.9535 15.8929 64.9699 15.0475 64.9699 14.1072C64.9699 13.2039 64.9536 12.433 64.9212 11.7949H65.5755C65.6826 11.7949 65.842 11.7911 66.054 11.7838C66.2655 11.7765 66.404 11.7727 66.4688 11.7727C67.3683 11.7727 68.0205 11.9963 68.4259 12.4431C68.8309 12.8898 69.0335 13.4257 69.0335 14.0514ZM68.0131 14.2114C68.0131 13.7349 67.8736 13.3335 67.5945 13.0066C67.3154 12.6805 66.8891 12.5172 66.3159 12.5172C66.2088 12.5172 66.0619 12.5283 65.8747 12.5508C65.8994 13.0475 65.9119 13.5661 65.9119 14.1071C65.9119 14.7005 65.9245 15.2888 65.9491 15.8721C66.1091 15.9042 66.2718 15.9204 66.4349 15.9206C66.9708 15.9206 67.3676 15.7546 67.6255 15.4232C67.8834 15.0919 68.0131 14.688 68.0131 14.2114ZM74.0297 16.643H72.923C72.6338 15.7643 72.4122 15.2219 72.2577 15.016C72.1032 14.8097 71.854 14.7068 71.5102 14.7068C71.3654 14.7068 71.2272 14.7082 71.0954 14.7106C71.0954 15.3487 71.1065 15.9927 71.1291 16.643H70.09C70.1224 15.8932 70.1387 15.0479 70.1387 14.1075C70.1387 13.2042 70.1224 12.4333 70.09 11.7952H70.7366C70.8114 11.7952 70.9677 11.7914 71.2057 11.7841C71.4437 11.7769 71.6637 11.773 71.8655 11.773C73.0094 11.773 73.5815 12.1626 73.5815 12.9422C73.5815 13.5602 73.2551 13.9907 72.6022 14.2344V14.2902C72.8538 14.3595 73.0744 14.5553 73.2638 14.8763C73.4527 15.1976 73.7081 15.7865 74.0297 16.643ZM72.6279 13.2174C72.6279 12.7234 72.3088 12.4763 71.6709 12.4763C71.4367 12.4763 71.2297 12.4937 71.0505 12.5283C71.078 12.9131 71.0915 13.4146 71.0915 14.0326C71.2287 14.0378 71.3446 14.0399 71.4392 14.0399C72.2316 14.0402 72.6279 13.7661 72.6279 13.2174ZM79.3881 14.1296C79.3881 14.8915 79.1539 15.5234 78.6852 16.0249C78.2164 16.5262 77.637 16.7771 76.9469 16.7771C76.2889 16.7771 75.738 16.5469 75.2946 16.0863C74.8509 15.626 74.6293 15.0406 74.6293 14.331C74.6293 13.5692 74.8635 12.9373 75.3322 12.4357C75.8006 11.9345 76.38 11.6836 77.0704 11.6836C77.7285 11.6836 78.279 11.9131 78.7227 12.3723C79.1664 12.8316 79.3881 13.417 79.3881 14.1296ZM78.3566 14.2375C78.3566 13.7186 78.2233 13.2978 77.9568 12.9751C77.6899 12.6524 77.361 12.4912 76.9699 12.4912C76.6059 12.4912 76.2969 12.6538 76.0428 12.9789C75.7888 13.304 75.6611 13.7148 75.6611 14.2115C75.6611 14.7276 75.795 15.1477 76.063 15.4718C76.3309 15.7959 76.6591 15.9577 77.0482 15.9577C77.4118 15.9577 77.7212 15.7945 77.9752 15.468C78.2293 15.1418 78.3566 14.7314 78.3566 14.2375ZM81.5018 16.643H80.4439C80.4763 15.8735 80.4926 15.0284 80.4926 14.1075C80.4926 13.2014 80.4763 12.4306 80.4439 11.7952H81.5018C81.4695 12.4209 81.4531 13.1914 81.4531 14.1075C81.4531 15.043 81.4695 15.8884 81.5018 16.643ZM86.9201 14.0514C86.9201 14.7564 86.6932 15.372 86.2398 15.8981C85.786 16.4246 85.1506 16.6874 84.3331 16.6874C83.9643 16.6874 83.4558 16.6724 82.8078 16.6426C82.8402 15.8929 82.8566 15.0475 82.8566 14.1072C82.8566 13.2039 82.8403 12.433 82.8078 11.7949H83.4621C83.5693 11.7949 83.7287 11.7911 83.9406 11.7838C84.1522 11.7765 84.2907 11.7727 84.3554 11.7727C85.255 11.7727 85.9071 11.9963 86.3125 12.4431C86.7176 12.8898 86.9201 13.4257 86.9201 14.0514ZM85.8998 14.2114C85.8998 13.7349 85.7603 13.3335 85.4811 13.0066C85.2021 12.6805 84.7758 12.5172 84.2026 12.5172C84.0954 12.5172 83.9486 12.5283 83.7613 12.5508C83.7861 13.0475 83.7986 13.5661 83.7986 14.1071C83.7986 14.7005 83.8111 15.2888 83.8358 15.8721C83.9957 15.9042 84.1584 15.9204 84.3216 15.9206C84.8575 15.9206 85.2542 15.7546 85.5121 15.4232C85.77 15.0919 85.8998 14.688 85.8998 14.2114ZM94.1083 16.643H92.9119C92.9119 16.479 92.7985 16.0149 92.5712 15.2503H90.8441C90.6099 16.0024 90.4926 16.4665 90.4926 16.643H89.3679C89.3679 16.5462 89.6588 15.7518 90.2407 14.26C90.8226 12.7682 91.1135 11.9463 91.1135 11.7952H92.5267C92.5267 11.9367 92.7905 12.7463 93.3173 14.2246C93.8442 15.703 94.1083 16.5088 94.1083 16.643ZM92.3812 14.539C91.9549 13.2583 91.7416 12.5658 91.7416 12.4614H91.6817C91.6817 12.5581 91.4615 13.2506 91.0206 14.539H92.3812ZM98.4687 13.0645C98.4687 13.6579 98.2474 14.0961 97.8051 14.3789C97.3628 14.6617 96.8202 14.8035 96.1771 14.8035C96.0599 14.8035 95.9767 14.801 95.9266 14.7962C95.9266 15.2631 95.9401 15.8783 95.9677 16.643H94.917C94.9494 15.9258 94.9657 15.0804 94.9657 14.1075C94.9657 13.2139 94.9494 12.4431 94.917 11.7952H95.5674C95.6597 11.7952 95.8364 11.7914 96.0981 11.7841C96.3598 11.7769 96.5864 11.773 96.7785 11.773C97.2517 11.773 97.6519 11.8798 97.9783 12.0933C98.3048 12.3068 98.4687 12.6302 98.4687 13.0645ZM97.5044 13.2694C97.5044 12.7383 97.1505 12.4725 96.4427 12.4725C96.2656 12.4725 96.0787 12.4912 95.8821 12.5283C95.9096 12.9976 95.9231 13.5286 95.9231 14.122C95.9854 14.1272 96.0578 14.1293 96.1399 14.1293C97.0496 14.1296 97.5044 13.843 97.5044 13.2694ZM102.952 13.0645C102.952 13.6579 102.731 14.0961 102.289 14.3789C101.847 14.6617 101.304 14.8035 100.661 14.8035C100.543 14.8035 100.46 14.801 100.41 14.7962C100.41 15.2631 100.424 15.8783 100.451 16.643H99.4007C99.433 15.9258 99.4494 15.0804 99.4494 14.1075C99.4494 13.2139 99.4331 12.4431 99.4007 11.7952H100.051C100.143 11.7952 100.32 11.7914 100.582 11.7841C100.843 11.7769 101.07 11.773 101.262 11.773C101.735 11.773 102.136 11.8798 102.462 12.0933C102.788 12.3068 102.952 12.6302 102.952 13.0645ZM101.988 13.2694C101.988 12.7383 101.634 12.4725 100.926 12.4725C100.749 12.4725 100.562 12.4912 100.366 12.5283C100.393 12.9976 100.407 13.5286 100.407 14.122C100.469 14.1272 100.541 14.1293 100.624 14.1293C101.533 14.1296 101.988 13.843 101.988 13.2694ZM110.283 14.1296C110.283 14.8915 110.049 15.5234 109.58 16.0249C109.111 16.5265 108.532 16.7771 107.842 16.7771C107.184 16.7771 106.633 16.5469 106.189 16.0863C105.746 15.626 105.524 15.0406 105.524 14.331C105.524 13.5692 105.758 12.9373 106.227 12.4357C106.696 11.9342 107.275 11.6836 107.965 11.6836C108.623 11.6836 109.174 11.9131 109.617 12.3723C110.061 12.8316 110.283 13.417 110.283 14.1296ZM109.251 14.2375C109.251 13.7186 109.118 13.2978 108.851 12.9751C108.585 12.6524 108.255 12.4912 107.864 12.4912C107.5 12.4912 107.191 12.6538 106.937 12.9789C106.683 13.304 106.556 13.7148 106.556 14.2115C106.556 14.7276 106.69 15.1477 106.958 15.4718C107.226 15.7959 107.554 15.9577 107.943 15.9577C108.307 15.9577 108.616 15.7945 108.87 15.468C109.124 15.1418 109.251 14.7314 109.251 14.2375ZM115.35 16.643H114.426C114.426 16.5411 114.084 16.0038 113.398 15.0309C112.681 14.0056 112.272 13.3047 112.172 12.9273H112.113C112.175 13.4708 112.206 13.9623 112.206 14.4018C112.206 15.015 112.224 15.7623 112.258 16.6433H111.339C111.376 15.8739 111.395 15.0288 111.395 14.1079C111.395 13.2018 111.376 12.431 111.339 11.7956H112.449C112.449 11.9273 112.757 12.4524 113.372 13.3706C114.028 14.346 114.404 15.0077 114.501 15.3553H114.557C114.497 14.8018 114.467 14.3054 114.467 13.8659C114.467 13.1935 114.45 12.503 114.415 11.7956H115.35C115.315 12.4112 115.298 13.1821 115.298 14.1079C115.297 15.0406 115.315 15.8856 115.35 16.643Z" fill="#F9F9FA"/>
</g>
<defs>
<linearGradient id="paint0_linear_494_3685" x1="23.2922" y1="11.1651" x2="23.2922" y2="50.4375" gradientUnits="userSpaceOnUse">
<stop stop-color="#257CB0"/>
<stop offset="0.286" stop-color="#4A93B5"/>
<stop offset="0.767" stop-color="#78BCBB"/>
<stop offset="1" stop-color="#89CFBD"/>
</linearGradient>
<linearGradient id="paint1_linear_494_3685" x1="13.3514" y1="20.9115" x2="38.5738" y2="20.9115" gradientUnits="userSpaceOnUse">
<stop stop-color="#52C1AD"/>
<stop offset="1" stop-color="#DEE89A"/>
</linearGradient>
<linearGradient id="paint2_linear_494_3685" x1="25.9621" y1="30.8014" x2="25.9621" y2="50.5803" gradientUnits="userSpaceOnUse">
<stop stop-color="#EC413D"/>
<stop offset="0.167" stop-color="#DA4452"/>
<stop offset="0.575" stop-color="#B0487A"/>
<stop offset="0.862" stop-color="#954A92"/>
<stop offset="1" stop-color="#8A4A9D"/>
</linearGradient>
<linearGradient id="paint3_linear_494_3685" x1="40.4894" y1="25.527" x2="40.4894" y2="36.0748" gradientUnits="userSpaceOnUse">
<stop stop-color="#F58879"/>
<stop offset="0.119" stop-color="#F69079"/>
<stop offset="0.713" stop-color="#FCB877"/>
<stop offset="1" stop-color="#FEC874"/>
</linearGradient>
<clipPath id="clip0_494_3685">
<rect width="178" height="58" fill="white"/>
</clipPath>
</defs>
</svg>
