<svg width="185" height="144" viewBox="0 0 185 144" fill="none" xmlns="http://www.w3.org/2000/svg">
<path fill-rule="evenodd" clip-rule="evenodd" d="M88.7684 0C87.1435 0 85.8262 1.31771 85.8262 2.94317C85.8262 4.56863 87.1435 5.88634 88.7684 5.88634H95.2987C96.884 5.88634 98.1691 7.17188 98.1691 8.75773C98.1691 10.3436 96.884 11.6291 95.2987 11.6291H56.476C54.851 11.6291 53.5337 12.9468 53.5337 14.5723C53.5337 16.1977 54.851 17.5155 56.476 17.5155H59.5617C61.147 17.5155 62.4321 18.801 62.4321 20.3868C62.4321 21.5234 61.772 22.5057 60.8144 22.9711H44.2766C42.6516 22.9711 41.3344 24.2888 41.3344 25.9143C41.3344 27.5397 42.6516 28.8574 44.2766 28.8574H46.5012C48.0865 28.8574 49.3716 30.143 49.3716 31.7288C49.3716 32.8654 48.7115 33.8477 47.7539 34.3131H35.8088C34.1838 34.3131 32.8666 35.6308 32.8666 37.2562C32.8666 38.8817 34.1838 40.1994 35.8088 40.1994H43.6307C45.216 40.1994 46.5012 41.4849 46.5012 43.0708C46.5012 44.6566 45.216 45.9422 43.6307 45.9422H26.3363C24.7114 45.9422 23.3941 47.2599 23.3941 48.8853C23.3941 50.5108 24.7114 51.8285 26.3363 51.8285H36.1676C37.7529 51.8285 39.038 53.114 39.038 54.6999C39.038 56.2858 37.7529 57.5713 36.1676 57.5713H20.5954C18.9705 57.5713 17.6532 58.889 17.6532 60.5145C17.6532 62.1399 18.9705 63.4576 20.5954 63.4576H23.5376C25.1229 63.4576 26.4081 64.7432 26.4081 66.329C26.4081 67.9149 25.1229 69.2004 23.5376 69.2004H8.97013C7.34521 69.2004 6.02793 70.5181 6.02793 72.1436C6.02793 73.769 7.34521 75.0867 8.97013 75.0867H31.1443C32.7296 75.0867 34.0147 76.308 34.0147 77.8146C34.0147 79.3211 32.7296 80.5424 31.1443 80.5424H18.8732C17.2482 80.5424 15.931 81.8601 15.931 83.4855C15.931 85.111 17.2482 86.4287 18.8732 86.4287H27.9868C29.5721 86.4287 30.8573 87.65 30.8573 89.1565C30.8573 90.6631 29.5721 91.8843 27.9868 91.8843H15.2851C13.6602 91.8843 12.3429 93.2021 12.3429 94.8275C12.3429 96.453 13.6602 97.7707 15.2851 97.7707H43.9178C45.5031 97.7707 46.7882 99.0241 46.7882 100.57C46.7882 102.116 45.5031 103.37 43.9178 103.37H38.2486C36.6237 103.37 35.3064 104.688 35.3064 106.313C35.3064 107.939 36.6237 109.256 38.2486 109.256H58.27C59.8553 109.256 61.1404 110.542 61.1404 112.128C61.1404 113.713 59.8553 114.999 58.27 114.999H42.9849C41.3599 114.999 40.0427 116.317 40.0427 117.942C40.0427 119.568 41.3599 120.885 42.9849 120.885H64.0109C65.5962 120.885 66.8813 122.107 66.8813 123.613C66.8813 125.12 65.5962 126.341 64.0109 126.341H58.1982C56.5733 126.341 55.256 127.659 55.256 129.284C55.256 130.91 56.5733 132.227 58.1982 132.227H77.5019C79.0872 132.227 80.3724 133.449 80.3724 134.955C80.3724 136.462 79.0872 137.683 77.5019 137.683H77.6455C75.9016 137.683 74.488 139.097 74.488 140.841C74.488 142.586 75.9016 144 77.6455 144H100.609C102.353 144 103.766 142.586 103.766 140.841C103.766 139.097 102.353 137.683 100.609 137.683H90.1319C88.5466 137.683 87.2614 136.462 87.2614 134.955C87.2614 133.449 88.5466 132.227 90.1319 132.227H139.001C140.626 132.227 141.943 130.91 141.943 129.284C141.943 127.659 140.626 126.341 139.001 126.341H115.392C113.806 126.341 112.521 125.12 112.521 123.613C112.521 122.107 113.806 120.885 115.392 120.885H156.941C158.566 120.885 159.884 119.568 159.884 117.942C159.884 116.317 158.566 114.999 156.941 114.999H138.355C136.77 114.999 135.485 113.713 135.485 112.128C135.485 110.542 136.77 109.256 138.355 109.256H152.636C154.261 109.256 155.578 107.939 155.578 106.313C155.578 104.688 154.261 103.37 152.636 103.37H145.818C144.233 103.37 142.948 102.116 142.948 100.57C142.948 99.0241 144.233 97.7707 145.818 97.7707H161.678C163.303 97.7707 164.62 96.453 164.62 94.8275C164.62 93.2021 163.303 91.8843 161.678 91.8843H153.425C151.84 91.8843 150.555 90.6631 150.555 89.1565C150.555 87.65 151.84 86.4287 153.425 86.4287H176.173C177.798 86.4287 179.116 85.111 179.116 83.4855C179.116 81.8601 177.798 80.5424 176.173 80.5424H162.324C160.738 80.5424 159.453 79.3211 159.453 77.8146C159.453 76.308 160.738 75.0867 162.324 75.0867H172.155C173.78 75.0867 175.097 73.769 175.097 72.1436C175.097 70.5181 173.78 69.2004 172.155 69.2004H158.879C157.294 69.2004 156.009 67.9149 156.009 66.329C156.009 64.7432 157.294 63.4576 158.879 63.4576H172.155C173.78 63.4576 175.097 62.1399 175.097 60.5145C175.097 58.889 173.78 57.5713 172.155 57.5713H152.995C151.409 57.5713 150.124 56.2858 150.124 54.6999C150.124 53.114 151.409 51.8285 152.995 51.8285H162.252C163.877 51.8285 165.194 50.5108 165.194 48.8853C165.194 47.2599 163.877 45.9422 162.252 45.9422H144.24C142.654 45.9422 141.369 44.6566 141.369 43.0708C141.369 41.4849 142.654 40.1994 144.24 40.1994H156.511C158.136 40.1994 159.453 38.8817 159.453 37.2562C159.453 35.6308 158.136 34.3131 156.511 34.3131H128.204C127.247 33.8477 126.587 32.8654 126.587 31.7288C126.587 30.143 127.872 28.8574 129.457 28.8574H141.298C142.922 28.8574 144.24 27.5397 144.24 25.9143C144.24 24.2888 142.922 22.9711 141.298 22.9711H111.986C111.029 22.5057 110.369 21.5234 110.369 20.3868C110.369 18.801 111.654 17.5155 113.239 17.5155H115.751C117.376 17.5155 118.693 16.1977 118.693 14.5723C118.693 12.9468 117.376 11.6291 115.751 11.6291H106.063C104.478 11.6291 103.192 10.3436 103.192 8.75773C103.192 7.17188 104.478 5.88634 106.063 5.88634H106.565C108.19 5.88634 109.507 4.56863 109.507 2.94317C109.507 1.31771 108.19 0 106.565 0H88.7684ZM123.142 11.4855C121.557 11.4855 120.272 12.7711 120.272 14.3569C120.272 15.9428 121.557 17.2283 123.142 17.2283H125.438C127.024 17.2283 128.309 15.9428 128.309 14.3569C128.309 12.7711 127.024 11.4855 125.438 11.4855H123.142ZM29.5656 25.8425C29.5656 24.2566 30.8507 22.9711 32.436 22.9711H34.7324C36.3176 22.9711 37.6028 24.2566 37.6028 25.8425C37.6028 27.4283 36.3176 28.7139 34.7324 28.7139H32.436C30.8507 28.7139 29.5656 27.4283 29.5656 25.8425ZM11.1947 57.5713C9.60943 57.5713 8.32428 58.8568 8.32428 60.4427C8.32428 62.0285 9.60943 63.3141 11.1947 63.3141H13.4911C15.0764 63.3141 16.3615 62.0285 16.3615 60.4427C16.3615 58.8568 15.0764 57.5713 13.4911 57.5713H11.1947ZM0 83.5573C0 81.9715 1.28515 80.6859 2.87044 80.6859H9.61598C11.2013 80.6859 12.4864 81.9715 12.4864 83.5573C12.4864 85.1432 11.2013 86.4287 9.61598 86.4287H2.87044C1.28515 86.4287 0 85.1432 0 83.5573ZM22.533 103.657C20.9477 103.657 19.6625 104.943 19.6625 106.528C19.6625 108.114 20.9477 109.4 22.533 109.4H26.6951C28.2804 109.4 29.5656 108.114 29.5656 106.528C29.5656 104.943 28.2804 103.657 26.6951 103.657H22.533ZM28.8479 118.014C28.8479 116.428 30.1331 115.143 31.7184 115.143H33.8712C35.4565 115.143 36.7417 116.428 36.7417 118.014C36.7417 119.6 35.4565 120.885 33.8712 120.885H31.7184C30.1331 120.885 28.8479 119.6 28.8479 118.014ZM180.694 69.0568C179.109 69.0568 177.824 70.3424 177.824 71.9282C177.824 73.5141 179.109 74.7996 180.694 74.7996H182.13C183.715 74.7996 185 73.5141 185 71.9282C185 70.3424 183.715 69.0568 182.13 69.0568H180.694Z" fill="#4DDBDF" fill-opacity="0.1"/>
<path d="M61.348 52.131H81.4899V70.8814H61.348C60.7879 70.8829 60.2307 70.7995 59.6972 70.6342C58.346 70.2986 57.1491 69.5318 56.2975 68.456C55.4459 67.3809 54.9891 66.0579 55.0002 64.6997V58.3123C55.0002 56.6731 55.6688 55.1007 56.8591 53.9415C58.0501 52.7824 59.664 52.1305 61.348 52.1305L61.348 52.131ZM85.7215 70.8814H100.278V52.131H85.7215V70.8814ZM124.653 52.131H104.511V70.8814H124.653H124.652C125.212 70.8829 125.769 70.7995 126.303 70.6342C127.654 70.2986 128.851 69.5318 129.702 68.456C130.554 67.3809 131.011 66.0579 131 64.6997V58.3123C131 56.6731 130.331 55.1007 129.141 53.9415C127.95 52.7824 126.336 52.1305 124.652 52.1305L124.653 52.131ZM59.6969 74.8387V102.12C59.7013 105.004 60.8798 107.768 62.9741 109.808C65.0684 111.847 67.9072 112.994 70.8686 112.999H81.4899V75.0037L61.348 75.003C60.793 75.0095 60.2396 74.9541 59.6972 74.8384L59.6969 74.8387ZM85.7215 113H100.278V75.0043L85.7215 75.0035V113ZM104.51 75.0043V113H115.132C118.093 112.995 120.932 111.848 123.026 109.808C125.12 107.769 126.299 105.004 126.303 102.12V74.8852C125.757 74.9707 125.205 75.0117 124.653 75.0088L104.51 75.0043ZM71.8 38.8206C71.8819 36.9241 72.6346 35.1125 73.9296 33.6939C75.2254 32.2746 76.9839 31.3346 78.9084 31.032C84.4097 30.5786 89.2336 34.9471 93.0421 43.8893C96.7658 34.9881 101.675 30.6195 107.091 31.032H107.092C109.016 31.3345 110.775 32.2745 112.071 33.6939C113.366 35.1125 114.118 36.9243 114.2 38.8206C114.122 40.825 113.443 42.7632 112.248 44.3959C111.052 46.0287 109.392 47.2856 107.472 48.0106H78.5271C76.6078 47.2855 74.9474 46.0287 73.752 44.3959C72.5565 42.7632 71.8776 40.825 71.7994 38.8206H71.8ZM96.132 47.4335C106.372 45.3732 110.054 41.7877 109.969 38.9441C109.931 38.0508 109.591 37.1949 109.002 36.5094C108.413 35.8238 107.607 35.3466 106.71 35.1533C106.583 35.1533 106.414 35.1124 106.288 35.1124C102.733 35.1116 99.0512 39.6449 96.1312 47.4335L96.132 47.4335ZM76.0316 38.9441C75.9468 41.7877 79.6283 45.373 89.8688 47.4335C86.9487 39.6448 83.2672 35.1116 79.7124 35.1116C79.5855 35.1116 79.4165 35.1525 79.2896 35.1525L79.2903 35.1533C78.3937 35.3466 77.5879 35.8238 76.999 36.5093C76.4094 37.1949 76.0692 38.0508 76.0315 38.944L76.0316 38.9441Z" fill="#4DDBDF"/>
</svg>
