<svg width="48" height="48" viewBox="0 0 48 48" fill="none" xmlns="http://www.w3.org/2000/svg">
<rect width="48" height="48" rx="24" fill="#01304A"/>
<path d="M21.7649 30.7059C23.7487 30.7055 25.6753 30.0414 27.238 28.8193L31.361 32.9423C31.7974 33.3787 32.505 33.3787 32.9414 32.9423C33.3778 32.5059 33.3778 31.7984 32.9414 31.362L28.8184 27.239C30.0411 25.6761 30.7056 23.749 30.7061 21.7647C30.7061 16.8348 26.6948 12.8235 21.7649 12.8235C16.835 12.8235 12.8237 16.8348 12.8237 21.7647C12.8237 26.6947 16.835 30.7059 21.7649 30.7059ZM21.7649 15.0588C25.4632 15.0588 28.4708 18.0664 28.4708 21.7647C28.4708 25.463 25.4632 28.4706 21.7649 28.4706C18.0666 28.4706 15.059 25.463 15.059 21.7647C15.059 18.0664 18.0666 15.0588 21.7649 15.0588Z" fill="white"/>
<path d="M23.343 20.1844C23.4959 20.3376 23.624 20.5087 23.7253 20.6926C24.0234 21.2337 24.501 21.7647 25.1188 21.7647C25.7358 21.7647 26.2502 21.2574 26.0978 20.6595C26.0453 20.4532 25.9778 20.2505 25.8958 20.053C25.6706 19.5105 25.3401 19.018 24.9234 18.604C23.4989 17.1814 21.1944 16.9564 19.4922 17.929C18.9565 18.2351 18.9594 18.9579 19.395 19.3948C19.8311 19.8321 20.5479 19.7992 21.1433 19.6354C21.9037 19.4261 22.7672 19.61 23.343 20.1844Z" fill="white"/>
</svg>
