<svg width="78" height="75" viewBox="0 0 78 75" fill="none" xmlns="http://www.w3.org/2000/svg">
<g filter="url(#filter0_d_494_3234)">
<ellipse cx="38.7107" cy="33.5" rx="24.4258" ry="23.5" fill="white" fill-opacity="0.2" shape-rendering="crispEdges"/>
</g>
<g clip-path="url(#clip0_494_3234)">
<path d="M38.1909 23C35.0832 23 34.6959 23.0144 33.4797 23.0639C32.2585 23.1217 31.4324 23.3039 30.7035 23.5761C29.9407 23.8532 29.2498 24.287 28.6791 24.8473C28.0951 25.3951 27.644 26.0602 27.3579 26.795C27.0749 27.4963 26.8855 28.291 26.8255 29.4659C26.7705 30.6367 26.759 31.0087 26.759 33.9986C26.759 36.9886 26.774 37.3612 26.8255 38.5313C26.8855 39.7028 27.0749 40.501 27.3579 41.2022C27.6458 41.9362 28.0967 42.6009 28.6791 43.1499C29.2485 43.7118 29.9397 44.1459 30.7035 44.4211C31.4324 44.6899 32.262 44.8756 33.4797 44.9333C34.6966 44.9862 35.0832 44.9972 38.1909 44.9972C41.2987 44.9972 41.686 44.9828 42.9022 44.9333C44.1198 44.8756 44.9495 44.6893 45.6783 44.4211C46.4412 44.144 47.132 43.7102 47.7028 43.1499C48.2875 42.6027 48.7388 41.9375 49.024 41.2022C49.3034 40.501 49.4964 39.7028 49.5564 38.5313C49.6114 37.3605 49.6228 36.9886 49.6228 33.9986C49.6228 31.0087 49.6078 30.6361 49.5564 29.4659C49.4964 28.2944 49.3027 27.4921 49.024 26.795C48.736 26.0611 48.2851 25.3964 47.7028 24.8473C47.134 24.2847 46.4426 23.8506 45.6783 23.5761C44.9495 23.3039 44.1198 23.1217 42.9022 23.0639C41.6852 23.011 41.2987 23 38.1909 23ZM38.1909 24.98C41.2429 24.98 41.6074 24.9944 42.8136 25.0439C43.9262 25.0941 44.5322 25.2729 44.9345 25.4241C45.4318 25.6008 45.882 25.8819 46.2522 26.2471C46.6311 26.6017 46.9222 27.0338 47.1039 27.5114C47.2611 27.8984 47.4469 28.4814 47.4991 29.5519C47.5505 30.7124 47.5656 31.0637 47.5656 33.9993C47.5656 36.9349 47.5506 37.2863 47.4948 38.4468C47.4348 39.5172 47.249 40.1002 47.0925 40.4873C46.876 41.0036 46.6345 41.3645 46.2357 41.755C45.8643 42.1179 45.4144 42.3977 44.918 42.5745C44.5207 42.7257 43.9062 42.9045 42.7893 42.9547C41.5766 43.0042 41.2193 43.0186 38.1595 43.0186C35.0997 43.0186 34.7431 43.0042 33.529 42.9506C32.4164 42.8928 31.8026 42.7141 31.4003 42.5635C30.8572 42.3552 30.4849 42.1228 30.0861 41.7392C29.6838 41.3521 29.428 40.9836 29.2308 40.4714C29.0707 40.0892 28.8878 39.4979 28.8285 38.4234C28.7877 37.2704 28.7684 36.9129 28.7684 33.9828C28.7684 31.0541 28.7877 30.6959 28.8285 29.5285C28.8878 28.4539 29.0707 27.8641 29.2308 27.4804C29.428 26.9573 29.6845 26.5997 30.0861 26.2127C30.4842 25.8297 30.8572 25.5822 31.4003 25.3884C31.8026 25.2378 32.4014 25.0591 33.5183 25.0054C34.7309 24.9635 35.0882 24.9484 38.1438 24.9484L38.1909 24.98ZM38.1909 28.3536C37.4201 28.3533 36.6569 28.4992 35.9447 28.7828C35.2325 29.0665 34.5854 29.4824 34.0404 30.0068C33.4954 30.5311 33.0631 31.1537 32.7682 31.8389C32.4734 32.5241 32.3218 33.2584 32.3221 34C32.3218 34.7416 32.4734 35.4759 32.7682 36.1611C33.0631 36.8463 33.4954 37.4689 34.0404 37.9932C34.5854 38.5176 35.2325 38.9335 35.9447 39.2172C36.6569 39.5008 37.4201 39.6467 38.1909 39.6464C38.9617 39.6467 39.725 39.5008 40.4372 39.2172C41.1494 38.9335 41.7965 38.5176 42.3415 37.9932C42.8865 37.4689 43.3188 36.8463 43.6136 36.1611C43.9085 35.4759 44.0601 34.7416 44.0598 34C44.0601 33.2584 43.9085 32.5241 43.6136 31.8389C43.3188 31.1537 42.8865 30.5311 42.3415 30.0068C41.7965 29.4824 41.1494 29.0665 40.4372 28.7828C39.725 28.4992 38.9617 28.3533 38.1909 28.3536ZM38.1909 37.6664C36.0843 37.6664 34.3801 36.0267 34.3801 34C34.3801 31.9733 36.0843 30.3336 38.1909 30.3336C40.2975 30.3336 42.0018 31.9733 42.0018 34C42.0018 36.0267 40.2975 37.6664 38.1909 37.6664ZM45.6683 28.1281C45.668 28.4785 45.523 28.8144 45.2654 29.062C45.0077 29.3097 44.6584 29.4488 44.2942 29.4488C44.1141 29.4488 43.9358 29.4146 43.7694 29.3483C43.6031 29.282 43.4519 29.1848 43.3245 29.0623C43.1972 28.9398 43.0962 28.7944 43.0273 28.6343C42.9584 28.4743 42.9229 28.3027 42.9229 28.1294C42.9229 27.9562 42.9584 27.7846 43.0273 27.6246C43.0962 27.4645 43.1972 27.3191 43.3245 27.1965C43.4519 27.074 43.6031 26.9769 43.7694 26.9106C43.9358 26.8442 44.1141 26.8101 44.2942 26.8101C45.0495 26.8101 45.6683 27.4014 45.6683 28.1281Z" fill="#6AF5BB"/>
</g>
<defs>
<filter id="filter0_d_494_3234" x="0.284912" y="0" width="76.8516" height="75" filterUnits="userSpaceOnUse" color-interpolation-filters="sRGB">
<feFlood flood-opacity="0" result="BackgroundImageFix"/>
<feColorMatrix in="SourceAlpha" type="matrix" values="0 0 0 0 0 0 0 0 0 0 0 0 0 0 0 0 0 0 127 0" result="hardAlpha"/>
<feOffset dy="4"/>
<feGaussianBlur stdDeviation="7"/>
<feComposite in2="hardAlpha" operator="out"/>
<feColorMatrix type="matrix" values="0 0 0 0 0 0 0 0 0 0 0 0 0 0 0 0 0 0 0.1 0"/>
<feBlend mode="normal" in2="BackgroundImageFix" result="effect1_dropShadow_494_3234"/>
<feBlend mode="normal" in="SourceGraphic" in2="effect1_dropShadow_494_3234" result="shape"/>
</filter>
<clipPath id="clip0_494_3234">
<rect width="22.8667" height="22" fill="white" transform="translate(26.7576 23)"/>
</clipPath>
</defs>
</svg>
