<svg width="18" height="18" viewBox="0 0 18 18" fill="none" xmlns="http://www.w3.org/2000/svg">
<path d="M2.12207 6.01086V12.9029C2.12207 14.2488 3.07832 14.8013 4.23999 14.1354L5.90457 13.1863C6.26582 12.9809 6.8679 12.9596 7.24332 13.1509L10.9621 15.0138C11.3375 15.1979 11.9396 15.1838 12.3008 14.9784L15.3679 13.2217C15.7575 12.995 16.0833 12.4425 16.0833 11.9892V5.09711C16.0833 3.75127 15.1271 3.19877 13.9654 3.86461L12.3008 4.81377C11.9396 5.01919 11.3375 5.04044 10.9621 4.84919L7.24332 2.99336C6.8679 2.80919 6.26582 2.82336 5.90457 3.02877L2.83749 4.78544C2.44082 5.01211 2.12207 5.56461 2.12207 6.01086Z" stroke="#4DDBDF" stroke-width="1.5" stroke-linecap="round" stroke-linejoin="round"/>
<path d="M6.56348 3.33337V12.5417" stroke="#4DDBDF" stroke-width="1.5" stroke-linecap="round" stroke-linejoin="round"/>
<path d="M11.6421 5.18921V14.6667" stroke="#4DDBDF" stroke-width="1.5" stroke-linecap="round" stroke-linejoin="round"/>
</svg>
