<svg width="28" height="28" viewBox="0 0 28 28" fill="none" xmlns="http://www.w3.org/2000/svg">
<path d="M24.5934 10.01V17.9899C24.5934 19.2966 23.8934 20.51 22.7617 21.175L15.8317 25.1766C14.7 25.83 13.3 25.83 12.1567 25.1766L5.22669 21.175C4.09502 20.5216 3.39502 19.3083 3.39502 17.9899V10.01C3.39502 8.70329 4.09502 7.48991 5.22669 6.82491L12.1567 2.82325C13.2884 2.16992 14.6884 2.16992 15.8317 2.82325L22.7617 6.82491C23.8934 7.48991 24.5934 8.69163 24.5934 10.01Z" stroke="#01304A" stroke-width="1.5" stroke-linecap="round" stroke-linejoin="round"/>
<path d="M14.0001 12.8334C15.5014 12.8334 16.7184 11.6163 16.7184 10.115C16.7184 8.61372 15.5014 7.39673 14.0001 7.39673C12.4988 7.39673 11.2817 8.61372 11.2817 10.115C11.2817 11.6163 12.4988 12.8334 14.0001 12.8334Z" stroke="#01304A" stroke-width="1.5" stroke-linecap="round" stroke-linejoin="round"/>
<path d="M18.6668 19.4368C18.6668 17.3368 16.5785 15.6335 14.0002 15.6335C11.4218 15.6335 9.3335 17.3368 9.3335 19.4368" stroke="#01304A" stroke-width="1.5" stroke-linecap="round" stroke-linejoin="round"/>
</svg>
