<svg width="29" height="32" viewBox="0 0 29 32" fill="none" xmlns="http://www.w3.org/2000/svg">
<path d="M28.9991 32V23.541H20.8109V27.0255L13.7957 27.0257V16.7349H17.1335L17.1338 20.2295H25.3219V11.7705H17.1338V15.2288L13.796 15.2389V4.948L20.8119 4.94827V8.45902H29V0H20.8119V3.4583L12.2316 3.45804V15.2388H8.18814V11.7572H0V20.2162H8.18814V16.7346H12.2316V28.5154L20.8119 28.5151V31.9999H29L28.9991 32ZM23.8735 18.7334H18.5814V13.2663H23.8735V18.7334ZM6.73933 18.7202H1.44699V13.2528H6.73933V18.7202ZM27.5512 6.96318H22.2591V1.49603H27.5512V6.96318ZM27.5512 30.5036H22.2588V25.0362H27.5512V30.5036Z" fill="#4DDBDF"/>
</svg>
