<svg width="24" height="24" viewBox="0 0 24 24" fill="none" xmlns="http://www.w3.org/2000/svg">
<path opacity="0.4" d="M16.8203 1.91016H7.18031C5.06031 1.91016 3.32031 3.65016 3.32031 5.77016V19.8602C3.32031 21.6602 4.61031 22.4202 6.19031 21.5502L11.0703 18.8402C11.5903 18.5502 12.4303 18.5502 12.9403 18.8402L17.8203 21.5502C19.4003 22.4302 20.6903 21.6702 20.6903 19.8602V5.77016C20.6803 3.65016 18.9503 1.91016 16.8203 1.91016Z" fill="white"/>
<path d="M11.0903 13.2504C10.9003 13.2504 10.7103 13.1804 10.5603 13.0304L9.06027 11.5304C8.77027 11.2404 8.77027 10.7604 9.06027 10.4704C9.35027 10.1804 9.83027 10.1804 10.1203 10.4704L11.0903 11.4404L14.5603 7.97043C14.8503 7.68043 15.3303 7.68043 15.6203 7.97043C15.9103 8.26043 15.9103 8.74043 15.6203 9.03043L11.6203 13.0304C11.4703 13.1804 11.2803 13.2504 11.0903 13.2504Z" fill="white"/>
</svg>
