<svg width="18" height="18" viewBox="0 0 18 18" fill="none" xmlns="http://www.w3.org/2000/svg">
<path d="M6.00098 4.31195C5.69348 4.31195 5.43848 4.05695 5.43848 3.74945V1.49945C5.43848 1.19195 5.69348 0.936951 6.00098 0.936951C6.30848 0.936951 6.56348 1.19195 6.56348 1.49945V3.74945C6.56348 4.05695 6.30848 4.31195 6.00098 4.31195Z" fill="#4DDBDF"/>
<path d="M11.999 4.31195C11.6915 4.31195 11.4365 4.05695 11.4365 3.74945V1.49945C11.4365 1.19195 11.6915 0.936951 11.999 0.936951C12.3065 0.936951 12.5615 1.19195 12.5615 1.49945V3.74945C12.5615 4.05695 12.3065 4.31195 11.999 4.31195Z" fill="#4DDBDF"/>
<path d="M6.375 10.8747C6.2775 10.8747 6.18 10.8522 6.09 10.8147C5.9925 10.7772 5.9175 10.7247 5.8425 10.6572C5.7075 10.5147 5.625 10.3272 5.625 10.1247C5.625 10.0272 5.6475 9.92968 5.685 9.83968C5.7225 9.74968 5.775 9.66719 5.8425 9.59219C5.9175 9.52469 5.9925 9.47217 6.09 9.43467C6.36 9.32217 6.6975 9.38219 6.9075 9.59219C7.0425 9.73469 7.125 9.92968 7.125 10.1247C7.125 10.1697 7.1175 10.2222 7.11 10.2747C7.1025 10.3197 7.0875 10.3647 7.065 10.4097C7.05 10.4547 7.0275 10.4997 6.9975 10.5447C6.975 10.5822 6.9375 10.6197 6.9075 10.6572C6.765 10.7922 6.57 10.8747 6.375 10.8747Z" fill="#4DDBDF"/>
<path d="M9.00098 10.8762C8.90348 10.8762 8.80598 10.8537 8.71598 10.8162C8.61848 10.7787 8.54348 10.7262 8.46848 10.6587C8.33348 10.5162 8.25098 10.3287 8.25098 10.1262C8.25098 10.0287 8.27348 9.93118 8.31098 9.84118C8.34848 9.75118 8.40098 9.66869 8.46848 9.59369C8.54348 9.52619 8.61848 9.47368 8.71598 9.43618C8.98598 9.31618 9.32348 9.38369 9.53348 9.59369C9.66848 9.73619 9.75098 9.93119 9.75098 10.1262C9.75098 10.1712 9.74348 10.2237 9.73598 10.2762C9.72848 10.3212 9.71348 10.3662 9.69098 10.4112C9.67598 10.4562 9.65348 10.5012 9.62348 10.5462C9.60098 10.5837 9.56348 10.6212 9.53348 10.6587C9.39098 10.7937 9.19598 10.8762 9.00098 10.8762Z" fill="#4DDBDF"/>
<path d="M11.624 10.8762C11.5265 10.8762 11.429 10.8537 11.339 10.8162C11.2415 10.7787 11.1665 10.7262 11.0915 10.6587C11.0615 10.6212 11.0315 10.5837 11.0015 10.5462C10.9715 10.5012 10.949 10.4562 10.934 10.4112C10.9115 10.3662 10.8965 10.3212 10.889 10.2762C10.8815 10.2237 10.874 10.1712 10.874 10.1262C10.874 9.93119 10.9565 9.73619 11.0915 9.59369C11.1665 9.52619 11.2415 9.47368 11.339 9.43618C11.6165 9.31618 11.9465 9.38369 12.1565 9.59369C12.2915 9.73619 12.374 9.93119 12.374 10.1262C12.374 10.1712 12.3665 10.2237 12.359 10.2762C12.3515 10.3212 12.3365 10.3662 12.314 10.4112C12.299 10.4562 12.2765 10.5012 12.2465 10.5462C12.224 10.5837 12.1865 10.6212 12.1565 10.6587C12.014 10.7937 11.819 10.8762 11.624 10.8762Z" fill="#4DDBDF"/>
<path d="M6.375 13.5C6.2775 13.5 6.18 13.4775 6.09 13.44C6 13.4025 5.9175 13.35 5.8425 13.2825C5.7075 13.14 5.625 12.945 5.625 12.75C5.625 12.6525 5.6475 12.555 5.685 12.465C5.7225 12.3675 5.775 12.285 5.8425 12.2175C6.12 11.94 6.63 11.94 6.9075 12.2175C7.0425 12.36 7.125 12.555 7.125 12.75C7.125 12.945 7.0425 13.14 6.9075 13.2825C6.765 13.4175 6.57 13.5 6.375 13.5Z" fill="#4DDBDF"/>
<path d="M9.00098 13.5C8.80598 13.5 8.61098 13.4175 8.46848 13.2825C8.33348 13.14 8.25098 12.945 8.25098 12.75C8.25098 12.6525 8.27348 12.555 8.31098 12.465C8.34848 12.3675 8.40098 12.285 8.46848 12.2175C8.74598 11.94 9.25598 11.94 9.53348 12.2175C9.60098 12.285 9.65348 12.3675 9.69098 12.465C9.72848 12.555 9.75098 12.6525 9.75098 12.75C9.75098 12.945 9.66848 13.14 9.53348 13.2825C9.39098 13.4175 9.19598 13.5 9.00098 13.5Z" fill="#4DDBDF"/>
<path d="M11.624 13.5012C11.429 13.5012 11.234 13.4187 11.0915 13.2837C11.024 13.2162 10.9715 13.1337 10.934 13.0362C10.8965 12.9462 10.874 12.8487 10.874 12.7512C10.874 12.6537 10.8965 12.5562 10.934 12.4662C10.9715 12.3687 11.024 12.2862 11.0915 12.2187C11.264 12.0462 11.5265 11.9637 11.7665 12.0162C11.819 12.0237 11.864 12.0387 11.909 12.0612C11.954 12.0762 11.999 12.0987 12.044 12.1287C12.0815 12.1512 12.119 12.1887 12.1565 12.2187C12.2915 12.3612 12.374 12.5562 12.374 12.7512C12.374 12.9462 12.2915 13.1412 12.1565 13.2837C12.014 13.4187 11.819 13.5012 11.624 13.5012Z" fill="#4DDBDF"/>
<path d="M15.376 7.37933H2.62598C2.31848 7.37933 2.06348 7.12433 2.06348 6.81683C2.06348 6.50933 2.31848 6.25433 2.62598 6.25433H15.376C15.6835 6.25433 15.9385 6.50933 15.9385 6.81683C15.9385 7.12433 15.6835 7.37933 15.376 7.37933Z" fill="#4DDBDF"/>
<path d="M12 17.0619H6C3.2625 17.0619 1.6875 15.4869 1.6875 12.7494V6.37445C1.6875 3.63695 3.2625 2.06195 6 2.06195H12C14.7375 2.06195 16.3125 3.63695 16.3125 6.37445V12.7494C16.3125 15.4869 14.7375 17.0619 12 17.0619ZM6 3.18695C3.855 3.18695 2.8125 4.22945 2.8125 6.37445V12.7494C2.8125 14.8944 3.855 15.9369 6 15.9369H12C14.145 15.9369 15.1875 14.8944 15.1875 12.7494V6.37445C15.1875 4.22945 14.145 3.18695 12 3.18695H6Z" fill="#4DDBDF"/>
</svg>
