<svg width="18" height="18" viewBox="0 0 18 18" fill="none" xmlns="http://www.w3.org/2000/svg">
<path d="M6.50391 10.7473C6.50391 11.7148 7.24641 12.4948 8.16891 12.4948H10.0514C10.8539 12.4948 11.5064 11.8123 11.5064 10.9723C11.5064 10.0573 11.1089 9.73482 10.5164 9.52482L7.49391 8.47482C6.90141 8.26482 6.50391 7.94232 6.50391 7.02732C6.50391 6.18732 7.15641 5.50482 7.95891 5.50482H9.84141C10.7639 5.50482 11.5064 6.28482 11.5064 7.25232" stroke="#4DDBDF" stroke-width="1.5" stroke-linecap="round" stroke-linejoin="round"/>
<path d="M9 4.5V13.5" stroke="#4DDBDF" stroke-width="1.5" stroke-linecap="round" stroke-linejoin="round"/>
<path d="M11.25 16.5001H6.75C3 16.5001 1.5 15.0001 1.5 11.2501V6.75006C1.5 3.00006 3 1.50006 6.75 1.50006H11.25C15 1.50006 16.5 3.00006 16.5 6.75006V11.2501C16.5 15.0001 15 16.5001 11.25 16.5001Z" stroke="#4DDBDF" stroke-width="1.5" stroke-linecap="round" stroke-linejoin="round"/>
</svg>
