<svg width="76" height="31" viewBox="0 0 76 31" fill="none" xmlns="http://www.w3.org/2000/svg">
<rect width="76" height="31" rx="6" fill="black" fill-opacity="0.48"/>
<path d="M20.3183 6.85467C20.902 7.08697 21.3147 7.50569 21.6846 8.11956L21.8065 8.33142L22.2587 9.19857L22.2736 9.22279L22.2871 9.24387L22.3255 9.29637C22.5316 9.52088 22.8764 9.6565 23.104 9.6565C25.1887 9.6565 26.8915 11.2938 26.9959 13.352L27.001 13.5525V19.3475C27.001 22.0195 24.8908 24.2 22.2465 24.3129L22.031 24.3175H11.971C9.29832 24.3175 7.11845 22.2076 7.00557 19.5631L7.00098 19.3475V13.5525C7.00098 11.4011 8.74595 9.6565 10.898 9.6565C11.1248 9.6565 11.4701 9.52068 11.6764 9.29637L11.6835 9.28799L11.6924 9.27634L11.7439 9.19745L12.1948 8.3317C12.5967 7.60118 13.034 7.11283 13.6829 6.85457C14.8719 6.38179 19.1303 6.38179 20.3183 6.85467ZM14.2373 8.24833C14.0159 8.33645 13.8155 8.54041 13.6016 8.89401L13.509 9.0548L13.1241 9.7989L13.0294 9.97033C12.9503 10.1019 12.8712 10.2129 12.7809 10.3113C12.3205 10.8117 11.6594 11.1008 11.0718 11.1492L10.898 11.1565L10.7339 11.162C9.54095 11.2427 8.58719 12.1962 8.50651 13.3885L8.50098 13.5525V19.3475C8.50098 21.1998 9.95272 22.7135 11.7806 22.8124L11.971 22.8175H22.031C23.8829 22.8175 25.397 21.3652 25.4958 19.5378L25.501 19.3475V13.5525C25.501 12.2847 24.5152 11.2464 23.2681 11.162L23.104 11.1565L22.9299 11.1492C22.3413 11.1008 21.6803 10.8117 21.2204 10.3106C21.1313 10.2135 21.0526 10.1033 20.974 9.97287L20.9551 9.94054L20.9326 9.90039L20.8165 9.68264L20.4926 9.05508C20.2739 8.65797 20.0736 8.41528 19.8574 8.29331L19.7636 8.24833L19.6443 8.20867C18.6151 7.91778 15.0354 7.931 14.2373 8.24833ZM17.0007 12.6992C19.1709 12.6992 20.9297 14.458 20.9297 16.6282C20.9297 18.7984 19.1709 20.5572 17.0007 20.5572C14.8305 20.5572 13.0717 18.7984 13.0717 16.6282C13.0717 14.458 14.8305 12.6992 17.0007 12.6992ZM17.0007 14.1992C15.6589 14.1992 14.5717 15.2864 14.5717 16.6282C14.5717 17.97 15.6589 19.0572 17.0007 19.0572C18.3425 19.0572 19.4297 17.97 19.4297 16.6282C19.4297 15.2864 18.3425 14.1992 17.0007 14.1992ZM22.5053 12.0002C23.0576 12.0002 23.5053 12.4479 23.5053 13.0002C23.5053 13.513 23.1192 13.9357 22.6219 13.9935L22.5053 14.0002C21.944 14.0002 21.4963 13.5525 21.4963 13.0002C21.4963 12.4874 21.8823 12.0647 22.3797 12.0069L22.5053 12.0002Z" fill="white"/>
<path d="M37.1882 9.59091V20.5H35.5369V11.2422H35.473L32.8629 12.9467V11.37L35.5849 9.59091H37.1882ZM44.3153 9.07954L40.7997 22.1406H39.3775L42.8931 9.07954H44.3153ZM49.7859 9.59091V20.5H48.1346V11.2422H48.0707L45.4606 12.9467V11.37L48.1825 9.59091H49.7859ZM56.4229 20.6491C55.6594 20.6491 54.9847 20.5178 54.3988 20.255C53.8164 19.9922 53.3601 19.63 53.0298 19.1683C52.6996 18.7067 52.5362 18.1811 52.5398 17.5916C52.5362 17.13 52.6303 16.7056 52.8221 16.3185C53.0174 15.9279 53.282 15.603 53.6158 15.3438C53.9496 15.081 54.3224 14.9141 54.7344 14.843V14.7791C54.1911 14.6477 53.756 14.3565 53.4293 13.9055C53.1026 13.4545 52.9411 12.9361 52.9446 12.3501C52.9411 11.7926 53.0884 11.2955 53.3867 10.8587C53.6886 10.4183 54.1023 10.0721 54.6278 9.81996C55.1534 9.56783 55.7518 9.44176 56.4229 9.44176C57.087 9.44176 57.68 9.5696 58.2021 9.82528C58.7276 10.0774 59.1413 10.4237 59.4432 10.864C59.745 11.3008 59.8977 11.7962 59.9013 12.3501C59.8977 12.9361 59.7308 13.4545 59.4006 13.9055C59.0703 14.3565 58.6406 14.6477 58.1115 14.7791V14.843C58.5199 14.9141 58.8874 15.081 59.2141 15.3438C59.5444 15.603 59.8072 15.9279 60.0025 16.3185C60.2013 16.7056 60.3026 17.13 60.3061 17.5916C60.3026 18.1811 60.1357 18.7067 59.8054 19.1683C59.4751 19.63 59.017 19.9922 58.4311 20.255C57.8487 20.5178 57.1793 20.6491 56.4229 20.6491ZM56.4229 19.3015C56.8739 19.3015 57.2646 19.2269 57.5948 19.0778C57.9251 18.9251 58.1808 18.7138 58.3619 18.4439C58.543 18.1705 58.6353 17.8509 58.6388 17.4851C58.6353 17.1051 58.5359 16.7695 58.3406 16.4783C58.1488 16.1871 57.8878 15.9581 57.5575 15.7912C57.2273 15.6243 56.8491 15.5408 56.4229 15.5408C55.9933 15.5408 55.6115 15.6243 55.2777 15.7912C54.9439 15.9581 54.6811 16.1871 54.4893 16.4783C54.2976 16.7695 54.2035 17.1051 54.207 17.4851C54.2035 17.8509 54.2905 18.1705 54.468 18.4439C54.6491 18.7138 54.9066 18.9251 55.2404 19.0778C55.5742 19.2269 55.9684 19.3015 56.4229 19.3015ZM56.4229 14.2251C56.7852 14.2251 57.1065 14.1523 57.3871 14.0067C57.6676 13.8612 57.8878 13.6587 58.0476 13.3995C58.2109 13.1403 58.2944 12.8366 58.2979 12.4886C58.2944 12.1477 58.2127 11.8494 58.0529 11.5938C57.8967 11.3381 57.6783 11.141 57.3977 11.0025C57.1172 10.8604 56.7923 10.7894 56.4229 10.7894C56.0465 10.7894 55.7163 10.8604 55.4322 11.0025C55.1516 11.141 54.9332 11.3381 54.777 11.5938C54.6207 11.8494 54.5444 12.1477 54.5479 12.4886C54.5444 12.8366 54.6225 13.1403 54.7823 13.3995C54.9421 13.6587 55.1623 13.8612 55.4428 14.0067C55.7269 14.1523 56.0536 14.2251 56.4229 14.2251Z" fill="white"/>
</svg>
