<svg width="75" height="26" viewBox="0 0 75 26" fill="none" xmlns="http://www.w3.org/2000/svg">
<rect width="75" height="26" rx="13" fill="#4DDBDF" fill-opacity="0.2"/>
<path d="M20.1023 10.9091C20.1023 12.0062 19.8968 12.9458 19.4858 13.728C19.0781 14.5069 18.5213 15.1035 17.8153 15.5178C17.1127 15.9321 16.3156 16.1392 15.424 16.1392C14.5324 16.1392 13.7337 15.9321 13.0277 15.5178C12.325 15.1001 11.7682 14.5019 11.3572 13.723C10.9496 12.9408 10.7457 12.0028 10.7457 10.9091C10.7457 9.81203 10.9496 8.87405 11.3572 8.09517C11.7682 7.31297 12.325 6.71473 13.0277 6.30043C13.7337 5.88613 14.5324 5.67898 15.424 5.67898C16.3156 5.67898 17.1127 5.88613 17.8153 6.30043C18.5213 6.71473 19.0781 7.31297 19.4858 8.09517C19.8968 8.87405 20.1023 9.81203 20.1023 10.9091ZM18.2479 10.9091C18.2479 10.1368 18.1269 9.48556 17.8849 8.95526C17.6463 8.42164 17.3149 8.01894 16.8906 7.74716C16.4664 7.47206 15.9775 7.33452 15.424 7.33452C14.8705 7.33452 14.3816 7.47206 13.9574 7.74716C13.5331 8.01894 13.2 8.42164 12.9581 8.95526C12.7195 9.48556 12.6001 10.1368 12.6001 10.9091C12.6001 11.6813 12.7195 12.3343 12.9581 12.8679C13.2 13.3982 13.5331 13.8009 13.9574 14.076C14.3816 14.3478 14.8705 14.4837 15.424 14.4837C15.9775 14.4837 16.4664 14.3478 16.8906 14.076C17.3149 13.8009 17.6463 13.3982 17.8849 12.8679C18.1269 12.3343 18.2479 11.6813 18.2479 10.9091ZM23.3425 16L21.1848 8.36364H23.0194L24.3617 13.733H24.4313L25.8034 8.36364H27.6181L28.9902 13.7031H29.0648L30.3873 8.36364H32.2267L30.0641 16H28.1898L26.758 10.8395H26.6536L25.2218 16H23.3425ZM35.283 11.5256V16H33.4833V8.36364H35.2035V9.66122H35.293C35.4686 9.23366 35.7487 8.89394 36.1332 8.64205C36.521 8.39015 36.9999 8.2642 37.57 8.2642C38.0969 8.2642 38.556 8.37689 38.9471 8.60227C39.3415 8.82765 39.6464 9.15412 39.8619 9.58168C40.0806 10.0092 40.1883 10.5279 40.185 11.1378V16H38.3853V11.4162C38.3853 10.9058 38.2527 10.5064 37.9876 10.218C37.7257 9.92969 37.3628 9.78551 36.8988 9.78551C36.5839 9.78551 36.3039 9.85511 36.0586 9.99432C35.8166 10.1302 35.6261 10.3274 35.4869 10.5859C35.351 10.8445 35.283 11.1577 35.283 11.5256ZM45.3952 16.1491C44.6296 16.1491 43.9684 15.9901 43.4116 15.6719C42.8581 15.3504 42.4322 14.8963 42.1339 14.3097C41.8356 13.7197 41.6864 13.0253 41.6864 12.2266C41.6864 11.4411 41.8356 10.7517 42.1339 10.1584C42.4355 9.56179 42.8564 9.09777 43.3967 8.76633C43.9369 8.43158 44.5716 8.2642 45.3008 8.2642C45.7714 8.2642 46.2156 8.34044 46.6332 8.4929C47.0541 8.64205 47.4253 8.87405 47.7468 9.18892C48.0716 9.50379 48.3268 9.90483 48.5124 10.392C48.698 10.8759 48.7908 11.4527 48.7908 12.1222V12.674H42.5316V11.4609H47.0657C47.0624 11.1162 46.9878 10.8097 46.842 10.5412C46.6961 10.2694 46.4923 10.0556 46.2305 9.89986C45.9719 9.74408 45.6703 9.66619 45.3256 9.66619C44.9577 9.66619 44.6346 9.75568 44.3562 9.93466C44.0778 10.1103 43.8607 10.3423 43.7049 10.6307C43.5524 10.9157 43.4746 11.2289 43.4712 11.5703V12.6293C43.4712 13.0734 43.5524 13.4545 43.7148 13.7727C43.8772 14.0876 44.1043 14.3295 44.396 14.4986C44.6876 14.6643 45.029 14.7472 45.4201 14.7472C45.6819 14.7472 45.9189 14.7107 46.131 14.6378C46.3432 14.5616 46.5271 14.4505 46.6829 14.3047C46.8387 14.1589 46.9563 13.9782 47.0359 13.7628L48.7163 13.9517C48.6102 14.3958 48.408 14.7836 48.1097 15.1151C47.8147 15.4432 47.4369 15.6984 46.9762 15.8807C46.5155 16.0597 45.9885 16.1491 45.3952 16.1491ZM50.3134 16V8.36364H52.0584V9.63636H52.138C52.2772 9.19555 52.5158 8.85582 52.8539 8.61719C53.1953 8.37524 53.5847 8.25426 54.0222 8.25426C54.1216 8.25426 54.2327 8.25923 54.3553 8.26918C54.4812 8.2758 54.5856 8.2874 54.6685 8.30398V9.95952C54.5923 9.933 54.4713 9.9098 54.3056 9.88991C54.1432 9.86671 53.9857 9.85511 53.8333 9.85511C53.5051 9.85511 53.2102 9.92637 52.9483 10.0689C52.6898 10.2081 52.486 10.402 52.3368 10.6506C52.1877 10.8991 52.1131 11.1858 52.1131 11.5107V16H50.3134Z" fill="#4DDBDF"/>
</svg>
