<svg width="48" height="48" viewBox="0 0 48 48" fill="none" xmlns="http://www.w3.org/2000/svg">
<circle cx="24" cy="24" r="24" fill="#4DDBDF" fill-opacity="0.1"/>
<path d="M19.5183 25.7146C15.5442 26.5726 12.764 28.5349 12.764 30.8202C12.764 33.8922 17.7946 36.3845 23.9993 36.3845C30.2032 36.3845 35.2339 33.8925 35.2339 30.8202C35.2339 28.5568 32.5066 26.6085 28.5935 25.7392C28.1078 25.6319 28.8132 24.751 29.3855 24.8697C34.4432 25.915 38 28.3901 38 31.2777C38 35.1121 31.7319 38.2201 23.9994 38.2201C16.2681 38.2201 10 35.1119 10 31.2777C10 28.3425 13.6741 25.8349 18.8652 24.8183C19.3743 24.7189 20.0024 25.6102 19.519 25.7149L19.5183 25.7146Z" fill="#4DDBDF"/>
<path d="M20.5803 27.5042C19.2652 27.9485 18.4151 28.6591 18.4151 29.4641C18.4151 30.8129 20.8129 31.9071 23.7745 31.9071C26.7357 31.9071 29.1345 30.8129 29.1345 29.4641C29.1345 28.827 28.5996 28.2484 27.7237 27.8144C27.3477 27.6283 27.893 26.5561 28.4227 26.7588C30.1901 27.437 31.3335 28.5106 31.3335 29.7197C31.3335 31.7725 28.0496 33.4366 23.9993 33.4366C19.9473 33.4366 16.6633 31.7725 16.6633 29.7197C16.6633 28.3852 18.0534 27.2173 20.1386 26.5634C20.5881 26.4229 20.9575 27.3762 20.5803 27.5041L20.5803 27.5042Z" fill="#4DDBDF"/>
<path d="M23.9472 10C25.438 10.0026 26.6977 11.2609 26.7041 12.7531C26.7119 14.2542 25.4614 15.483 23.9458 15.4659C22.3806 15.4479 21.2334 14.2826 21.2438 12.7218C21.2519 11.2247 22.4714 9.99861 23.9472 10ZM23.8491 14.3344C24.738 14.346 25.4704 13.6252 25.4666 12.7441C25.4626 11.8696 24.725 11.1332 23.8503 11.1318C22.9834 11.1306 22.2697 11.8488 22.2645 12.7272C22.2595 13.6405 22.9314 14.3239 23.8492 14.3343L23.8491 14.3344Z" fill="#4DDBDF"/>
<path d="M20.5182 18.2424C20.5335 17.4078 20.9057 16.7644 21.6939 16.4776C23.1414 15.9542 24.6194 15.9583 26.0676 16.4686C26.8517 16.7438 27.2561 17.3703 27.2587 18.2166C27.2639 19.4555 27.2651 20.6984 27.2497 21.9373C27.2419 22.7137 26.9707 23.4023 26.5339 24.0443C26.3298 24.344 26.1411 24.6878 26.0725 25.039C25.8491 26.1783 25.6696 27.3283 25.4757 28.4755C25.8283 28.681 26.0505 28.951 26.0505 29.2507C26.0505 29.8861 25.0725 30.4045 23.8672 30.4045C22.66 30.4045 21.6805 29.8863 21.6805 29.2507C21.6805 28.938 21.9184 28.6538 22.3031 28.4459C22.1766 27.6514 22.0655 26.8542 21.908 26.0663C21.7786 25.4269 21.6029 24.7898 21.3757 24.1787C21.1742 23.6322 20.7556 23.1491 20.6471 22.5948C20.487 21.7744 20.5078 18.8535 20.5182 18.2424L20.5182 18.2424ZM22.3835 23.9228C22.6497 24.3529 22.9285 28.2803 23.8659 28.2803C24.8012 28.2803 25.1254 24.1682 25.3089 23.9537C26.4354 22.6424 26.1822 18.2007 25.5737 17.9876C24.4509 17.5922 23.3038 17.5896 22.1791 17.9954C21.5698 18.2177 21.4378 22.3996 22.3835 23.9227V23.9228Z" fill="#4DDBDF"/>
</svg>
