<svg width="185" height="144" viewBox="0 0 185 144" fill="none" xmlns="http://www.w3.org/2000/svg">
<path fill-rule="evenodd" clip-rule="evenodd" d="M88.7684 0C87.1435 0 85.8262 1.31771 85.8262 2.94317C85.8262 4.56863 87.1435 5.88634 88.7684 5.88634H95.2987C96.884 5.88634 98.1691 7.17188 98.1691 8.75773C98.1691 10.3436 96.884 11.6291 95.2987 11.6291H56.476C54.851 11.6291 53.5337 12.9468 53.5337 14.5723C53.5337 16.1977 54.851 17.5155 56.476 17.5155H59.5617C61.147 17.5155 62.4321 18.801 62.4321 20.3868C62.4321 21.5234 61.772 22.5057 60.8144 22.9711H44.2766C42.6516 22.9711 41.3344 24.2888 41.3344 25.9143C41.3344 27.5397 42.6516 28.8574 44.2766 28.8574H46.5012C48.0865 28.8574 49.3716 30.143 49.3716 31.7288C49.3716 32.8654 48.7115 33.8477 47.7539 34.3131H35.8088C34.1838 34.3131 32.8666 35.6308 32.8666 37.2562C32.8666 38.8817 34.1838 40.1994 35.8088 40.1994H43.6307C45.216 40.1994 46.5012 41.4849 46.5012 43.0708C46.5012 44.6566 45.216 45.9422 43.6307 45.9422H26.3363C24.7114 45.9422 23.3941 47.2599 23.3941 48.8853C23.3941 50.5108 24.7114 51.8285 26.3363 51.8285H36.1676C37.7529 51.8285 39.038 53.114 39.038 54.6999C39.038 56.2858 37.7529 57.5713 36.1676 57.5713H20.5954C18.9705 57.5713 17.6532 58.889 17.6532 60.5145C17.6532 62.1399 18.9705 63.4576 20.5954 63.4576H23.5376C25.1229 63.4576 26.4081 64.7432 26.4081 66.329C26.4081 67.9149 25.1229 69.2004 23.5376 69.2004H8.97013C7.34521 69.2004 6.02793 70.5181 6.02793 72.1436C6.02793 73.769 7.34521 75.0867 8.97013 75.0867H31.1443C32.7296 75.0867 34.0147 76.308 34.0147 77.8146C34.0147 79.3211 32.7296 80.5424 31.1443 80.5424H18.8732C17.2482 80.5424 15.931 81.8601 15.931 83.4855C15.931 85.111 17.2482 86.4287 18.8732 86.4287H27.9868C29.5721 86.4287 30.8573 87.65 30.8573 89.1565C30.8573 90.6631 29.5721 91.8843 27.9868 91.8843H15.2851C13.6602 91.8843 12.3429 93.2021 12.3429 94.8275C12.3429 96.453 13.6602 97.7707 15.2851 97.7707H43.9178C45.5031 97.7707 46.7882 99.0241 46.7882 100.57C46.7882 102.116 45.5031 103.37 43.9178 103.37H38.2486C36.6237 103.37 35.3064 104.688 35.3064 106.313C35.3064 107.939 36.6237 109.256 38.2486 109.256H58.27C59.8553 109.256 61.1404 110.542 61.1404 112.128C61.1404 113.713 59.8553 114.999 58.27 114.999H42.9849C41.3599 114.999 40.0427 116.317 40.0427 117.942C40.0427 119.568 41.3599 120.885 42.9849 120.885H64.0109C65.5962 120.885 66.8813 122.107 66.8813 123.613C66.8813 125.12 65.5962 126.341 64.0109 126.341H58.1982C56.5733 126.341 55.256 127.659 55.256 129.284C55.256 130.91 56.5733 132.227 58.1982 132.227H77.5019C79.0872 132.227 80.3724 133.449 80.3724 134.955C80.3724 136.462 79.0872 137.683 77.5019 137.683H77.6455C75.9016 137.683 74.488 139.097 74.488 140.841C74.488 142.586 75.9016 144 77.6455 144H100.609C102.353 144 103.766 142.586 103.766 140.841C103.766 139.097 102.353 137.683 100.609 137.683H90.1319C88.5466 137.683 87.2614 136.462 87.2614 134.955C87.2614 133.449 88.5466 132.227 90.1319 132.227H139.001C140.626 132.227 141.943 130.91 141.943 129.284C141.943 127.659 140.626 126.341 139.001 126.341H115.392C113.806 126.341 112.521 125.12 112.521 123.613C112.521 122.107 113.806 120.885 115.392 120.885H156.941C158.566 120.885 159.884 119.568 159.884 117.942C159.884 116.317 158.566 114.999 156.941 114.999H138.355C136.77 114.999 135.485 113.713 135.485 112.128C135.485 110.542 136.77 109.256 138.355 109.256H152.636C154.261 109.256 155.578 107.939 155.578 106.313C155.578 104.688 154.261 103.37 152.636 103.37H145.818C144.233 103.37 142.948 102.116 142.948 100.57C142.948 99.0241 144.233 97.7707 145.818 97.7707H161.678C163.303 97.7707 164.62 96.453 164.62 94.8275C164.62 93.2021 163.303 91.8843 161.678 91.8843H153.425C151.84 91.8843 150.555 90.6631 150.555 89.1565C150.555 87.65 151.84 86.4287 153.425 86.4287H176.173C177.798 86.4287 179.116 85.111 179.116 83.4855C179.116 81.8601 177.798 80.5424 176.173 80.5424H162.324C160.738 80.5424 159.453 79.3211 159.453 77.8146C159.453 76.308 160.738 75.0867 162.324 75.0867H172.155C173.78 75.0867 175.097 73.769 175.097 72.1436C175.097 70.5181 173.78 69.2004 172.155 69.2004H158.879C157.294 69.2004 156.009 67.9149 156.009 66.329C156.009 64.7432 157.294 63.4576 158.879 63.4576H172.155C173.78 63.4576 175.097 62.1399 175.097 60.5145C175.097 58.889 173.78 57.5713 172.155 57.5713H152.995C151.409 57.5713 150.124 56.2858 150.124 54.6999C150.124 53.114 151.409 51.8285 152.995 51.8285H162.252C163.877 51.8285 165.194 50.5108 165.194 48.8853C165.194 47.2599 163.877 45.9422 162.252 45.9422H144.24C142.654 45.9422 141.369 44.6566 141.369 43.0708C141.369 41.4849 142.654 40.1994 144.24 40.1994H156.511C158.136 40.1994 159.453 38.8817 159.453 37.2562C159.453 35.6308 158.136 34.3131 156.511 34.3131H128.204C127.247 33.8477 126.587 32.8654 126.587 31.7288C126.587 30.143 127.872 28.8574 129.457 28.8574H141.298C142.922 28.8574 144.24 27.5397 144.24 25.9143C144.24 24.2888 142.922 22.9711 141.298 22.9711H111.986C111.029 22.5057 110.369 21.5234 110.369 20.3868C110.369 18.801 111.654 17.5155 113.239 17.5155H115.751C117.376 17.5155 118.693 16.1977 118.693 14.5723C118.693 12.9468 117.376 11.6291 115.751 11.6291H106.063C104.478 11.6291 103.192 10.3436 103.192 8.75773C103.192 7.17188 104.478 5.88634 106.063 5.88634H106.565C108.19 5.88634 109.507 4.56863 109.507 2.94317C109.507 1.31771 108.19 0 106.565 0H88.7684ZM123.142 11.4855C121.557 11.4855 120.272 12.7711 120.272 14.3569C120.272 15.9428 121.557 17.2283 123.142 17.2283H125.438C127.024 17.2283 128.309 15.9428 128.309 14.3569C128.309 12.7711 127.024 11.4855 125.438 11.4855H123.142ZM29.5656 25.8425C29.5656 24.2566 30.8507 22.9711 32.436 22.9711H34.7324C36.3176 22.9711 37.6028 24.2566 37.6028 25.8425C37.6028 27.4283 36.3176 28.7139 34.7324 28.7139H32.436C30.8507 28.7139 29.5656 27.4283 29.5656 25.8425ZM11.1947 57.5713C9.60943 57.5713 8.32428 58.8568 8.32428 60.4427C8.32428 62.0285 9.60943 63.3141 11.1947 63.3141H13.4911C15.0764 63.3141 16.3615 62.0285 16.3615 60.4427C16.3615 58.8568 15.0764 57.5713 13.4911 57.5713H11.1947ZM0 83.5573C0 81.9715 1.28515 80.6859 2.87044 80.6859H9.61598C11.2013 80.6859 12.4864 81.9715 12.4864 83.5573C12.4864 85.1432 11.2013 86.4287 9.61598 86.4287H2.87044C1.28515 86.4287 0 85.1432 0 83.5573ZM22.533 103.657C20.9477 103.657 19.6625 104.943 19.6625 106.528C19.6625 108.114 20.9477 109.4 22.533 109.4H26.6951C28.2804 109.4 29.5656 108.114 29.5656 106.528C29.5656 104.943 28.2804 103.657 26.6951 103.657H22.533ZM28.8479 118.014C28.8479 116.428 30.1331 115.143 31.7184 115.143H33.8712C35.4565 115.143 36.7417 116.428 36.7417 118.014C36.7417 119.6 35.4565 120.885 33.8712 120.885H31.7184C30.1331 120.885 28.8479 119.6 28.8479 118.014ZM180.694 69.0568C179.109 69.0568 177.824 70.3424 177.824 71.9282C177.824 73.5141 179.109 74.7996 180.694 74.7996H182.13C183.715 74.7996 185 73.5141 185 71.9282C185 70.3424 183.715 69.0568 182.13 69.0568H180.694Z" fill="#4DDBDF" fill-opacity="0.1"/>
<path d="M84.7238 46.2558C84.8806 46.1643 85.0593 46.0903 85.2633 46.0407C87.3487 45.53 89.1368 44.6671 89.1497 44.6613C89.3207 44.3818 89.4094 43.9781 89.4541 43.6902C88.9224 42.9967 88.675 42.164 88.5649 41.4505C88.3693 41.435 88.1102 41.1581 87.8324 40.1703C87.4516 38.8186 87.8557 38.6183 88.1983 38.6505C87.9464 37.9409 87.9418 37.2415 88.1102 36.5956C88.2877 35.8351 88.6963 35.2259 89.1549 34.7538C89.4443 34.4434 89.7733 34.1723 90.1211 33.9508C90.4041 33.7531 90.7182 33.5831 91.0595 33.4672C91.327 33.377 91.612 33.3178 91.9125 33.3036C92.8438 33.2225 93.549 33.4569 94.0555 33.7589C94.812 34.1788 95.0989 34.7339 95.0989 34.7339C95.0989 34.7339 97.0022 34.8684 96.1694 38.881C96.4258 38.9705 96.6059 39.3234 96.3093 40.3782C95.9447 41.6764 95.6118 41.7473 95.4123 41.6107C95.2951 42.2747 95.0548 43.0185 94.582 43.6541C94.6293 43.9735 94.7336 44.461 94.9505 44.7489C94.9505 44.7489 96.6869 45.53 98.7787 46.042C98.9827 46.0916 99.1615 46.1656 99.3182 46.2571C97.7406 48.5908 95.0606 50.1274 92.0195 50.1274C88.9815 50.1255 86.3016 48.5902 84.7239 46.2559L84.7238 46.2558ZM71.6727 72.6657C71.3949 72.2973 71.2621 71.674 71.2019 71.2663C71.8062 70.4549 72.1125 69.5032 72.2621 68.6544C72.5173 68.8289 72.9415 68.7374 73.4084 67.0786C73.7879 65.7308 73.5567 65.278 73.229 65.1648C74.2937 60.0356 71.8606 59.863 71.8606 59.863C71.8606 59.863 71.494 59.1534 70.5264 58.6156C69.8782 58.2299 68.9767 57.9298 67.7864 58.0328C67.401 58.0515 67.0371 58.1262 66.6958 58.2421H66.6951C66.258 58.3909 65.8564 58.6079 65.4944 58.861C65.0495 59.1443 64.6292 59.4914 64.2587 59.8875C63.672 60.4902 63.1493 61.2694 62.9227 62.2424C62.707 63.0686 62.7135 63.9612 63.0347 64.8699C62.5976 64.8281 62.0814 65.0844 62.5665 66.8121C62.922 68.0749 63.2523 68.4297 63.5036 68.4497C63.6435 69.3628 63.9602 70.4273 64.6402 71.3134C64.5825 71.6818 64.4686 72.1969 64.2509 72.555C64.2354 72.562 61.9486 73.6658 59.2829 74.3181C59.0213 74.3819 58.7933 74.4759 58.5932 74.5931C60.6099 77.5766 64.0365 79.5407 67.9242 79.5407C71.8113 79.5407 75.2372 77.5773 77.2553 74.5931C77.0558 74.4759 76.8272 74.3819 76.5655 74.3181C73.8915 73.6645 71.6726 72.6657 71.6726 72.6657L71.6727 72.6657ZM126 92.6017C126 104.42 116.365 114 104.48 114C92.5946 114.001 82.9583 104.42 82.9583 92.6017C82.9583 88.9775 83.8663 85.5632 85.4653 82.5719L79.825 78.8954C76.908 82.1546 72.6582 84.2076 67.926 84.2076C59.1311 84.2076 52 77.1175 52 68.3717C52 59.6266 59.1305 52.5358 67.926 52.5358C71.5061 52.5358 74.8102 53.711 77.47 55.6938L82.8895 49.8073C80.8274 47.5972 79.5658 44.6394 79.5658 41.3868C79.5658 34.5459 85.1433 29 92.0231 29C98.9028 29 104.48 34.5459 104.48 41.3868C104.48 48.2276 98.9028 53.7735 92.0231 53.7735C89.546 53.7735 87.2391 53.0517 85.2993 51.8121L79.784 57.8016C82.313 60.6042 83.8518 64.309 83.8518 68.371C83.8518 71.2882 83.0571 74.0211 81.6724 76.3685L87.1365 79.9291C91.0547 74.6364 97.3626 71.2014 104.478 71.2014C116.364 71.2027 125.998 80.783 125.998 92.6014L126 92.6017ZM81.6966 41.3892C81.6966 47.0595 86.3194 51.6566 92.0224 51.6566C97.7249 51.6566 102.348 47.06 102.348 41.3892C102.349 35.7179 97.7254 31.1212 92.0224 31.1212C86.3199 31.1212 81.6966 35.7179 81.6966 41.3892ZM81.1286 68.3728C81.1286 61.123 75.2184 55.2462 67.9273 55.2462C60.6362 55.2462 54.726 61.123 54.726 68.3728C54.7254 75.6227 60.6357 81.4995 67.9267 81.4995C75.2176 81.4995 81.1286 75.6227 81.1286 68.3728ZM122.318 92.6017C122.318 82.805 114.331 74.8616 104.477 74.8616C94.6249 74.8616 86.6363 82.8037 86.6363 92.6017C86.637 102.399 94.6256 110.34 104.477 110.34C114.329 110.34 122.317 102.399 122.317 92.6017H122.318ZM114.612 100.018C113.993 99.7812 113.578 99.6641 113.365 99.6067C113.337 99.5997 113.313 99.5926 113.292 99.5874C113.241 99.5732 113.209 99.5642 113.199 99.5597C113.143 99.5301 110.091 98.7335 108.691 97.9756C108.363 97.7663 108.155 97.6091 108.155 97.6091L108.029 96.5466C108.029 96.5466 112.057 96.6696 113.969 94.7281C113.969 94.7281 111.188 93.9444 111.687 88.9091C112.187 83.874 111.064 79.4532 106.993 79.8266C106.993 79.8266 105.229 77.7149 101.718 79.0429C100.512 79.4988 97.277 80.6509 97.4415 87.6282C97.606 94.6049 94.9474 94.6461 94.9474 94.6461C94.9474 94.6461 96.3178 96.6282 100.97 96.5877L100.95 97.2683C100.944 97.3411 100.939 97.4145 100.932 97.4873C100.928 97.5356 100.92 97.5832 100.911 97.6302C100.846 97.6785 100.664 97.8092 100.403 97.9754C99.0029 98.7327 95.95 99.53 95.8955 99.5596C95.8883 99.5634 95.8676 99.5699 95.8359 99.5783C95.6992 99.6162 95.3417 99.7045 94.7563 99.9163C94.6838 99.9421 94.6086 99.9711 94.5296 100C94.1339 100.149 93.6521 100.35 93.0821 100.616C92.6715 100.808 92.3497 101.05 92.0965 101.311C94.8185 105.174 99.3292 107.7 104.433 107.7C109.595 107.7 114.149 105.116 116.861 101.178C116.63 100.969 116.351 100.775 116.011 100.616C115.464 100.36 114.997 100.166 114.611 100.017L114.612 100.018Z" fill="#4DDBDF"/>
</svg>
