<svg width="18" height="18" viewBox="0 0 18 18" fill="none" xmlns="http://www.w3.org/2000/svg">
<path d="M4.3918 11.5914C5.82333 11.5914 6.9838 10.4309 6.9838 8.99942C6.9838 7.5679 5.82333 6.40742 4.3918 6.40742C2.96028 6.40742 1.7998 7.5679 1.7998 8.99942C1.7998 10.4309 2.96028 11.5914 4.3918 11.5914Z" stroke="white" stroke-width="2" stroke-linecap="round" stroke-linejoin="round"/>
<path d="M13.6076 16.2008C15.0391 16.2008 16.1996 15.0403 16.1996 13.6088C16.1996 12.1773 15.0391 11.0168 13.6076 11.0168C12.1761 11.0168 11.0156 12.1773 11.0156 13.6088C11.0156 15.0403 12.1761 16.2008 13.6076 16.2008Z" stroke="white" stroke-width="2" stroke-linecap="round" stroke-linejoin="round"/>
<path d="M13.6076 6.984C15.0391 6.984 16.1996 5.82352 16.1996 4.392C16.1996 2.96048 15.0391 1.8 13.6076 1.8C12.1761 1.8 11.0156 2.96048 11.0156 4.392C11.0156 5.82352 12.1761 6.984 13.6076 6.984Z" stroke="white" stroke-width="2" stroke-linecap="round" stroke-linejoin="round"/>
<path d="M6.69531 10.1521L11.3033 12.4561M6.69531 7.84814L11.3033 5.54414" stroke="white" stroke-width="2" stroke-linecap="round" stroke-linejoin="round"/>
</svg>
