<svg width="185" height="144" viewBox="0 0 185 144" fill="none" xmlns="http://www.w3.org/2000/svg">
<path fill-rule="evenodd" clip-rule="evenodd" d="M88.7684 0C87.1435 0 85.8262 1.31771 85.8262 2.94317C85.8262 4.56863 87.1435 5.88634 88.7684 5.88634H95.2987C96.884 5.88634 98.1691 7.17188 98.1691 8.75773C98.1691 10.3436 96.884 11.6291 95.2987 11.6291H56.476C54.851 11.6291 53.5337 12.9468 53.5337 14.5723C53.5337 16.1977 54.851 17.5155 56.476 17.5155H59.5617C61.147 17.5155 62.4321 18.801 62.4321 20.3868C62.4321 21.5234 61.772 22.5057 60.8144 22.9711H44.2766C42.6516 22.9711 41.3344 24.2888 41.3344 25.9143C41.3344 27.5397 42.6516 28.8574 44.2766 28.8574H46.5012C48.0865 28.8574 49.3716 30.143 49.3716 31.7288C49.3716 32.8654 48.7115 33.8477 47.7539 34.3131H35.8088C34.1838 34.3131 32.8666 35.6308 32.8666 37.2562C32.8666 38.8817 34.1838 40.1994 35.8088 40.1994H43.6307C45.216 40.1994 46.5012 41.4849 46.5012 43.0708C46.5012 44.6566 45.216 45.9422 43.6307 45.9422H26.3363C24.7114 45.9422 23.3941 47.2599 23.3941 48.8853C23.3941 50.5108 24.7114 51.8285 26.3363 51.8285H36.1676C37.7529 51.8285 39.038 53.114 39.038 54.6999C39.038 56.2858 37.7529 57.5713 36.1676 57.5713H20.5954C18.9705 57.5713 17.6532 58.889 17.6532 60.5145C17.6532 62.1399 18.9705 63.4576 20.5954 63.4576H23.5376C25.1229 63.4576 26.4081 64.7432 26.4081 66.329C26.4081 67.9149 25.1229 69.2004 23.5376 69.2004H8.97013C7.34521 69.2004 6.02793 70.5181 6.02793 72.1436C6.02793 73.769 7.34521 75.0867 8.97013 75.0867H31.1443C32.7296 75.0867 34.0147 76.308 34.0147 77.8146C34.0147 79.3211 32.7296 80.5424 31.1443 80.5424H18.8732C17.2482 80.5424 15.931 81.8601 15.931 83.4855C15.931 85.111 17.2482 86.4287 18.8732 86.4287H27.9868C29.5721 86.4287 30.8573 87.65 30.8573 89.1565C30.8573 90.6631 29.5721 91.8843 27.9868 91.8843H15.2851C13.6602 91.8843 12.3429 93.2021 12.3429 94.8275C12.3429 96.453 13.6602 97.7707 15.2851 97.7707H43.9178C45.5031 97.7707 46.7882 99.0241 46.7882 100.57C46.7882 102.116 45.5031 103.37 43.9178 103.37H38.2486C36.6237 103.37 35.3064 104.688 35.3064 106.313C35.3064 107.939 36.6237 109.256 38.2486 109.256H58.27C59.8553 109.256 61.1404 110.542 61.1404 112.128C61.1404 113.713 59.8553 114.999 58.27 114.999H42.9849C41.3599 114.999 40.0427 116.317 40.0427 117.942C40.0427 119.568 41.3599 120.885 42.9849 120.885H64.0109C65.5962 120.885 66.8813 122.107 66.8813 123.613C66.8813 125.12 65.5962 126.341 64.0109 126.341H58.1982C56.5733 126.341 55.256 127.659 55.256 129.284C55.256 130.91 56.5733 132.227 58.1982 132.227H77.5019C79.0872 132.227 80.3724 133.449 80.3724 134.955C80.3724 136.462 79.0872 137.683 77.5019 137.683H77.6455C75.9016 137.683 74.488 139.097 74.488 140.841C74.488 142.586 75.9016 144 77.6455 144H100.609C102.353 144 103.766 142.586 103.766 140.841C103.766 139.097 102.353 137.683 100.609 137.683H90.1319C88.5466 137.683 87.2614 136.462 87.2614 134.955C87.2614 133.449 88.5466 132.227 90.1319 132.227H139.001C140.626 132.227 141.943 130.91 141.943 129.284C141.943 127.659 140.626 126.341 139.001 126.341H115.392C113.806 126.341 112.521 125.12 112.521 123.613C112.521 122.107 113.806 120.885 115.392 120.885H156.941C158.566 120.885 159.884 119.568 159.884 117.942C159.884 116.317 158.566 114.999 156.941 114.999H138.355C136.77 114.999 135.485 113.713 135.485 112.128C135.485 110.542 136.77 109.256 138.355 109.256H152.636C154.261 109.256 155.578 107.939 155.578 106.313C155.578 104.688 154.261 103.37 152.636 103.37H145.818C144.233 103.37 142.948 102.116 142.948 100.57C142.948 99.0241 144.233 97.7707 145.818 97.7707H161.678C163.303 97.7707 164.62 96.453 164.62 94.8275C164.62 93.2021 163.303 91.8843 161.678 91.8843H153.425C151.84 91.8843 150.555 90.6631 150.555 89.1565C150.555 87.65 151.84 86.4287 153.425 86.4287H176.173C177.798 86.4287 179.116 85.111 179.116 83.4855C179.116 81.8601 177.798 80.5424 176.173 80.5424H162.324C160.738 80.5424 159.453 79.3211 159.453 77.8146C159.453 76.308 160.738 75.0867 162.324 75.0867H172.155C173.78 75.0867 175.097 73.769 175.097 72.1436C175.097 70.5181 173.78 69.2004 172.155 69.2004H158.879C157.294 69.2004 156.009 67.9149 156.009 66.329C156.009 64.7432 157.294 63.4576 158.879 63.4576H172.155C173.78 63.4576 175.097 62.1399 175.097 60.5145C175.097 58.889 173.78 57.5713 172.155 57.5713H152.995C151.409 57.5713 150.124 56.2858 150.124 54.6999C150.124 53.114 151.409 51.8285 152.995 51.8285H162.252C163.877 51.8285 165.194 50.5108 165.194 48.8853C165.194 47.2599 163.877 45.9422 162.252 45.9422H144.24C142.654 45.9422 141.369 44.6566 141.369 43.0708C141.369 41.4849 142.654 40.1994 144.24 40.1994H156.511C158.136 40.1994 159.453 38.8817 159.453 37.2562C159.453 35.6308 158.136 34.3131 156.511 34.3131H128.204C127.247 33.8477 126.587 32.8654 126.587 31.7288C126.587 30.143 127.872 28.8574 129.457 28.8574H141.298C142.922 28.8574 144.24 27.5397 144.24 25.9143C144.24 24.2888 142.922 22.9711 141.298 22.9711H111.986C111.029 22.5057 110.369 21.5234 110.369 20.3868C110.369 18.801 111.654 17.5155 113.239 17.5155H115.751C117.376 17.5155 118.693 16.1977 118.693 14.5723C118.693 12.9468 117.376 11.6291 115.751 11.6291H106.063C104.478 11.6291 103.192 10.3436 103.192 8.75773C103.192 7.17188 104.478 5.88634 106.063 5.88634H106.565C108.19 5.88634 109.507 4.56863 109.507 2.94317C109.507 1.31771 108.19 0 106.565 0H88.7684ZM123.142 11.4855C121.557 11.4855 120.272 12.7711 120.272 14.3569C120.272 15.9428 121.557 17.2283 123.142 17.2283H125.438C127.024 17.2283 128.309 15.9428 128.309 14.3569C128.309 12.7711 127.024 11.4855 125.438 11.4855H123.142ZM29.5656 25.8425C29.5656 24.2566 30.8507 22.9711 32.436 22.9711H34.7324C36.3176 22.9711 37.6028 24.2566 37.6028 25.8425C37.6028 27.4283 36.3176 28.7139 34.7324 28.7139H32.436C30.8507 28.7139 29.5656 27.4283 29.5656 25.8425ZM11.1947 57.5713C9.60943 57.5713 8.32428 58.8568 8.32428 60.4427C8.32428 62.0285 9.60943 63.3141 11.1947 63.3141H13.4911C15.0764 63.3141 16.3615 62.0285 16.3615 60.4427C16.3615 58.8568 15.0764 57.5713 13.4911 57.5713H11.1947ZM0 83.5573C0 81.9715 1.28515 80.6859 2.87044 80.6859H9.61598C11.2013 80.6859 12.4864 81.9715 12.4864 83.5573C12.4864 85.1432 11.2013 86.4287 9.61598 86.4287H2.87044C1.28515 86.4287 0 85.1432 0 83.5573ZM22.533 103.657C20.9477 103.657 19.6625 104.943 19.6625 106.528C19.6625 108.114 20.9477 109.4 22.533 109.4H26.6951C28.2804 109.4 29.5656 108.114 29.5656 106.528C29.5656 104.943 28.2804 103.657 26.6951 103.657H22.533ZM28.8479 118.014C28.8479 116.428 30.1331 115.143 31.7184 115.143H33.8712C35.4565 115.143 36.7417 116.428 36.7417 118.014C36.7417 119.6 35.4565 120.885 33.8712 120.885H31.7184C30.1331 120.885 28.8479 119.6 28.8479 118.014ZM180.694 69.0568C179.109 69.0568 177.824 70.3424 177.824 71.9282C177.824 73.5141 179.109 74.7996 180.694 74.7996H182.13C183.715 74.7996 185 73.5141 185 71.9282C185 70.3424 183.715 69.0568 182.13 69.0568H180.694Z" fill="#4DDBDF" fill-opacity="0.1"/>
<path d="M105.502 44.3186V36.6873C105.502 33.2186 102.727 30.4436 99.2587 30.4436H62.7682C59.2994 30.4436 56.5244 33.2186 56.5244 36.6873V106.895C56.5244 109.254 57.7732 111.335 59.7157 112.306C60.5482 112.722 61.6582 113 62.6294 113H99.2595C100.37 113 101.341 112.722 102.173 112.306C104.116 111.196 105.365 109.254 105.365 106.895V90.1054H101.341V102.593C101.341 103.287 100.786 103.842 100.092 103.842H61.9365C61.2427 103.842 60.6877 103.287 60.6877 102.593V36.6873C60.6877 35.4386 61.659 34.4673 62.9077 34.4673H70.4002C70.9552 34.4673 71.3715 34.7448 71.5102 35.2998C72.0652 36.8261 73.4527 37.9361 75.2565 37.9361H87.0503C88.7153 37.9361 90.2415 36.8261 90.7965 35.2998C90.9353 34.7448 91.4903 34.4673 91.9065 34.4673H99.3991C100.648 34.4673 101.619 35.4386 101.619 36.6873V44.3186H105.502ZM74.562 107.866C74.562 106.895 75.3945 106.201 76.227 106.201H85.662C86.6332 106.201 87.327 107.034 87.327 107.866V108.976C87.327 109.947 86.4945 110.641 85.662 110.641H76.3657C75.3945 110.641 74.7007 109.809 74.7007 108.976V107.866H74.562Z" fill="#4DDBDF"/>
<path d="M121.733 62.219H127.977C128.671 62.219 129.087 61.5253 128.948 60.9703L128.116 58.334C127.977 57.9178 127.699 57.6403 127.283 57.6403L122.843 57.0853C122.288 56.9465 121.733 57.5015 121.733 58.0565V60.4153H121.178L117.848 47.6502H87.4626L84.1326 60.4153H83.5776V58.0565C83.5776 57.5015 83.0226 56.9465 82.4676 57.0853L78.0275 57.6403C77.6113 57.6403 77.3338 57.9178 77.195 58.334L76.3625 60.9703C76.085 61.664 76.64 62.219 77.3338 62.219H83.5776C81.08 64.439 79.2763 67.214 77.8888 70.1278C76.64 73.0415 75.9463 76.3715 75.9463 79.7016V84.8353C75.9463 85.8066 76.7788 86.5003 77.8888 86.6391V89.9691C77.8888 90.3853 78.305 90.8016 78.7213 90.8016H88.5726C88.9888 90.8016 89.4051 90.3853 89.4051 89.9691V86.6391H115.906V89.9691C115.906 90.3853 116.322 90.8016 116.738 90.8016H126.589C127.006 90.8016 127.422 90.3853 127.422 89.9691V86.6391C128.532 86.5003 129.503 85.8066 129.503 84.8353V79.7016C129.364 73.0415 126.589 66.7978 121.733 62.219ZM87.4626 78.3141C87.4626 78.5916 87.1851 78.7303 87.0463 78.7303H79.415C79.1375 78.7303 78.9988 78.4528 78.9988 78.3141V75.4003C78.9988 75.1228 79.2763 74.984 79.415 74.984H87.0463C87.3238 74.984 87.4626 75.1228 87.4626 75.4003V78.3141ZM114.518 82.1991H90.653V81.0891H114.518V82.1991ZM114.518 78.7303H90.653V77.6203H114.518V78.7303ZM86.9076 62.0803C86.6301 62.0803 86.4913 61.8028 86.4913 61.5253L89.1276 50.2865C89.1276 50.1477 89.4051 50.009 89.5438 50.009H115.768C115.907 50.009 116.185 50.1477 116.185 50.2865L118.821 61.5253C118.821 61.8028 118.682 62.0803 118.405 62.0803H86.9076ZM126.173 78.3148C126.173 78.5923 125.896 78.7311 125.757 78.7311H118.126C117.848 78.7311 117.709 78.4536 117.709 78.3148V75.4011C117.709 75.1236 117.848 74.9848 118.126 74.9848H125.757C126.034 74.9848 126.173 75.2623 126.173 75.4011V78.3148Z" fill="#4DDBDF"/>
</svg>
