<svg width="34" height="34" viewBox="0 0 34 34" fill="none" xmlns="http://www.w3.org/2000/svg">
<rect width="34" height="34" rx="5" fill="black" fill-opacity="0.48"/>
<path d="M20 27.75H14C8.57 27.75 6.25 25.43 6.25 20V14C6.25 8.57 8.57 6.25 14 6.25H20C25.43 6.25 27.75 8.57 27.75 14V20C27.75 25.43 25.43 27.75 20 27.75ZM14 7.75C9.39 7.75 7.75 9.39 7.75 14V20C7.75 24.61 9.39 26.25 14 26.25H20C24.61 26.25 26.25 24.61 26.25 20V14C26.25 9.39 24.61 7.75 20 7.75H14Z" fill="white"/>
<path d="M11.0004 23.7495C10.8104 23.7495 10.6204 23.6795 10.4704 23.5295C10.1804 23.2395 10.1804 22.7595 10.4704 22.4695L22.4704 10.4695C22.7604 10.1795 23.2404 10.1795 23.5304 10.4695C23.8204 10.7595 23.8204 11.2395 23.5304 11.5295L11.5304 23.5295C11.3804 23.6795 11.1904 23.7495 11.0004 23.7495Z" fill="white"/>
<path d="M23 15.75C22.59 15.75 22.25 15.41 22.25 15V11.75H19C18.59 11.75 18.25 11.41 18.25 11C18.25 10.59 18.59 10.25 19 10.25H23C23.41 10.25 23.75 10.59 23.75 11V15C23.75 15.41 23.41 15.75 23 15.75Z" fill="white"/>
<path d="M15 23.75H11C10.59 23.75 10.25 23.41 10.25 23V19C10.25 18.59 10.59 18.25 11 18.25C11.41 18.25 11.75 18.59 11.75 19V22.25H15C15.41 22.25 15.75 22.59 15.75 23C15.75 23.41 15.41 23.75 15 23.75Z" fill="white"/>
</svg>
