<svg width="30" height="33" viewBox="0 0 30 33" fill="none" xmlns="http://www.w3.org/2000/svg">
<path d="M14.2519 25.428L14.7155 25.8315L15.1778 25.428C21.7632 19.6889 24.4513 15.1746 24.4513 9.84863V9.84834C24.4816 7.24693 23.4694 4.74165 21.6402 2.89152C19.8113 1.04109 17.3178 0 14.7163 0C12.1146 0 9.62126 1.04109 7.79218 2.89152C5.96332 4.74165 4.95111 7.24685 4.98112 9.84834C4.97995 15.1748 7.66388 19.689 14.2516 25.4277L14.2519 25.428ZM14.7169 1.41784C16.9469 1.41026 19.0863 2.30032 20.6524 3.88751C22.2189 5.47471 23.0807 7.62569 23.0434 9.85542C23.0434 14.6044 20.6218 18.7213 14.7171 23.9615C8.81067 18.716 6.39077 14.5992 6.39077 9.85542C6.35316 7.62569 7.21467 5.47441 8.78112 3.88722C10.3476 2.29973 12.4872 1.4097 14.7172 1.41784H14.7169Z" fill="#4DDBDF"/>
<path d="M18.7252 10.0621C18.7252 12.2773 16.9293 14.0731 14.7142 14.0731C12.499 14.0731 10.7031 12.2773 10.7031 10.0621C10.7031 7.84663 12.499 6.05106 14.7142 6.05106C16.9293 6.05106 18.7252 7.8467 18.7252 10.0621Z" fill="#4DDBDF"/>
<path d="M23.4686 19.7274C23.4681 19.7274 23.4676 19.7277 23.4674 19.7282L23.2228 20.4232C23.0998 20.7724 23.2846 21.1537 23.6287 21.2901C26.3951 22.3862 28.026 23.9285 28.026 25.4822C28.026 28.5842 21.9304 31.2043 14.7156 31.2043C7.50077 31.204 1.40666 28.5854 1.40666 25.4822C1.40666 23.9343 3.02529 22.3978 5.77278 21.3025C6.13386 21.1585 6.32822 20.7583 6.19949 20.3915C6.07077 20.0247 5.66811 19.8303 5.30657 19.9731C1.92677 21.3079 0 23.2934 0 25.4821C0 29.48 6.46527 32.6121 14.7188 32.6121C22.9723 32.6121 29.4376 29.4774 29.4376 25.4821C29.4364 23.1544 27.2566 21.0568 23.469 19.7274C23.4689 19.7274 23.4687 19.7274 23.4686 19.7274Z" fill="#4DDBDF"/>
</svg>
