<svg width="185" height="144" viewBox="0 0 185 144" fill="none" xmlns="http://www.w3.org/2000/svg">
<path fill-rule="evenodd" clip-rule="evenodd" d="M88.7684 0C87.1435 0 85.8262 1.31771 85.8262 2.94317C85.8262 4.56863 87.1435 5.88634 88.7684 5.88634H95.2987C96.884 5.88634 98.1691 7.17188 98.1691 8.75773C98.1691 10.3436 96.884 11.6291 95.2987 11.6291H56.476C54.851 11.6291 53.5337 12.9468 53.5337 14.5723C53.5337 16.1977 54.851 17.5155 56.476 17.5155H59.5617C61.147 17.5155 62.4321 18.801 62.4321 20.3868C62.4321 21.5234 61.772 22.5057 60.8144 22.9711H44.2766C42.6516 22.9711 41.3344 24.2888 41.3344 25.9143C41.3344 27.5397 42.6516 28.8574 44.2766 28.8574H46.5012C48.0865 28.8574 49.3716 30.143 49.3716 31.7288C49.3716 32.8654 48.7115 33.8477 47.7539 34.3131H35.8088C34.1838 34.3131 32.8666 35.6308 32.8666 37.2562C32.8666 38.8817 34.1838 40.1994 35.8088 40.1994H43.6307C45.216 40.1994 46.5012 41.4849 46.5012 43.0708C46.5012 44.6566 45.216 45.9422 43.6307 45.9422H26.3363C24.7114 45.9422 23.3941 47.2599 23.3941 48.8853C23.3941 50.5108 24.7114 51.8285 26.3363 51.8285H36.1676C37.7529 51.8285 39.038 53.114 39.038 54.6999C39.038 56.2858 37.7529 57.5713 36.1676 57.5713H20.5954C18.9705 57.5713 17.6532 58.889 17.6532 60.5145C17.6532 62.1399 18.9705 63.4576 20.5954 63.4576H23.5376C25.1229 63.4576 26.4081 64.7432 26.4081 66.329C26.4081 67.9149 25.1229 69.2004 23.5376 69.2004H8.97013C7.34521 69.2004 6.02793 70.5181 6.02793 72.1436C6.02793 73.769 7.34521 75.0867 8.97013 75.0867H31.1443C32.7296 75.0867 34.0147 76.308 34.0147 77.8146C34.0147 79.3211 32.7296 80.5424 31.1443 80.5424H18.8732C17.2482 80.5424 15.931 81.8601 15.931 83.4855C15.931 85.111 17.2482 86.4287 18.8732 86.4287H27.9868C29.5721 86.4287 30.8573 87.65 30.8573 89.1565C30.8573 90.6631 29.5721 91.8843 27.9868 91.8843H15.2851C13.6602 91.8843 12.3429 93.2021 12.3429 94.8275C12.3429 96.453 13.6602 97.7707 15.2851 97.7707H43.9178C45.5031 97.7707 46.7882 99.0241 46.7882 100.57C46.7882 102.116 45.5031 103.37 43.9178 103.37H38.2486C36.6237 103.37 35.3064 104.688 35.3064 106.313C35.3064 107.939 36.6237 109.256 38.2486 109.256H58.27C59.8553 109.256 61.1404 110.542 61.1404 112.128C61.1404 113.713 59.8553 114.999 58.27 114.999H42.9849C41.3599 114.999 40.0427 116.317 40.0427 117.942C40.0427 119.568 41.3599 120.885 42.9849 120.885H64.0109C65.5962 120.885 66.8813 122.107 66.8813 123.613C66.8813 125.12 65.5962 126.341 64.0109 126.341H58.1982C56.5733 126.341 55.256 127.659 55.256 129.284C55.256 130.91 56.5733 132.227 58.1982 132.227H77.5019C79.0872 132.227 80.3724 133.449 80.3724 134.955C80.3724 136.462 79.0872 137.683 77.5019 137.683H77.6455C75.9016 137.683 74.488 139.097 74.488 140.841C74.488 142.586 75.9016 144 77.6455 144H100.609C102.353 144 103.766 142.586 103.766 140.841C103.766 139.097 102.353 137.683 100.609 137.683H90.1319C88.5466 137.683 87.2614 136.462 87.2614 134.955C87.2614 133.449 88.5466 132.227 90.1319 132.227H139.001C140.626 132.227 141.943 130.91 141.943 129.284C141.943 127.659 140.626 126.341 139.001 126.341H115.392C113.806 126.341 112.521 125.12 112.521 123.613C112.521 122.107 113.806 120.885 115.392 120.885H156.941C158.566 120.885 159.884 119.568 159.884 117.942C159.884 116.317 158.566 114.999 156.941 114.999H138.355C136.77 114.999 135.485 113.713 135.485 112.128C135.485 110.542 136.77 109.256 138.355 109.256H152.636C154.261 109.256 155.578 107.939 155.578 106.313C155.578 104.688 154.261 103.37 152.636 103.37H145.818C144.233 103.37 142.948 102.116 142.948 100.57C142.948 99.0241 144.233 97.7707 145.818 97.7707H161.678C163.303 97.7707 164.62 96.453 164.62 94.8275C164.62 93.2021 163.303 91.8843 161.678 91.8843H153.425C151.84 91.8843 150.555 90.6631 150.555 89.1565C150.555 87.65 151.84 86.4287 153.425 86.4287H176.173C177.798 86.4287 179.116 85.111 179.116 83.4855C179.116 81.8601 177.798 80.5424 176.173 80.5424H162.324C160.738 80.5424 159.453 79.3211 159.453 77.8146C159.453 76.308 160.738 75.0867 162.324 75.0867H172.155C173.78 75.0867 175.097 73.769 175.097 72.1436C175.097 70.5181 173.78 69.2004 172.155 69.2004H158.879C157.294 69.2004 156.009 67.9149 156.009 66.329C156.009 64.7432 157.294 63.4576 158.879 63.4576H172.155C173.78 63.4576 175.097 62.1399 175.097 60.5145C175.097 58.889 173.78 57.5713 172.155 57.5713H152.995C151.409 57.5713 150.124 56.2858 150.124 54.6999C150.124 53.114 151.409 51.8285 152.995 51.8285H162.252C163.877 51.8285 165.194 50.5108 165.194 48.8853C165.194 47.2599 163.877 45.9422 162.252 45.9422H144.24C142.654 45.9422 141.369 44.6566 141.369 43.0708C141.369 41.4849 142.654 40.1994 144.24 40.1994H156.511C158.136 40.1994 159.453 38.8817 159.453 37.2562C159.453 35.6308 158.136 34.3131 156.511 34.3131H128.204C127.247 33.8477 126.587 32.8654 126.587 31.7288C126.587 30.143 127.872 28.8574 129.457 28.8574H141.298C142.922 28.8574 144.24 27.5397 144.24 25.9143C144.24 24.2888 142.922 22.9711 141.298 22.9711H111.986C111.029 22.5057 110.369 21.5234 110.369 20.3868C110.369 18.801 111.654 17.5155 113.239 17.5155H115.751C117.376 17.5155 118.693 16.1977 118.693 14.5723C118.693 12.9468 117.376 11.6291 115.751 11.6291H106.063C104.478 11.6291 103.192 10.3436 103.192 8.75773C103.192 7.17188 104.478 5.88634 106.063 5.88634H106.565C108.19 5.88634 109.507 4.56863 109.507 2.94317C109.507 1.31771 108.19 0 106.565 0H88.7684ZM123.142 11.4855C121.557 11.4855 120.272 12.7711 120.272 14.3569C120.272 15.9428 121.557 17.2283 123.142 17.2283H125.438C127.024 17.2283 128.309 15.9428 128.309 14.3569C128.309 12.7711 127.024 11.4855 125.438 11.4855H123.142ZM29.5656 25.8425C29.5656 24.2566 30.8507 22.9711 32.436 22.9711H34.7324C36.3176 22.9711 37.6028 24.2566 37.6028 25.8425C37.6028 27.4283 36.3176 28.7139 34.7324 28.7139H32.436C30.8507 28.7139 29.5656 27.4283 29.5656 25.8425ZM11.1947 57.5713C9.60943 57.5713 8.32428 58.8568 8.32428 60.4427C8.32428 62.0285 9.60943 63.3141 11.1947 63.3141H13.4911C15.0764 63.3141 16.3615 62.0285 16.3615 60.4427C16.3615 58.8568 15.0764 57.5713 13.4911 57.5713H11.1947ZM0 83.5573C0 81.9715 1.28515 80.6859 2.87044 80.6859H9.61598C11.2013 80.6859 12.4864 81.9715 12.4864 83.5573C12.4864 85.1432 11.2013 86.4287 9.61598 86.4287H2.87044C1.28515 86.4287 0 85.1432 0 83.5573ZM22.533 103.657C20.9477 103.657 19.6625 104.943 19.6625 106.528C19.6625 108.114 20.9477 109.4 22.533 109.4H26.6951C28.2804 109.4 29.5656 108.114 29.5656 106.528C29.5656 104.943 28.2804 103.657 26.6951 103.657H22.533ZM28.8479 118.014C28.8479 116.428 30.1331 115.143 31.7184 115.143H33.8712C35.4565 115.143 36.7417 116.428 36.7417 118.014C36.7417 119.6 35.4565 120.885 33.8712 120.885H31.7184C30.1331 120.885 28.8479 119.6 28.8479 118.014ZM180.694 69.0568C179.109 69.0568 177.824 70.3424 177.824 71.9282C177.824 73.5141 179.109 74.7996 180.694 74.7996H182.13C183.715 74.7996 185 73.5141 185 71.9282C185 70.3424 183.715 69.0568 182.13 69.0568H180.694Z" fill="#4DDBDF" fill-opacity="0.1"/>
<path d="M103.213 43.5331C100.57 43.2282 97.9259 43.9395 95.7914 45.5662L73.4256 62.5439C72.6122 63.1537 72.1038 64.0685 72.0024 65.1869C71.901 66.2038 72.2059 67.22 72.9172 68.0334C73.832 69.0504 75.3573 69.4567 76.6785 69.0504L87.9631 65.6955V64.8821C88.1666 61.7308 90.5046 59.087 93.5547 58.4772L94.2667 58.3758C98.3328 57.5624 102.603 57.1561 106.771 57.054L110.227 56.9525C111.244 56.9525 112.159 57.7659 112.159 58.7821C112.159 59.799 111.346 60.7139 110.33 60.7139L106.974 60.816C103.009 60.9174 99.0442 61.3245 95.0794 62.1378L94.3674 62.2392C92.9442 62.5442 91.9273 63.7639 91.8259 65.1871C91.7245 66.0005 92.0294 66.9153 92.6393 67.5251C93.2491 68.135 93.9611 68.5421 94.8758 68.5421L112.87 69.4569C114.903 69.5583 116.835 68.9484 118.563 67.8301L133.711 57.2575L118.36 45.2617L103.213 43.5331Z" fill="#4DDBDF"/>
<path d="M141.131 45.7719L129.033 36.3177C128.321 35.8092 127.305 35.9113 126.797 36.6226L121.815 43.129L136.455 54.515L141.436 48.0086C141.741 47.7037 141.843 47.2966 141.741 46.7889C141.64 46.3818 141.436 45.9755 141.131 45.772L141.131 45.7719Z" fill="#4DDBDF"/>
<path d="M110.225 74.9488L98.9407 78.3037V79.1171C98.7372 82.2684 96.3991 84.9122 93.3491 85.522L92.6371 85.6234C88.5709 86.4368 84.3004 86.8431 80.1328 86.9452L76.6764 87.0466C75.6595 87.0466 74.7446 86.2333 74.7446 85.2171C74.7446 84.2002 75.558 83.2853 76.5742 83.2853L80.0306 83.1839C83.9954 83.0825 87.9602 82.6754 91.9251 81.8621L92.6371 81.7607C94.0603 81.4557 95.0771 80.236 95.1786 78.8128C95.28 77.9994 94.9751 77.0846 94.3652 76.4748C93.7554 75.8649 93.0434 75.4578 92.1287 75.4578L74.1342 74.543C72.1011 74.4416 70.1694 75.0515 68.4413 76.1698L53.1926 86.8438L68.5435 98.7383L83.6914 100.467C86.3344 100.771 88.978 100.06 91.1126 98.4335L113.478 81.4558C114.292 80.8459 114.8 79.9312 114.902 78.8128C115.003 77.7958 114.698 76.7797 113.987 75.9662C112.971 74.9486 111.547 74.5422 110.225 74.9486L110.225 74.9488Z" fill="#4DDBDF"/>
<path d="M45.4662 95.9902C45.1613 96.2951 45.0599 96.7022 45.1613 97.2099C45.2627 97.6162 45.4662 98.0233 45.7712 98.2268L57.8692 107.681C58.5812 108.19 59.5974 108.087 60.1058 107.376L65.0874 100.87L50.5493 89.5852L45.4662 95.9902Z" fill="#4DDBDF"/>
</svg>
