<svg width="35" height="35" viewBox="0 0 35 35" fill="none" xmlns="http://www.w3.org/2000/svg">
<path opacity="0.4" d="M20.416 32.1543H9.58273C5.34612 32.1543 2.5 29.0838 2.5 24.5131V13.9634C2.5 9.39265 5.34612 6.32092 9.58273 6.32092H20.4173C24.6539 6.32092 27.5 9.39265 27.5 13.9634V24.5131C27.5 29.0838 24.6539 32.1543 20.416 32.1543Z" fill="#4DDBDF"/>
<path d="M19.2856 20.6444C19.5631 20.2685 20.5931 19.0931 21.9244 19.9301C22.7731 20.4571 23.4869 21.1701 24.2506 21.9334C24.5419 22.2254 24.7506 22.5586 24.8881 22.9138C25.3044 23.9885 25.0881 25.2801 24.6431 26.3445C24.1156 27.6116 23.1056 28.5687 21.8331 28.9872C21.2681 29.1745 20.6756 29.2546 20.0844 29.2546H9.60812C8.56562 29.2546 7.64312 29.004 6.88687 28.5339C6.41312 28.2394 6.32937 27.5612 6.68062 27.1195C7.26812 26.3832 7.84812 25.6444 8.43312 24.8991C9.54812 23.4731 10.2994 23.0598 11.1344 23.4227C11.4731 23.5726 11.8131 23.7986 12.1631 24.0363C13.0956 24.6744 14.3919 25.5501 16.0994 24.5994C17.2744 23.9355 17.9531 22.7963 18.5456 21.8094C18.7881 21.4077 19.0181 21.0073 19.2856 20.6444ZM10.9501 11.7311C12.6626 11.7311 14.0564 13.1726 14.0564 14.9422C14.0564 16.7117 12.6626 18.152 10.9501 18.152C9.23637 18.152 7.84387 16.7117 7.84387 14.9422C7.84387 13.1726 9.23637 11.7311 10.9501 11.7311Z" fill="#4DDBDF"/>
<path d="M30.8337 8.52791H25.8337V3.87695H24.167V8.52791H19.167V10.0782H24.167V14.7292H25.8337V10.0782H30.8337V8.52791Z" fill="#01304A"/>
</svg>
