<svg width="18" height="18" viewBox="0 0 18 18" fill="none" xmlns="http://www.w3.org/2000/svg">
<path fill-rule="evenodd" clip-rule="evenodd" d="M9.1875 2C12.5992 2 15.375 4.79675 15.375 8.23475C15.375 12.461 10.533 16.625 9.1875 16.625C7.842 16.625 3 12.461 3 8.23475C3 4.79675 5.77575 2 9.1875 2ZM9.1875 3.125C6.396 3.125 4.125 5.41775 4.125 8.23475C4.125 11.819 8.343 15.311 9.1875 15.497C10.032 15.3103 14.25 11.8182 14.25 8.23475C14.25 5.41775 11.979 3.125 9.1875 3.125ZM9.18825 5.75C10.5322 5.75 11.6257 6.8435 11.6257 8.18825C11.6257 9.53225 10.5322 10.625 9.18825 10.625C7.84425 10.625 6.75075 9.53225 6.75075 8.18825C6.75075 6.8435 7.84425 5.75 9.18825 5.75ZM9.18825 6.875C8.4645 6.875 7.87575 7.46375 7.87575 8.18825C7.87575 8.912 8.4645 9.5 9.18825 9.5C9.912 9.5 10.5007 8.912 10.5007 8.18825C10.5007 7.46375 9.912 6.875 9.18825 6.875Z" fill="#4DDBDF"/>
</svg>
