<svg width="30" height="31" viewBox="0 0 30 31" fill="none" xmlns="http://www.w3.org/2000/svg">
<path d="M29.4821 6.88349L16.357 0.102397C16.1082 -0.026335 15.8169 -0.0341027 15.5625 0.0814478L0.562403 6.86254C0.220716 7.01661 0 7.36496 0 7.74981V23.2498C0 23.6171 0.20076 23.9523 0.517929 24.1165L13.643 30.8976C13.7751 30.9662 13.9186 31 14.0625 31C14.1903 31 14.3179 30.973 14.4379 30.9186L29.4379 24.1375C29.7793 23.9834 30 23.6351 30 23.2502V7.75017C30 7.38324 29.7996 7.04807 29.4821 6.88383L29.4821 6.88349ZM15.9109 2.038L26.8537 7.69162L21.5901 10.0713L10.648 4.41801L15.9109 2.038ZM13.1254 28.4642L1.87534 22.6517L1.87502 9.31756L13.1251 15.13L13.1254 28.4642ZM14.0897 13.4615L3.14767 7.80856L8.41134 5.42889L19.3534 11.0825L14.0897 13.4615ZM28.1255 22.6171L15.0004 28.5501V15.1649L20.6253 12.6221V19.3752C20.6253 19.9101 21.0449 20.3439 21.5628 20.3439C22.0807 20.3439 22.5002 19.9097 22.5002 19.3752L22.5005 11.7744L28.1255 9.23159L28.1255 22.6171Z" fill="#4DDBDF"/>
</svg>
