<svg width="14" height="10" viewBox="0 0 14 10" fill="none" xmlns="http://www.w3.org/2000/svg">
<path d="M3.73319 7.08327H2.79986V6.24989H3.73319V7.08327ZM8.72997 9.87816L13.8633 5.29461C14.0456 5.13184 14.0456 4.86816 13.8633 4.70539L8.72997 0.121838C8.59643 0.00241332 8.39632 -0.032374 8.22133 0.0315243C8.04675 0.0959797 7.9333 0.247958 7.9333 0.4164V2.91652H0.466665C0.208749 2.91652 0 3.1031 0 3.33321V6.6667C0 6.89699 0.208749 7.08338 0.466665 7.08338H1.86666V6.25001H0.93333V3.74989H8.39997C8.65789 3.74989 8.86663 3.56331 8.86663 3.33321V1.4223L12.8733 4.99986L8.86663 8.57741V6.66651C8.86663 6.43621 8.65789 6.24982 8.39997 6.24982H4.66665V7.08319H7.9333V9.58331C7.9333 9.75175 8.04674 9.90402 8.22133 9.96828C8.27925 9.98986 8.33987 10 8.39997 10C8.52122 10 8.6406 9.95768 8.72997 9.87797L8.72997 9.87816Z" fill="#4EBEFA"/>
</svg>
